M48
; DRILL file {KiCad 9.0.3} date 2026-03-27T23:32:44+0100
; FORMAT={-:-/ absolute / metric / decimal}
; #@! TF.CreationDate,2026-03-27T23:32:44+01:00
; #@! TF.GenerationSoftware,Kicad,Pcbnew,9.0.3
; #@! TF.FileFunction,Plated,1,2,PTH
FMAT,2
METRIC
; #@! TA.AperFunction,Plated,PTH,ComponentDrill
T1C0.600
; #@! TA.AperFunction,Plated,PTH,ComponentDrill
T2C0.750
; #@! TA.AperFunction,Plated,PTH,ComponentDrill
T3C1.000
; #@! TA.AperFunction,Plated,PTH,ComponentDrill
T4C1.020
%
G90
G05
T1
X106.95Y-56.515
X108.95Y-56.515
X117.745Y-60.325
X119.745Y-60.325
T2
X108.585Y-67.31
X108.585Y-68.58
X108.585Y-69.85
T3
X127.635Y-65.155
X127.635Y-67.695
X127.635Y-70.235
X127.635Y-72.775
X127.635Y-75.315
X127.635Y-77.855
X127.635Y-80.395
X127.635Y-82.935
X127.635Y-85.475
X127.635Y-88.015
X127.635Y-92.075
X127.635Y-94.615
X127.635Y-97.155
X127.635Y-99.695
X127.635Y-102.235
X127.635Y-104.775
X127.635Y-107.315
X127.635Y-109.855
X175.895Y-74.295
X175.895Y-76.835
X175.895Y-79.375
X175.895Y-81.915
X175.895Y-84.455
X175.895Y-86.995
X175.895Y-89.535
X175.895Y-92.075
X175.895Y-97.155
X175.895Y-99.695
X175.895Y-102.235
X175.895Y-104.775
X175.895Y-107.315
X175.895Y-109.855
T4
X90.805Y-62.865
X93.345Y-62.865
X95.885Y-62.865
M30
