%TF.GenerationSoftware,KiCad,Pcbnew,9.0.0*%
%TF.CreationDate,2025-04-24T02:30:35+05:30*%
%TF.ProjectId,suganya_arduino,73756761-6e79-4615-9f61-726475696e6f,rev?*%
%TF.SameCoordinates,Original*%
%TF.FileFunction,Legend,Bot*%
%TF.FilePolarity,Positive*%
%FSLAX46Y46*%
G04 Gerber Fmt 4.6, Leading zero omitted, Abs format (unit mm)*
G04 Created by KiCad (PCBNEW 9.0.0) date 2025-04-24 02:30:35*
%MOMM*%
%LPD*%
G01*
G04 APERTURE LIST*
%ADD10C,0.200000*%
G04 APERTURE END LIST*
D10*
X153582707Y-40877457D02*
X152868422Y-40877457D01*
X153725564Y-41306028D02*
X153225564Y-39806028D01*
X153225564Y-39806028D02*
X152725564Y-41306028D01*
X151368422Y-41306028D02*
X151868422Y-40591742D01*
X152225565Y-41306028D02*
X152225565Y-39806028D01*
X152225565Y-39806028D02*
X151654136Y-39806028D01*
X151654136Y-39806028D02*
X151511279Y-39877457D01*
X151511279Y-39877457D02*
X151439850Y-39948885D01*
X151439850Y-39948885D02*
X151368422Y-40091742D01*
X151368422Y-40091742D02*
X151368422Y-40306028D01*
X151368422Y-40306028D02*
X151439850Y-40448885D01*
X151439850Y-40448885D02*
X151511279Y-40520314D01*
X151511279Y-40520314D02*
X151654136Y-40591742D01*
X151654136Y-40591742D02*
X152225565Y-40591742D01*
X150725565Y-41306028D02*
X150725565Y-39806028D01*
X150725565Y-39806028D02*
X150368422Y-39806028D01*
X150368422Y-39806028D02*
X150154136Y-39877457D01*
X150154136Y-39877457D02*
X150011279Y-40020314D01*
X150011279Y-40020314D02*
X149939850Y-40163171D01*
X149939850Y-40163171D02*
X149868422Y-40448885D01*
X149868422Y-40448885D02*
X149868422Y-40663171D01*
X149868422Y-40663171D02*
X149939850Y-40948885D01*
X149939850Y-40948885D02*
X150011279Y-41091742D01*
X150011279Y-41091742D02*
X150154136Y-41234600D01*
X150154136Y-41234600D02*
X150368422Y-41306028D01*
X150368422Y-41306028D02*
X150725565Y-41306028D01*
X149225565Y-39806028D02*
X149225565Y-41020314D01*
X149225565Y-41020314D02*
X149154136Y-41163171D01*
X149154136Y-41163171D02*
X149082708Y-41234600D01*
X149082708Y-41234600D02*
X148939850Y-41306028D01*
X148939850Y-41306028D02*
X148654136Y-41306028D01*
X148654136Y-41306028D02*
X148511279Y-41234600D01*
X148511279Y-41234600D02*
X148439850Y-41163171D01*
X148439850Y-41163171D02*
X148368422Y-41020314D01*
X148368422Y-41020314D02*
X148368422Y-39806028D01*
X147654136Y-41306028D02*
X147654136Y-39806028D01*
X146939850Y-41306028D02*
X146939850Y-39806028D01*
X146939850Y-39806028D02*
X146082707Y-41306028D01*
X146082707Y-41306028D02*
X146082707Y-39806028D01*
X145082706Y-39806028D02*
X144796992Y-39806028D01*
X144796992Y-39806028D02*
X144654135Y-39877457D01*
X144654135Y-39877457D02*
X144511278Y-40020314D01*
X144511278Y-40020314D02*
X144439849Y-40306028D01*
X144439849Y-40306028D02*
X144439849Y-40806028D01*
X144439849Y-40806028D02*
X144511278Y-41091742D01*
X144511278Y-41091742D02*
X144654135Y-41234600D01*
X144654135Y-41234600D02*
X144796992Y-41306028D01*
X144796992Y-41306028D02*
X145082706Y-41306028D01*
X145082706Y-41306028D02*
X145225564Y-41234600D01*
X145225564Y-41234600D02*
X145368421Y-41091742D01*
X145368421Y-41091742D02*
X145439849Y-40806028D01*
X145439849Y-40806028D02*
X145439849Y-40306028D01*
X145439849Y-40306028D02*
X145368421Y-40020314D01*
X145368421Y-40020314D02*
X145225564Y-39877457D01*
X145225564Y-39877457D02*
X145082706Y-39806028D01*
X142654135Y-39806028D02*
X142654135Y-41020314D01*
X142654135Y-41020314D02*
X142582706Y-41163171D01*
X142582706Y-41163171D02*
X142511278Y-41234600D01*
X142511278Y-41234600D02*
X142368420Y-41306028D01*
X142368420Y-41306028D02*
X142082706Y-41306028D01*
X142082706Y-41306028D02*
X141939849Y-41234600D01*
X141939849Y-41234600D02*
X141868420Y-41163171D01*
X141868420Y-41163171D02*
X141796992Y-41020314D01*
X141796992Y-41020314D02*
X141796992Y-39806028D01*
X141082706Y-41306028D02*
X141082706Y-39806028D01*
X141082706Y-39806028D02*
X140225563Y-41306028D01*
X140225563Y-41306028D02*
X140225563Y-39806028D01*
X139225562Y-39806028D02*
X138939848Y-39806028D01*
X138939848Y-39806028D02*
X138796991Y-39877457D01*
X138796991Y-39877457D02*
X138654134Y-40020314D01*
X138654134Y-40020314D02*
X138582705Y-40306028D01*
X138582705Y-40306028D02*
X138582705Y-40806028D01*
X138582705Y-40806028D02*
X138654134Y-41091742D01*
X138654134Y-41091742D02*
X138796991Y-41234600D01*
X138796991Y-41234600D02*
X138939848Y-41306028D01*
X138939848Y-41306028D02*
X139225562Y-41306028D01*
X139225562Y-41306028D02*
X139368420Y-41234600D01*
X139368420Y-41234600D02*
X139511277Y-41091742D01*
X139511277Y-41091742D02*
X139582705Y-40806028D01*
X139582705Y-40806028D02*
X139582705Y-40306028D01*
X139582705Y-40306028D02*
X139511277Y-40020314D01*
X139511277Y-40020314D02*
X139368420Y-39877457D01*
X139368420Y-39877457D02*
X139225562Y-39806028D01*
X135939848Y-41306028D02*
X136439848Y-40591742D01*
X136796991Y-41306028D02*
X136796991Y-39806028D01*
X136796991Y-39806028D02*
X136225562Y-39806028D01*
X136225562Y-39806028D02*
X136082705Y-39877457D01*
X136082705Y-39877457D02*
X136011276Y-39948885D01*
X136011276Y-39948885D02*
X135939848Y-40091742D01*
X135939848Y-40091742D02*
X135939848Y-40306028D01*
X135939848Y-40306028D02*
X136011276Y-40448885D01*
X136011276Y-40448885D02*
X136082705Y-40520314D01*
X136082705Y-40520314D02*
X136225562Y-40591742D01*
X136225562Y-40591742D02*
X136796991Y-40591742D01*
X135439848Y-39806028D02*
X134511276Y-39806028D01*
X134511276Y-39806028D02*
X135011276Y-40377457D01*
X135011276Y-40377457D02*
X134796991Y-40377457D01*
X134796991Y-40377457D02*
X134654134Y-40448885D01*
X134654134Y-40448885D02*
X134582705Y-40520314D01*
X134582705Y-40520314D02*
X134511276Y-40663171D01*
X134511276Y-40663171D02*
X134511276Y-41020314D01*
X134511276Y-41020314D02*
X134582705Y-41163171D01*
X134582705Y-41163171D02*
X134654134Y-41234600D01*
X134654134Y-41234600D02*
X134796991Y-41306028D01*
X134796991Y-41306028D02*
X135225562Y-41306028D01*
X135225562Y-41306028D02*
X135368419Y-41234600D01*
X135368419Y-41234600D02*
X135439848Y-41163171D01*
M02*
