%TF.GenerationSoftware,KiCad,Pcbnew,9.0.0*%
%TF.CreationDate,2025-04-24T02:30:34+05:30*%
%TF.ProjectId,suganya_arduino,73756761-6e79-4615-9f61-726475696e6f,rev?*%
%TF.SameCoordinates,Original*%
%TF.FileFunction,Legend,Top*%
%TF.FilePolarity,Positive*%
%FSLAX46Y46*%
G04 Gerber Fmt 4.6, Leading zero omitted, Abs format (unit mm)*
G04 Created by KiCad (PCBNEW 9.0.0) date 2025-04-24 02:30:34*
%MOMM*%
%LPD*%
G01*
G04 APERTURE LIST*
%ADD10C,0.200000*%
%ADD11C,0.150000*%
%ADD12C,0.120000*%
%ADD13C,0.127000*%
%ADD14C,0.254000*%
G04 APERTURE END LIST*
D10*
X189819684Y-68582707D02*
X189891112Y-68368422D01*
X189891112Y-68368422D02*
X189891112Y-68011279D01*
X189891112Y-68011279D02*
X189819684Y-67868422D01*
X189819684Y-67868422D02*
X189748255Y-67796993D01*
X189748255Y-67796993D02*
X189605398Y-67725564D01*
X189605398Y-67725564D02*
X189462541Y-67725564D01*
X189462541Y-67725564D02*
X189319684Y-67796993D01*
X189319684Y-67796993D02*
X189248255Y-67868422D01*
X189248255Y-67868422D02*
X189176826Y-68011279D01*
X189176826Y-68011279D02*
X189105398Y-68296993D01*
X189105398Y-68296993D02*
X189033969Y-68439850D01*
X189033969Y-68439850D02*
X188962541Y-68511279D01*
X188962541Y-68511279D02*
X188819684Y-68582707D01*
X188819684Y-68582707D02*
X188676826Y-68582707D01*
X188676826Y-68582707D02*
X188533969Y-68511279D01*
X188533969Y-68511279D02*
X188462541Y-68439850D01*
X188462541Y-68439850D02*
X188391112Y-68296993D01*
X188391112Y-68296993D02*
X188391112Y-67939850D01*
X188391112Y-67939850D02*
X188462541Y-67725564D01*
X188891112Y-66439851D02*
X189891112Y-66439851D01*
X188891112Y-67082708D02*
X189676826Y-67082708D01*
X189676826Y-67082708D02*
X189819684Y-67011279D01*
X189819684Y-67011279D02*
X189891112Y-66868422D01*
X189891112Y-66868422D02*
X189891112Y-66654136D01*
X189891112Y-66654136D02*
X189819684Y-66511279D01*
X189819684Y-66511279D02*
X189748255Y-66439851D01*
X188891112Y-65082708D02*
X190105398Y-65082708D01*
X190105398Y-65082708D02*
X190248255Y-65154136D01*
X190248255Y-65154136D02*
X190319684Y-65225565D01*
X190319684Y-65225565D02*
X190391112Y-65368422D01*
X190391112Y-65368422D02*
X190391112Y-65582708D01*
X190391112Y-65582708D02*
X190319684Y-65725565D01*
X189819684Y-65082708D02*
X189891112Y-65225565D01*
X189891112Y-65225565D02*
X189891112Y-65511279D01*
X189891112Y-65511279D02*
X189819684Y-65654136D01*
X189819684Y-65654136D02*
X189748255Y-65725565D01*
X189748255Y-65725565D02*
X189605398Y-65796993D01*
X189605398Y-65796993D02*
X189176826Y-65796993D01*
X189176826Y-65796993D02*
X189033969Y-65725565D01*
X189033969Y-65725565D02*
X188962541Y-65654136D01*
X188962541Y-65654136D02*
X188891112Y-65511279D01*
X188891112Y-65511279D02*
X188891112Y-65225565D01*
X188891112Y-65225565D02*
X188962541Y-65082708D01*
X189891112Y-63725565D02*
X189105398Y-63725565D01*
X189105398Y-63725565D02*
X188962541Y-63796993D01*
X188962541Y-63796993D02*
X188891112Y-63939850D01*
X188891112Y-63939850D02*
X188891112Y-64225565D01*
X188891112Y-64225565D02*
X188962541Y-64368422D01*
X189819684Y-63725565D02*
X189891112Y-63868422D01*
X189891112Y-63868422D02*
X189891112Y-64225565D01*
X189891112Y-64225565D02*
X189819684Y-64368422D01*
X189819684Y-64368422D02*
X189676826Y-64439850D01*
X189676826Y-64439850D02*
X189533969Y-64439850D01*
X189533969Y-64439850D02*
X189391112Y-64368422D01*
X189391112Y-64368422D02*
X189319684Y-64225565D01*
X189319684Y-64225565D02*
X189319684Y-63868422D01*
X189319684Y-63868422D02*
X189248255Y-63725565D01*
X188891112Y-63011279D02*
X189891112Y-63011279D01*
X189033969Y-63011279D02*
X188962541Y-62939850D01*
X188962541Y-62939850D02*
X188891112Y-62796993D01*
X188891112Y-62796993D02*
X188891112Y-62582707D01*
X188891112Y-62582707D02*
X188962541Y-62439850D01*
X188962541Y-62439850D02*
X189105398Y-62368422D01*
X189105398Y-62368422D02*
X189891112Y-62368422D01*
X188891112Y-61796993D02*
X189891112Y-61439850D01*
X188891112Y-61082707D02*
X189891112Y-61439850D01*
X189891112Y-61439850D02*
X190248255Y-61582707D01*
X190248255Y-61582707D02*
X190319684Y-61654136D01*
X190319684Y-61654136D02*
X190391112Y-61796993D01*
X189891112Y-59868422D02*
X189105398Y-59868422D01*
X189105398Y-59868422D02*
X188962541Y-59939850D01*
X188962541Y-59939850D02*
X188891112Y-60082707D01*
X188891112Y-60082707D02*
X188891112Y-60368422D01*
X188891112Y-60368422D02*
X188962541Y-60511279D01*
X189819684Y-59868422D02*
X189891112Y-60011279D01*
X189891112Y-60011279D02*
X189891112Y-60368422D01*
X189891112Y-60368422D02*
X189819684Y-60511279D01*
X189819684Y-60511279D02*
X189676826Y-60582707D01*
X189676826Y-60582707D02*
X189533969Y-60582707D01*
X189533969Y-60582707D02*
X189391112Y-60511279D01*
X189391112Y-60511279D02*
X189319684Y-60368422D01*
X189319684Y-60368422D02*
X189319684Y-60011279D01*
X189319684Y-60011279D02*
X189248255Y-59868422D01*
X189105398Y-57511279D02*
X189176826Y-57296993D01*
X189176826Y-57296993D02*
X189248255Y-57225564D01*
X189248255Y-57225564D02*
X189391112Y-57154136D01*
X189391112Y-57154136D02*
X189605398Y-57154136D01*
X189605398Y-57154136D02*
X189748255Y-57225564D01*
X189748255Y-57225564D02*
X189819684Y-57296993D01*
X189819684Y-57296993D02*
X189891112Y-57439850D01*
X189891112Y-57439850D02*
X189891112Y-58011279D01*
X189891112Y-58011279D02*
X188391112Y-58011279D01*
X188391112Y-58011279D02*
X188391112Y-57511279D01*
X188391112Y-57511279D02*
X188462541Y-57368422D01*
X188462541Y-57368422D02*
X188533969Y-57296993D01*
X188533969Y-57296993D02*
X188676826Y-57225564D01*
X188676826Y-57225564D02*
X188819684Y-57225564D01*
X188819684Y-57225564D02*
X188962541Y-57296993D01*
X188962541Y-57296993D02*
X189033969Y-57368422D01*
X189033969Y-57368422D02*
X189105398Y-57511279D01*
X189105398Y-57511279D02*
X189105398Y-58011279D01*
X189891112Y-55868422D02*
X189105398Y-55868422D01*
X189105398Y-55868422D02*
X188962541Y-55939850D01*
X188962541Y-55939850D02*
X188891112Y-56082707D01*
X188891112Y-56082707D02*
X188891112Y-56368422D01*
X188891112Y-56368422D02*
X188962541Y-56511279D01*
X189819684Y-55868422D02*
X189891112Y-56011279D01*
X189891112Y-56011279D02*
X189891112Y-56368422D01*
X189891112Y-56368422D02*
X189819684Y-56511279D01*
X189819684Y-56511279D02*
X189676826Y-56582707D01*
X189676826Y-56582707D02*
X189533969Y-56582707D01*
X189533969Y-56582707D02*
X189391112Y-56511279D01*
X189391112Y-56511279D02*
X189319684Y-56368422D01*
X189319684Y-56368422D02*
X189319684Y-56011279D01*
X189319684Y-56011279D02*
X189248255Y-55868422D01*
X189819684Y-55225564D02*
X189891112Y-55082707D01*
X189891112Y-55082707D02*
X189891112Y-54796993D01*
X189891112Y-54796993D02*
X189819684Y-54654136D01*
X189819684Y-54654136D02*
X189676826Y-54582707D01*
X189676826Y-54582707D02*
X189605398Y-54582707D01*
X189605398Y-54582707D02*
X189462541Y-54654136D01*
X189462541Y-54654136D02*
X189391112Y-54796993D01*
X189391112Y-54796993D02*
X189391112Y-55011279D01*
X189391112Y-55011279D02*
X189319684Y-55154136D01*
X189319684Y-55154136D02*
X189176826Y-55225564D01*
X189176826Y-55225564D02*
X189105398Y-55225564D01*
X189105398Y-55225564D02*
X188962541Y-55154136D01*
X188962541Y-55154136D02*
X188891112Y-55011279D01*
X188891112Y-55011279D02*
X188891112Y-54796993D01*
X188891112Y-54796993D02*
X188962541Y-54654136D01*
X189891112Y-53939850D02*
X188391112Y-53939850D01*
X189319684Y-53796993D02*
X189891112Y-53368421D01*
X188891112Y-53368421D02*
X189462541Y-53939850D01*
X189891112Y-52082707D02*
X189105398Y-52082707D01*
X189105398Y-52082707D02*
X188962541Y-52154135D01*
X188962541Y-52154135D02*
X188891112Y-52296992D01*
X188891112Y-52296992D02*
X188891112Y-52582707D01*
X188891112Y-52582707D02*
X188962541Y-52725564D01*
X189819684Y-52082707D02*
X189891112Y-52225564D01*
X189891112Y-52225564D02*
X189891112Y-52582707D01*
X189891112Y-52582707D02*
X189819684Y-52725564D01*
X189819684Y-52725564D02*
X189676826Y-52796992D01*
X189676826Y-52796992D02*
X189533969Y-52796992D01*
X189533969Y-52796992D02*
X189391112Y-52725564D01*
X189391112Y-52725564D02*
X189319684Y-52582707D01*
X189319684Y-52582707D02*
X189319684Y-52225564D01*
X189319684Y-52225564D02*
X189248255Y-52082707D01*
X189891112Y-51368421D02*
X188891112Y-51368421D01*
X189176826Y-51368421D02*
X189033969Y-51296992D01*
X189033969Y-51296992D02*
X188962541Y-51225564D01*
X188962541Y-51225564D02*
X188891112Y-51082706D01*
X188891112Y-51082706D02*
X188891112Y-50939849D01*
X189891112Y-49796993D02*
X189105398Y-49796993D01*
X189105398Y-49796993D02*
X188962541Y-49868421D01*
X188962541Y-49868421D02*
X188891112Y-50011278D01*
X188891112Y-50011278D02*
X188891112Y-50296993D01*
X188891112Y-50296993D02*
X188962541Y-50439850D01*
X189819684Y-49796993D02*
X189891112Y-49939850D01*
X189891112Y-49939850D02*
X189891112Y-50296993D01*
X189891112Y-50296993D02*
X189819684Y-50439850D01*
X189819684Y-50439850D02*
X189676826Y-50511278D01*
X189676826Y-50511278D02*
X189533969Y-50511278D01*
X189533969Y-50511278D02*
X189391112Y-50439850D01*
X189391112Y-50439850D02*
X189319684Y-50296993D01*
X189319684Y-50296993D02*
X189319684Y-49939850D01*
X189319684Y-49939850D02*
X189248255Y-49796993D01*
X188891112Y-49082707D02*
X189891112Y-49082707D01*
X189033969Y-49082707D02*
X188962541Y-49011278D01*
X188962541Y-49011278D02*
X188891112Y-48868421D01*
X188891112Y-48868421D02*
X188891112Y-48654135D01*
X188891112Y-48654135D02*
X188962541Y-48511278D01*
X188962541Y-48511278D02*
X189105398Y-48439850D01*
X189105398Y-48439850D02*
X189891112Y-48439850D01*
X190948885Y-68582707D02*
X190877457Y-68511279D01*
X190877457Y-68511279D02*
X190806028Y-68368422D01*
X190806028Y-68368422D02*
X190806028Y-68011279D01*
X190806028Y-68011279D02*
X190877457Y-67868422D01*
X190877457Y-67868422D02*
X190948885Y-67796993D01*
X190948885Y-67796993D02*
X191091742Y-67725564D01*
X191091742Y-67725564D02*
X191234600Y-67725564D01*
X191234600Y-67725564D02*
X191448885Y-67796993D01*
X191448885Y-67796993D02*
X192306028Y-68654136D01*
X192306028Y-68654136D02*
X192306028Y-67725564D01*
X191306028Y-66439851D02*
X192306028Y-66439851D01*
X190734600Y-66796993D02*
X191806028Y-67154136D01*
X191806028Y-67154136D02*
X191806028Y-66225565D01*
X191734600Y-65654137D02*
X191734600Y-64511280D01*
X190806028Y-63511279D02*
X190806028Y-63368422D01*
X190806028Y-63368422D02*
X190877457Y-63225565D01*
X190877457Y-63225565D02*
X190948885Y-63154137D01*
X190948885Y-63154137D02*
X191091742Y-63082708D01*
X191091742Y-63082708D02*
X191377457Y-63011279D01*
X191377457Y-63011279D02*
X191734600Y-63011279D01*
X191734600Y-63011279D02*
X192020314Y-63082708D01*
X192020314Y-63082708D02*
X192163171Y-63154137D01*
X192163171Y-63154137D02*
X192234600Y-63225565D01*
X192234600Y-63225565D02*
X192306028Y-63368422D01*
X192306028Y-63368422D02*
X192306028Y-63511279D01*
X192306028Y-63511279D02*
X192234600Y-63654137D01*
X192234600Y-63654137D02*
X192163171Y-63725565D01*
X192163171Y-63725565D02*
X192020314Y-63796994D01*
X192020314Y-63796994D02*
X191734600Y-63868422D01*
X191734600Y-63868422D02*
X191377457Y-63868422D01*
X191377457Y-63868422D02*
X191091742Y-63796994D01*
X191091742Y-63796994D02*
X190948885Y-63725565D01*
X190948885Y-63725565D02*
X190877457Y-63654137D01*
X190877457Y-63654137D02*
X190806028Y-63511279D01*
X191306028Y-61725566D02*
X192306028Y-61725566D01*
X190734600Y-62082708D02*
X191806028Y-62439851D01*
X191806028Y-62439851D02*
X191806028Y-61511280D01*
X191734600Y-60939852D02*
X191734600Y-59796995D01*
X190948885Y-59154137D02*
X190877457Y-59082709D01*
X190877457Y-59082709D02*
X190806028Y-58939852D01*
X190806028Y-58939852D02*
X190806028Y-58582709D01*
X190806028Y-58582709D02*
X190877457Y-58439852D01*
X190877457Y-58439852D02*
X190948885Y-58368423D01*
X190948885Y-58368423D02*
X191091742Y-58296994D01*
X191091742Y-58296994D02*
X191234600Y-58296994D01*
X191234600Y-58296994D02*
X191448885Y-58368423D01*
X191448885Y-58368423D02*
X192306028Y-59225566D01*
X192306028Y-59225566D02*
X192306028Y-58296994D01*
X190806028Y-57368423D02*
X190806028Y-57225566D01*
X190806028Y-57225566D02*
X190877457Y-57082709D01*
X190877457Y-57082709D02*
X190948885Y-57011281D01*
X190948885Y-57011281D02*
X191091742Y-56939852D01*
X191091742Y-56939852D02*
X191377457Y-56868423D01*
X191377457Y-56868423D02*
X191734600Y-56868423D01*
X191734600Y-56868423D02*
X192020314Y-56939852D01*
X192020314Y-56939852D02*
X192163171Y-57011281D01*
X192163171Y-57011281D02*
X192234600Y-57082709D01*
X192234600Y-57082709D02*
X192306028Y-57225566D01*
X192306028Y-57225566D02*
X192306028Y-57368423D01*
X192306028Y-57368423D02*
X192234600Y-57511281D01*
X192234600Y-57511281D02*
X192163171Y-57582709D01*
X192163171Y-57582709D02*
X192020314Y-57654138D01*
X192020314Y-57654138D02*
X191734600Y-57725566D01*
X191734600Y-57725566D02*
X191377457Y-57725566D01*
X191377457Y-57725566D02*
X191091742Y-57654138D01*
X191091742Y-57654138D02*
X190948885Y-57582709D01*
X190948885Y-57582709D02*
X190877457Y-57511281D01*
X190877457Y-57511281D02*
X190806028Y-57368423D01*
X190948885Y-56296995D02*
X190877457Y-56225567D01*
X190877457Y-56225567D02*
X190806028Y-56082710D01*
X190806028Y-56082710D02*
X190806028Y-55725567D01*
X190806028Y-55725567D02*
X190877457Y-55582710D01*
X190877457Y-55582710D02*
X190948885Y-55511281D01*
X190948885Y-55511281D02*
X191091742Y-55439852D01*
X191091742Y-55439852D02*
X191234600Y-55439852D01*
X191234600Y-55439852D02*
X191448885Y-55511281D01*
X191448885Y-55511281D02*
X192306028Y-56368424D01*
X192306028Y-56368424D02*
X192306028Y-55439852D01*
X190806028Y-54082710D02*
X190806028Y-54796996D01*
X190806028Y-54796996D02*
X191520314Y-54868424D01*
X191520314Y-54868424D02*
X191448885Y-54796996D01*
X191448885Y-54796996D02*
X191377457Y-54654139D01*
X191377457Y-54654139D02*
X191377457Y-54296996D01*
X191377457Y-54296996D02*
X191448885Y-54154139D01*
X191448885Y-54154139D02*
X191520314Y-54082710D01*
X191520314Y-54082710D02*
X191663171Y-54011281D01*
X191663171Y-54011281D02*
X192020314Y-54011281D01*
X192020314Y-54011281D02*
X192163171Y-54082710D01*
X192163171Y-54082710D02*
X192234600Y-54154139D01*
X192234600Y-54154139D02*
X192306028Y-54296996D01*
X192306028Y-54296996D02*
X192306028Y-54654139D01*
X192306028Y-54654139D02*
X192234600Y-54796996D01*
X192234600Y-54796996D02*
X192163171Y-54868424D01*
D11*
X117896666Y-87864819D02*
X117896666Y-88579104D01*
X117896666Y-88579104D02*
X117849047Y-88721961D01*
X117849047Y-88721961D02*
X117753809Y-88817200D01*
X117753809Y-88817200D02*
X117610952Y-88864819D01*
X117610952Y-88864819D02*
X117515714Y-88864819D01*
X118325238Y-87960057D02*
X118372857Y-87912438D01*
X118372857Y-87912438D02*
X118468095Y-87864819D01*
X118468095Y-87864819D02*
X118706190Y-87864819D01*
X118706190Y-87864819D02*
X118801428Y-87912438D01*
X118801428Y-87912438D02*
X118849047Y-87960057D01*
X118849047Y-87960057D02*
X118896666Y-88055295D01*
X118896666Y-88055295D02*
X118896666Y-88150533D01*
X118896666Y-88150533D02*
X118849047Y-88293390D01*
X118849047Y-88293390D02*
X118277619Y-88864819D01*
X118277619Y-88864819D02*
X118896666Y-88864819D01*
X141384819Y-84991666D02*
X140908628Y-85324999D01*
X141384819Y-85563094D02*
X140384819Y-85563094D01*
X140384819Y-85563094D02*
X140384819Y-85182142D01*
X140384819Y-85182142D02*
X140432438Y-85086904D01*
X140432438Y-85086904D02*
X140480057Y-85039285D01*
X140480057Y-85039285D02*
X140575295Y-84991666D01*
X140575295Y-84991666D02*
X140718152Y-84991666D01*
X140718152Y-84991666D02*
X140813390Y-85039285D01*
X140813390Y-85039285D02*
X140861009Y-85086904D01*
X140861009Y-85086904D02*
X140908628Y-85182142D01*
X140908628Y-85182142D02*
X140908628Y-85563094D01*
X141384819Y-84039285D02*
X141384819Y-84610713D01*
X141384819Y-84324999D02*
X140384819Y-84324999D01*
X140384819Y-84324999D02*
X140527676Y-84420237D01*
X140527676Y-84420237D02*
X140622914Y-84515475D01*
X140622914Y-84515475D02*
X140670533Y-84610713D01*
X174333333Y-62429580D02*
X174285714Y-62477200D01*
X174285714Y-62477200D02*
X174142857Y-62524819D01*
X174142857Y-62524819D02*
X174047619Y-62524819D01*
X174047619Y-62524819D02*
X173904762Y-62477200D01*
X173904762Y-62477200D02*
X173809524Y-62381961D01*
X173809524Y-62381961D02*
X173761905Y-62286723D01*
X173761905Y-62286723D02*
X173714286Y-62096247D01*
X173714286Y-62096247D02*
X173714286Y-61953390D01*
X173714286Y-61953390D02*
X173761905Y-61762914D01*
X173761905Y-61762914D02*
X173809524Y-61667676D01*
X173809524Y-61667676D02*
X173904762Y-61572438D01*
X173904762Y-61572438D02*
X174047619Y-61524819D01*
X174047619Y-61524819D02*
X174142857Y-61524819D01*
X174142857Y-61524819D02*
X174285714Y-61572438D01*
X174285714Y-61572438D02*
X174333333Y-61620057D01*
X175190476Y-61858152D02*
X175190476Y-62524819D01*
X174952381Y-61477200D02*
X174714286Y-62191485D01*
X174714286Y-62191485D02*
X175333333Y-62191485D01*
X168761905Y-87104819D02*
X168761905Y-86104819D01*
X168761905Y-86104819D02*
X169142857Y-86104819D01*
X169142857Y-86104819D02*
X169238095Y-86152438D01*
X169238095Y-86152438D02*
X169285714Y-86200057D01*
X169285714Y-86200057D02*
X169333333Y-86295295D01*
X169333333Y-86295295D02*
X169333333Y-86438152D01*
X169333333Y-86438152D02*
X169285714Y-86533390D01*
X169285714Y-86533390D02*
X169238095Y-86581009D01*
X169238095Y-86581009D02*
X169142857Y-86628628D01*
X169142857Y-86628628D02*
X168761905Y-86628628D01*
X170333333Y-87009580D02*
X170285714Y-87057200D01*
X170285714Y-87057200D02*
X170142857Y-87104819D01*
X170142857Y-87104819D02*
X170047619Y-87104819D01*
X170047619Y-87104819D02*
X169904762Y-87057200D01*
X169904762Y-87057200D02*
X169809524Y-86961961D01*
X169809524Y-86961961D02*
X169761905Y-86866723D01*
X169761905Y-86866723D02*
X169714286Y-86676247D01*
X169714286Y-86676247D02*
X169714286Y-86533390D01*
X169714286Y-86533390D02*
X169761905Y-86342914D01*
X169761905Y-86342914D02*
X169809524Y-86247676D01*
X169809524Y-86247676D02*
X169904762Y-86152438D01*
X169904762Y-86152438D02*
X170047619Y-86104819D01*
X170047619Y-86104819D02*
X170142857Y-86104819D01*
X170142857Y-86104819D02*
X170285714Y-86152438D01*
X170285714Y-86152438D02*
X170333333Y-86200057D01*
X171285714Y-87104819D02*
X170714286Y-87104819D01*
X171000000Y-87104819D02*
X171000000Y-86104819D01*
X171000000Y-86104819D02*
X170904762Y-86247676D01*
X170904762Y-86247676D02*
X170809524Y-86342914D01*
X170809524Y-86342914D02*
X170714286Y-86390533D01*
X154859580Y-104666666D02*
X154907200Y-104714285D01*
X154907200Y-104714285D02*
X154954819Y-104857142D01*
X154954819Y-104857142D02*
X154954819Y-104952380D01*
X154954819Y-104952380D02*
X154907200Y-105095237D01*
X154907200Y-105095237D02*
X154811961Y-105190475D01*
X154811961Y-105190475D02*
X154716723Y-105238094D01*
X154716723Y-105238094D02*
X154526247Y-105285713D01*
X154526247Y-105285713D02*
X154383390Y-105285713D01*
X154383390Y-105285713D02*
X154192914Y-105238094D01*
X154192914Y-105238094D02*
X154097676Y-105190475D01*
X154097676Y-105190475D02*
X154002438Y-105095237D01*
X154002438Y-105095237D02*
X153954819Y-104952380D01*
X153954819Y-104952380D02*
X153954819Y-104857142D01*
X153954819Y-104857142D02*
X154002438Y-104714285D01*
X154002438Y-104714285D02*
X154050057Y-104666666D01*
X153954819Y-104333332D02*
X153954819Y-103714285D01*
X153954819Y-103714285D02*
X154335771Y-104047618D01*
X154335771Y-104047618D02*
X154335771Y-103904761D01*
X154335771Y-103904761D02*
X154383390Y-103809523D01*
X154383390Y-103809523D02*
X154431009Y-103761904D01*
X154431009Y-103761904D02*
X154526247Y-103714285D01*
X154526247Y-103714285D02*
X154764342Y-103714285D01*
X154764342Y-103714285D02*
X154859580Y-103761904D01*
X154859580Y-103761904D02*
X154907200Y-103809523D01*
X154907200Y-103809523D02*
X154954819Y-103904761D01*
X154954819Y-103904761D02*
X154954819Y-104190475D01*
X154954819Y-104190475D02*
X154907200Y-104285713D01*
X154907200Y-104285713D02*
X154859580Y-104333332D01*
X112761904Y-100556921D02*
X113188571Y-100556921D01*
X113188571Y-100556921D02*
X112761904Y-101366921D01*
X112761904Y-101366921D02*
X113188571Y-101366921D01*
X113767619Y-101366921D02*
X113401904Y-101366921D01*
X113584761Y-101366921D02*
X113584761Y-100556921D01*
X113584761Y-100556921D02*
X113523809Y-100672635D01*
X113523809Y-100672635D02*
X113462857Y-100749778D01*
X113462857Y-100749778D02*
X113401904Y-100788350D01*
X151454819Y-84104166D02*
X151454819Y-84580356D01*
X151454819Y-84580356D02*
X150454819Y-84580356D01*
X150550057Y-83818451D02*
X150502438Y-83770832D01*
X150502438Y-83770832D02*
X150454819Y-83675594D01*
X150454819Y-83675594D02*
X150454819Y-83437499D01*
X150454819Y-83437499D02*
X150502438Y-83342261D01*
X150502438Y-83342261D02*
X150550057Y-83294642D01*
X150550057Y-83294642D02*
X150645295Y-83247023D01*
X150645295Y-83247023D02*
X150740533Y-83247023D01*
X150740533Y-83247023D02*
X150883390Y-83294642D01*
X150883390Y-83294642D02*
X151454819Y-83866070D01*
X151454819Y-83866070D02*
X151454819Y-83247023D01*
X110166666Y-39954819D02*
X109833333Y-39478628D01*
X109595238Y-39954819D02*
X109595238Y-38954819D01*
X109595238Y-38954819D02*
X109976190Y-38954819D01*
X109976190Y-38954819D02*
X110071428Y-39002438D01*
X110071428Y-39002438D02*
X110119047Y-39050057D01*
X110119047Y-39050057D02*
X110166666Y-39145295D01*
X110166666Y-39145295D02*
X110166666Y-39288152D01*
X110166666Y-39288152D02*
X110119047Y-39383390D01*
X110119047Y-39383390D02*
X110071428Y-39431009D01*
X110071428Y-39431009D02*
X109976190Y-39478628D01*
X109976190Y-39478628D02*
X109595238Y-39478628D01*
X110595238Y-39431009D02*
X110928571Y-39431009D01*
X111071428Y-39954819D02*
X110595238Y-39954819D01*
X110595238Y-39954819D02*
X110595238Y-38954819D01*
X110595238Y-38954819D02*
X111071428Y-38954819D01*
X111833333Y-39431009D02*
X111500000Y-39431009D01*
X111500000Y-39954819D02*
X111500000Y-38954819D01*
X111500000Y-38954819D02*
X111976190Y-38954819D01*
X112500000Y-38954819D02*
X112500000Y-39192914D01*
X112261905Y-39097676D02*
X112500000Y-39192914D01*
X112500000Y-39192914D02*
X112738095Y-39097676D01*
X112357143Y-39383390D02*
X112500000Y-39192914D01*
X112500000Y-39192914D02*
X112642857Y-39383390D01*
X113261905Y-38954819D02*
X113261905Y-39192914D01*
X113023810Y-39097676D02*
X113261905Y-39192914D01*
X113261905Y-39192914D02*
X113500000Y-39097676D01*
X113119048Y-39383390D02*
X113261905Y-39192914D01*
X113261905Y-39192914D02*
X113404762Y-39383390D01*
X189166666Y-40254819D02*
X188833333Y-39778628D01*
X188595238Y-40254819D02*
X188595238Y-39254819D01*
X188595238Y-39254819D02*
X188976190Y-39254819D01*
X188976190Y-39254819D02*
X189071428Y-39302438D01*
X189071428Y-39302438D02*
X189119047Y-39350057D01*
X189119047Y-39350057D02*
X189166666Y-39445295D01*
X189166666Y-39445295D02*
X189166666Y-39588152D01*
X189166666Y-39588152D02*
X189119047Y-39683390D01*
X189119047Y-39683390D02*
X189071428Y-39731009D01*
X189071428Y-39731009D02*
X188976190Y-39778628D01*
X188976190Y-39778628D02*
X188595238Y-39778628D01*
X189595238Y-39731009D02*
X189928571Y-39731009D01*
X190071428Y-40254819D02*
X189595238Y-40254819D01*
X189595238Y-40254819D02*
X189595238Y-39254819D01*
X189595238Y-39254819D02*
X190071428Y-39254819D01*
X190833333Y-39731009D02*
X190500000Y-39731009D01*
X190500000Y-40254819D02*
X190500000Y-39254819D01*
X190500000Y-39254819D02*
X190976190Y-39254819D01*
X191500000Y-39254819D02*
X191500000Y-39492914D01*
X191261905Y-39397676D02*
X191500000Y-39492914D01*
X191500000Y-39492914D02*
X191738095Y-39397676D01*
X191357143Y-39683390D02*
X191500000Y-39492914D01*
X191500000Y-39492914D02*
X191642857Y-39683390D01*
X192261905Y-39254819D02*
X192261905Y-39492914D01*
X192023810Y-39397676D02*
X192261905Y-39492914D01*
X192261905Y-39492914D02*
X192500000Y-39397676D01*
X192119048Y-39683390D02*
X192261905Y-39492914D01*
X192261905Y-39492914D02*
X192404762Y-39683390D01*
X141289580Y-81666666D02*
X141337200Y-81714285D01*
X141337200Y-81714285D02*
X141384819Y-81857142D01*
X141384819Y-81857142D02*
X141384819Y-81952380D01*
X141384819Y-81952380D02*
X141337200Y-82095237D01*
X141337200Y-82095237D02*
X141241961Y-82190475D01*
X141241961Y-82190475D02*
X141146723Y-82238094D01*
X141146723Y-82238094D02*
X140956247Y-82285713D01*
X140956247Y-82285713D02*
X140813390Y-82285713D01*
X140813390Y-82285713D02*
X140622914Y-82238094D01*
X140622914Y-82238094D02*
X140527676Y-82190475D01*
X140527676Y-82190475D02*
X140432438Y-82095237D01*
X140432438Y-82095237D02*
X140384819Y-81952380D01*
X140384819Y-81952380D02*
X140384819Y-81857142D01*
X140384819Y-81857142D02*
X140432438Y-81714285D01*
X140432438Y-81714285D02*
X140480057Y-81666666D01*
X141384819Y-81190475D02*
X141384819Y-80999999D01*
X141384819Y-80999999D02*
X141337200Y-80904761D01*
X141337200Y-80904761D02*
X141289580Y-80857142D01*
X141289580Y-80857142D02*
X141146723Y-80761904D01*
X141146723Y-80761904D02*
X140956247Y-80714285D01*
X140956247Y-80714285D02*
X140575295Y-80714285D01*
X140575295Y-80714285D02*
X140480057Y-80761904D01*
X140480057Y-80761904D02*
X140432438Y-80809523D01*
X140432438Y-80809523D02*
X140384819Y-80904761D01*
X140384819Y-80904761D02*
X140384819Y-81095237D01*
X140384819Y-81095237D02*
X140432438Y-81190475D01*
X140432438Y-81190475D02*
X140480057Y-81238094D01*
X140480057Y-81238094D02*
X140575295Y-81285713D01*
X140575295Y-81285713D02*
X140813390Y-81285713D01*
X140813390Y-81285713D02*
X140908628Y-81238094D01*
X140908628Y-81238094D02*
X140956247Y-81190475D01*
X140956247Y-81190475D02*
X141003866Y-81095237D01*
X141003866Y-81095237D02*
X141003866Y-80904761D01*
X141003866Y-80904761D02*
X140956247Y-80809523D01*
X140956247Y-80809523D02*
X140908628Y-80761904D01*
X140908628Y-80761904D02*
X140813390Y-80714285D01*
X122170476Y-105454819D02*
X122837142Y-106454819D01*
X122837142Y-105454819D02*
X122170476Y-106454819D01*
X123170476Y-105550057D02*
X123218095Y-105502438D01*
X123218095Y-105502438D02*
X123313333Y-105454819D01*
X123313333Y-105454819D02*
X123551428Y-105454819D01*
X123551428Y-105454819D02*
X123646666Y-105502438D01*
X123646666Y-105502438D02*
X123694285Y-105550057D01*
X123694285Y-105550057D02*
X123741904Y-105645295D01*
X123741904Y-105645295D02*
X123741904Y-105740533D01*
X123741904Y-105740533D02*
X123694285Y-105883390D01*
X123694285Y-105883390D02*
X123122857Y-106454819D01*
X123122857Y-106454819D02*
X123741904Y-106454819D01*
X150100595Y-108954819D02*
X150100595Y-109764342D01*
X150100595Y-109764342D02*
X150148214Y-109859580D01*
X150148214Y-109859580D02*
X150195833Y-109907200D01*
X150195833Y-109907200D02*
X150291071Y-109954819D01*
X150291071Y-109954819D02*
X150481547Y-109954819D01*
X150481547Y-109954819D02*
X150576785Y-109907200D01*
X150576785Y-109907200D02*
X150624404Y-109859580D01*
X150624404Y-109859580D02*
X150672023Y-109764342D01*
X150672023Y-109764342D02*
X150672023Y-108954819D01*
X151100595Y-109050057D02*
X151148214Y-109002438D01*
X151148214Y-109002438D02*
X151243452Y-108954819D01*
X151243452Y-108954819D02*
X151481547Y-108954819D01*
X151481547Y-108954819D02*
X151576785Y-109002438D01*
X151576785Y-109002438D02*
X151624404Y-109050057D01*
X151624404Y-109050057D02*
X151672023Y-109145295D01*
X151672023Y-109145295D02*
X151672023Y-109240533D01*
X151672023Y-109240533D02*
X151624404Y-109383390D01*
X151624404Y-109383390D02*
X151052976Y-109954819D01*
X151052976Y-109954819D02*
X151672023Y-109954819D01*
X165747319Y-109259523D02*
X166747319Y-108592857D01*
X165747319Y-108592857D02*
X166747319Y-109259523D01*
X166747319Y-107688095D02*
X166747319Y-108259523D01*
X166747319Y-107973809D02*
X165747319Y-107973809D01*
X165747319Y-107973809D02*
X165890176Y-108069047D01*
X165890176Y-108069047D02*
X165985414Y-108164285D01*
X165985414Y-108164285D02*
X166033033Y-108259523D01*
X158666666Y-74154819D02*
X158666666Y-74869104D01*
X158666666Y-74869104D02*
X158619047Y-75011961D01*
X158619047Y-75011961D02*
X158523809Y-75107200D01*
X158523809Y-75107200D02*
X158380952Y-75154819D01*
X158380952Y-75154819D02*
X158285714Y-75154819D01*
X159142857Y-75154819D02*
X159142857Y-74154819D01*
X159142857Y-74154819D02*
X159523809Y-74154819D01*
X159523809Y-74154819D02*
X159619047Y-74202438D01*
X159619047Y-74202438D02*
X159666666Y-74250057D01*
X159666666Y-74250057D02*
X159714285Y-74345295D01*
X159714285Y-74345295D02*
X159714285Y-74488152D01*
X159714285Y-74488152D02*
X159666666Y-74583390D01*
X159666666Y-74583390D02*
X159619047Y-74631009D01*
X159619047Y-74631009D02*
X159523809Y-74678628D01*
X159523809Y-74678628D02*
X159142857Y-74678628D01*
X160095238Y-74250057D02*
X160142857Y-74202438D01*
X160142857Y-74202438D02*
X160238095Y-74154819D01*
X160238095Y-74154819D02*
X160476190Y-74154819D01*
X160476190Y-74154819D02*
X160571428Y-74202438D01*
X160571428Y-74202438D02*
X160619047Y-74250057D01*
X160619047Y-74250057D02*
X160666666Y-74345295D01*
X160666666Y-74345295D02*
X160666666Y-74440533D01*
X160666666Y-74440533D02*
X160619047Y-74583390D01*
X160619047Y-74583390D02*
X160047619Y-75154819D01*
X160047619Y-75154819D02*
X160666666Y-75154819D01*
X135929580Y-102166666D02*
X135977200Y-102214285D01*
X135977200Y-102214285D02*
X136024819Y-102357142D01*
X136024819Y-102357142D02*
X136024819Y-102452380D01*
X136024819Y-102452380D02*
X135977200Y-102595237D01*
X135977200Y-102595237D02*
X135881961Y-102690475D01*
X135881961Y-102690475D02*
X135786723Y-102738094D01*
X135786723Y-102738094D02*
X135596247Y-102785713D01*
X135596247Y-102785713D02*
X135453390Y-102785713D01*
X135453390Y-102785713D02*
X135262914Y-102738094D01*
X135262914Y-102738094D02*
X135167676Y-102690475D01*
X135167676Y-102690475D02*
X135072438Y-102595237D01*
X135072438Y-102595237D02*
X135024819Y-102452380D01*
X135024819Y-102452380D02*
X135024819Y-102357142D01*
X135024819Y-102357142D02*
X135072438Y-102214285D01*
X135072438Y-102214285D02*
X135120057Y-102166666D01*
X136024819Y-101214285D02*
X136024819Y-101785713D01*
X136024819Y-101499999D02*
X135024819Y-101499999D01*
X135024819Y-101499999D02*
X135167676Y-101595237D01*
X135167676Y-101595237D02*
X135262914Y-101690475D01*
X135262914Y-101690475D02*
X135310533Y-101785713D01*
X157429580Y-61891666D02*
X157477200Y-61939285D01*
X157477200Y-61939285D02*
X157524819Y-62082142D01*
X157524819Y-62082142D02*
X157524819Y-62177380D01*
X157524819Y-62177380D02*
X157477200Y-62320237D01*
X157477200Y-62320237D02*
X157381961Y-62415475D01*
X157381961Y-62415475D02*
X157286723Y-62463094D01*
X157286723Y-62463094D02*
X157096247Y-62510713D01*
X157096247Y-62510713D02*
X156953390Y-62510713D01*
X156953390Y-62510713D02*
X156762914Y-62463094D01*
X156762914Y-62463094D02*
X156667676Y-62415475D01*
X156667676Y-62415475D02*
X156572438Y-62320237D01*
X156572438Y-62320237D02*
X156524819Y-62177380D01*
X156524819Y-62177380D02*
X156524819Y-62082142D01*
X156524819Y-62082142D02*
X156572438Y-61939285D01*
X156572438Y-61939285D02*
X156620057Y-61891666D01*
X156524819Y-61034523D02*
X156524819Y-61224999D01*
X156524819Y-61224999D02*
X156572438Y-61320237D01*
X156572438Y-61320237D02*
X156620057Y-61367856D01*
X156620057Y-61367856D02*
X156762914Y-61463094D01*
X156762914Y-61463094D02*
X156953390Y-61510713D01*
X156953390Y-61510713D02*
X157334342Y-61510713D01*
X157334342Y-61510713D02*
X157429580Y-61463094D01*
X157429580Y-61463094D02*
X157477200Y-61415475D01*
X157477200Y-61415475D02*
X157524819Y-61320237D01*
X157524819Y-61320237D02*
X157524819Y-61129761D01*
X157524819Y-61129761D02*
X157477200Y-61034523D01*
X157477200Y-61034523D02*
X157429580Y-60986904D01*
X157429580Y-60986904D02*
X157334342Y-60939285D01*
X157334342Y-60939285D02*
X157096247Y-60939285D01*
X157096247Y-60939285D02*
X157001009Y-60986904D01*
X157001009Y-60986904D02*
X156953390Y-61034523D01*
X156953390Y-61034523D02*
X156905771Y-61129761D01*
X156905771Y-61129761D02*
X156905771Y-61320237D01*
X156905771Y-61320237D02*
X156953390Y-61415475D01*
X156953390Y-61415475D02*
X157001009Y-61463094D01*
X157001009Y-61463094D02*
X157096247Y-61510713D01*
X152978628Y-70276190D02*
X153454819Y-70276190D01*
X152454819Y-70609523D02*
X152978628Y-70276190D01*
X152978628Y-70276190D02*
X152454819Y-69942857D01*
X152550057Y-69657142D02*
X152502438Y-69609523D01*
X152502438Y-69609523D02*
X152454819Y-69514285D01*
X152454819Y-69514285D02*
X152454819Y-69276190D01*
X152454819Y-69276190D02*
X152502438Y-69180952D01*
X152502438Y-69180952D02*
X152550057Y-69133333D01*
X152550057Y-69133333D02*
X152645295Y-69085714D01*
X152645295Y-69085714D02*
X152740533Y-69085714D01*
X152740533Y-69085714D02*
X152883390Y-69133333D01*
X152883390Y-69133333D02*
X153454819Y-69704761D01*
X153454819Y-69704761D02*
X153454819Y-69085714D01*
X142238095Y-107879819D02*
X142238095Y-108689342D01*
X142238095Y-108689342D02*
X142285714Y-108784580D01*
X142285714Y-108784580D02*
X142333333Y-108832200D01*
X142333333Y-108832200D02*
X142428571Y-108879819D01*
X142428571Y-108879819D02*
X142619047Y-108879819D01*
X142619047Y-108879819D02*
X142714285Y-108832200D01*
X142714285Y-108832200D02*
X142761904Y-108784580D01*
X142761904Y-108784580D02*
X142809523Y-108689342D01*
X142809523Y-108689342D02*
X142809523Y-107879819D01*
X143761904Y-107879819D02*
X143285714Y-107879819D01*
X143285714Y-107879819D02*
X143238095Y-108356009D01*
X143238095Y-108356009D02*
X143285714Y-108308390D01*
X143285714Y-108308390D02*
X143380952Y-108260771D01*
X143380952Y-108260771D02*
X143619047Y-108260771D01*
X143619047Y-108260771D02*
X143714285Y-108308390D01*
X143714285Y-108308390D02*
X143761904Y-108356009D01*
X143761904Y-108356009D02*
X143809523Y-108451247D01*
X143809523Y-108451247D02*
X143809523Y-108689342D01*
X143809523Y-108689342D02*
X143761904Y-108784580D01*
X143761904Y-108784580D02*
X143714285Y-108832200D01*
X143714285Y-108832200D02*
X143619047Y-108879819D01*
X143619047Y-108879819D02*
X143380952Y-108879819D01*
X143380952Y-108879819D02*
X143285714Y-108832200D01*
X143285714Y-108832200D02*
X143238095Y-108784580D01*
X134904761Y-109450057D02*
X134809523Y-109402438D01*
X134809523Y-109402438D02*
X134714285Y-109307200D01*
X134714285Y-109307200D02*
X134571428Y-109164342D01*
X134571428Y-109164342D02*
X134476190Y-109116723D01*
X134476190Y-109116723D02*
X134380952Y-109116723D01*
X134428571Y-109354819D02*
X134333333Y-109307200D01*
X134333333Y-109307200D02*
X134238095Y-109211961D01*
X134238095Y-109211961D02*
X134190476Y-109021485D01*
X134190476Y-109021485D02*
X134190476Y-108688152D01*
X134190476Y-108688152D02*
X134238095Y-108497676D01*
X134238095Y-108497676D02*
X134333333Y-108402438D01*
X134333333Y-108402438D02*
X134428571Y-108354819D01*
X134428571Y-108354819D02*
X134619047Y-108354819D01*
X134619047Y-108354819D02*
X134714285Y-108402438D01*
X134714285Y-108402438D02*
X134809523Y-108497676D01*
X134809523Y-108497676D02*
X134857142Y-108688152D01*
X134857142Y-108688152D02*
X134857142Y-109021485D01*
X134857142Y-109021485D02*
X134809523Y-109211961D01*
X134809523Y-109211961D02*
X134714285Y-109307200D01*
X134714285Y-109307200D02*
X134619047Y-109354819D01*
X134619047Y-109354819D02*
X134428571Y-109354819D01*
X135809523Y-109354819D02*
X135238095Y-109354819D01*
X135523809Y-109354819D02*
X135523809Y-108354819D01*
X135523809Y-108354819D02*
X135428571Y-108497676D01*
X135428571Y-108497676D02*
X135333333Y-108592914D01*
X135333333Y-108592914D02*
X135238095Y-108640533D01*
X114904819Y-97166666D02*
X114904819Y-97642856D01*
X114904819Y-97642856D02*
X113904819Y-97642856D01*
X114904819Y-96309523D02*
X114904819Y-96880951D01*
X114904819Y-96595237D02*
X113904819Y-96595237D01*
X113904819Y-96595237D02*
X114047676Y-96690475D01*
X114047676Y-96690475D02*
X114142914Y-96785713D01*
X114142914Y-96785713D02*
X114190533Y-96880951D01*
X136459523Y-58854819D02*
X136126190Y-58378628D01*
X135888095Y-58854819D02*
X135888095Y-57854819D01*
X135888095Y-57854819D02*
X136269047Y-57854819D01*
X136269047Y-57854819D02*
X136364285Y-57902438D01*
X136364285Y-57902438D02*
X136411904Y-57950057D01*
X136411904Y-57950057D02*
X136459523Y-58045295D01*
X136459523Y-58045295D02*
X136459523Y-58188152D01*
X136459523Y-58188152D02*
X136411904Y-58283390D01*
X136411904Y-58283390D02*
X136364285Y-58331009D01*
X136364285Y-58331009D02*
X136269047Y-58378628D01*
X136269047Y-58378628D02*
X135888095Y-58378628D01*
X136888095Y-58854819D02*
X136888095Y-57854819D01*
X136888095Y-57854819D02*
X137459523Y-58854819D01*
X137459523Y-58854819D02*
X137459523Y-57854819D01*
X138364285Y-58188152D02*
X138364285Y-58854819D01*
X138126190Y-57807200D02*
X137888095Y-58521485D01*
X137888095Y-58521485D02*
X138507142Y-58521485D01*
X136554819Y-90690476D02*
X136078628Y-91023809D01*
X136554819Y-91261904D02*
X135554819Y-91261904D01*
X135554819Y-91261904D02*
X135554819Y-90880952D01*
X135554819Y-90880952D02*
X135602438Y-90785714D01*
X135602438Y-90785714D02*
X135650057Y-90738095D01*
X135650057Y-90738095D02*
X135745295Y-90690476D01*
X135745295Y-90690476D02*
X135888152Y-90690476D01*
X135888152Y-90690476D02*
X135983390Y-90738095D01*
X135983390Y-90738095D02*
X136031009Y-90785714D01*
X136031009Y-90785714D02*
X136078628Y-90880952D01*
X136078628Y-90880952D02*
X136078628Y-91261904D01*
X136554819Y-90261904D02*
X135554819Y-90261904D01*
X135554819Y-90261904D02*
X136554819Y-89690476D01*
X136554819Y-89690476D02*
X135554819Y-89690476D01*
X135554819Y-89309523D02*
X135554819Y-88690476D01*
X135554819Y-88690476D02*
X135935771Y-89023809D01*
X135935771Y-89023809D02*
X135935771Y-88880952D01*
X135935771Y-88880952D02*
X135983390Y-88785714D01*
X135983390Y-88785714D02*
X136031009Y-88738095D01*
X136031009Y-88738095D02*
X136126247Y-88690476D01*
X136126247Y-88690476D02*
X136364342Y-88690476D01*
X136364342Y-88690476D02*
X136459580Y-88738095D01*
X136459580Y-88738095D02*
X136507200Y-88785714D01*
X136507200Y-88785714D02*
X136554819Y-88880952D01*
X136554819Y-88880952D02*
X136554819Y-89166666D01*
X136554819Y-89166666D02*
X136507200Y-89261904D01*
X136507200Y-89261904D02*
X136459580Y-89309523D01*
X139333333Y-93929580D02*
X139285714Y-93977200D01*
X139285714Y-93977200D02*
X139142857Y-94024819D01*
X139142857Y-94024819D02*
X139047619Y-94024819D01*
X139047619Y-94024819D02*
X138904762Y-93977200D01*
X138904762Y-93977200D02*
X138809524Y-93881961D01*
X138809524Y-93881961D02*
X138761905Y-93786723D01*
X138761905Y-93786723D02*
X138714286Y-93596247D01*
X138714286Y-93596247D02*
X138714286Y-93453390D01*
X138714286Y-93453390D02*
X138761905Y-93262914D01*
X138761905Y-93262914D02*
X138809524Y-93167676D01*
X138809524Y-93167676D02*
X138904762Y-93072438D01*
X138904762Y-93072438D02*
X139047619Y-93024819D01*
X139047619Y-93024819D02*
X139142857Y-93024819D01*
X139142857Y-93024819D02*
X139285714Y-93072438D01*
X139285714Y-93072438D02*
X139333333Y-93120057D01*
X139666667Y-93024819D02*
X140333333Y-93024819D01*
X140333333Y-93024819D02*
X139904762Y-94024819D01*
X126316666Y-90654819D02*
X126316666Y-91369104D01*
X126316666Y-91369104D02*
X126269047Y-91511961D01*
X126269047Y-91511961D02*
X126173809Y-91607200D01*
X126173809Y-91607200D02*
X126030952Y-91654819D01*
X126030952Y-91654819D02*
X125935714Y-91654819D01*
X126792857Y-91654819D02*
X126792857Y-90654819D01*
X126792857Y-90654819D02*
X127173809Y-90654819D01*
X127173809Y-90654819D02*
X127269047Y-90702438D01*
X127269047Y-90702438D02*
X127316666Y-90750057D01*
X127316666Y-90750057D02*
X127364285Y-90845295D01*
X127364285Y-90845295D02*
X127364285Y-90988152D01*
X127364285Y-90988152D02*
X127316666Y-91083390D01*
X127316666Y-91083390D02*
X127269047Y-91131009D01*
X127269047Y-91131009D02*
X127173809Y-91178628D01*
X127173809Y-91178628D02*
X126792857Y-91178628D01*
X128316666Y-91654819D02*
X127745238Y-91654819D01*
X128030952Y-91654819D02*
X128030952Y-90654819D01*
X128030952Y-90654819D02*
X127935714Y-90797676D01*
X127935714Y-90797676D02*
X127840476Y-90892914D01*
X127840476Y-90892914D02*
X127745238Y-90940533D01*
X165476667Y-44644819D02*
X166143333Y-44644819D01*
X166143333Y-44644819D02*
X165476667Y-45644819D01*
X165476667Y-45644819D02*
X166143333Y-45644819D01*
X166524286Y-44644819D02*
X166524286Y-45454342D01*
X166524286Y-45454342D02*
X166571905Y-45549580D01*
X166571905Y-45549580D02*
X166619524Y-45597200D01*
X166619524Y-45597200D02*
X166714762Y-45644819D01*
X166714762Y-45644819D02*
X166905238Y-45644819D01*
X166905238Y-45644819D02*
X167000476Y-45597200D01*
X167000476Y-45597200D02*
X167048095Y-45549580D01*
X167048095Y-45549580D02*
X167095714Y-45454342D01*
X167095714Y-45454342D02*
X167095714Y-44644819D01*
X168000476Y-44978152D02*
X168000476Y-45644819D01*
X167762381Y-44597200D02*
X167524286Y-45311485D01*
X167524286Y-45311485D02*
X168143333Y-45311485D01*
X150761905Y-61134819D02*
X150761905Y-60134819D01*
X150761905Y-60134819D02*
X151000000Y-60134819D01*
X151000000Y-60134819D02*
X151142857Y-60182438D01*
X151142857Y-60182438D02*
X151238095Y-60277676D01*
X151238095Y-60277676D02*
X151285714Y-60372914D01*
X151285714Y-60372914D02*
X151333333Y-60563390D01*
X151333333Y-60563390D02*
X151333333Y-60706247D01*
X151333333Y-60706247D02*
X151285714Y-60896723D01*
X151285714Y-60896723D02*
X151238095Y-60991961D01*
X151238095Y-60991961D02*
X151142857Y-61087200D01*
X151142857Y-61087200D02*
X151000000Y-61134819D01*
X151000000Y-61134819D02*
X150761905Y-61134819D01*
X151714286Y-60230057D02*
X151761905Y-60182438D01*
X151761905Y-60182438D02*
X151857143Y-60134819D01*
X151857143Y-60134819D02*
X152095238Y-60134819D01*
X152095238Y-60134819D02*
X152190476Y-60182438D01*
X152190476Y-60182438D02*
X152238095Y-60230057D01*
X152238095Y-60230057D02*
X152285714Y-60325295D01*
X152285714Y-60325295D02*
X152285714Y-60420533D01*
X152285714Y-60420533D02*
X152238095Y-60563390D01*
X152238095Y-60563390D02*
X151666667Y-61134819D01*
X151666667Y-61134819D02*
X152285714Y-61134819D01*
X111134819Y-87138094D02*
X110134819Y-87138094D01*
X110134819Y-87138094D02*
X110134819Y-86899999D01*
X110134819Y-86899999D02*
X110182438Y-86757142D01*
X110182438Y-86757142D02*
X110277676Y-86661904D01*
X110277676Y-86661904D02*
X110372914Y-86614285D01*
X110372914Y-86614285D02*
X110563390Y-86566666D01*
X110563390Y-86566666D02*
X110706247Y-86566666D01*
X110706247Y-86566666D02*
X110896723Y-86614285D01*
X110896723Y-86614285D02*
X110991961Y-86661904D01*
X110991961Y-86661904D02*
X111087200Y-86757142D01*
X111087200Y-86757142D02*
X111134819Y-86899999D01*
X111134819Y-86899999D02*
X111134819Y-87138094D01*
X110134819Y-86233332D02*
X110134819Y-85614285D01*
X110134819Y-85614285D02*
X110515771Y-85947618D01*
X110515771Y-85947618D02*
X110515771Y-85804761D01*
X110515771Y-85804761D02*
X110563390Y-85709523D01*
X110563390Y-85709523D02*
X110611009Y-85661904D01*
X110611009Y-85661904D02*
X110706247Y-85614285D01*
X110706247Y-85614285D02*
X110944342Y-85614285D01*
X110944342Y-85614285D02*
X111039580Y-85661904D01*
X111039580Y-85661904D02*
X111087200Y-85709523D01*
X111087200Y-85709523D02*
X111134819Y-85804761D01*
X111134819Y-85804761D02*
X111134819Y-86090475D01*
X111134819Y-86090475D02*
X111087200Y-86185713D01*
X111087200Y-86185713D02*
X111039580Y-86233332D01*
X135304819Y-76008928D02*
X134828628Y-76342261D01*
X135304819Y-76580356D02*
X134304819Y-76580356D01*
X134304819Y-76580356D02*
X134304819Y-76199404D01*
X134304819Y-76199404D02*
X134352438Y-76104166D01*
X134352438Y-76104166D02*
X134400057Y-76056547D01*
X134400057Y-76056547D02*
X134495295Y-76008928D01*
X134495295Y-76008928D02*
X134638152Y-76008928D01*
X134638152Y-76008928D02*
X134733390Y-76056547D01*
X134733390Y-76056547D02*
X134781009Y-76104166D01*
X134781009Y-76104166D02*
X134828628Y-76199404D01*
X134828628Y-76199404D02*
X134828628Y-76580356D01*
X135304819Y-75675594D02*
X134638152Y-75151785D01*
X134638152Y-75675594D02*
X135304819Y-75151785D01*
X135304819Y-74247023D02*
X135304819Y-74818451D01*
X135304819Y-74532737D02*
X134304819Y-74532737D01*
X134304819Y-74532737D02*
X134447676Y-74627975D01*
X134447676Y-74627975D02*
X134542914Y-74723213D01*
X134542914Y-74723213D02*
X134590533Y-74818451D01*
X179888095Y-97954819D02*
X179888095Y-98764342D01*
X179888095Y-98764342D02*
X179935714Y-98859580D01*
X179935714Y-98859580D02*
X179983333Y-98907200D01*
X179983333Y-98907200D02*
X180078571Y-98954819D01*
X180078571Y-98954819D02*
X180269047Y-98954819D01*
X180269047Y-98954819D02*
X180364285Y-98907200D01*
X180364285Y-98907200D02*
X180411904Y-98859580D01*
X180411904Y-98859580D02*
X180459523Y-98764342D01*
X180459523Y-98764342D02*
X180459523Y-97954819D01*
X181459523Y-98954819D02*
X180888095Y-98954819D01*
X181173809Y-98954819D02*
X181173809Y-97954819D01*
X181173809Y-97954819D02*
X181078571Y-98097676D01*
X181078571Y-98097676D02*
X180983333Y-98192914D01*
X180983333Y-98192914D02*
X180888095Y-98240533D01*
X133840712Y-94691977D02*
X133506898Y-94691977D01*
X133506898Y-95216541D02*
X133506898Y-94215100D01*
X133506898Y-94215100D02*
X133983775Y-94215100D01*
X134889840Y-95216541D02*
X134317588Y-95216541D01*
X134603714Y-95216541D02*
X134603714Y-94215100D01*
X134603714Y-94215100D02*
X134508339Y-94358163D01*
X134508339Y-94358163D02*
X134412964Y-94453539D01*
X134412964Y-94453539D02*
X134317588Y-94501226D01*
X179261905Y-88104819D02*
X179261905Y-87104819D01*
X179261905Y-87104819D02*
X179642857Y-87104819D01*
X179642857Y-87104819D02*
X179738095Y-87152438D01*
X179738095Y-87152438D02*
X179785714Y-87200057D01*
X179785714Y-87200057D02*
X179833333Y-87295295D01*
X179833333Y-87295295D02*
X179833333Y-87438152D01*
X179833333Y-87438152D02*
X179785714Y-87533390D01*
X179785714Y-87533390D02*
X179738095Y-87581009D01*
X179738095Y-87581009D02*
X179642857Y-87628628D01*
X179642857Y-87628628D02*
X179261905Y-87628628D01*
X180833333Y-88009580D02*
X180785714Y-88057200D01*
X180785714Y-88057200D02*
X180642857Y-88104819D01*
X180642857Y-88104819D02*
X180547619Y-88104819D01*
X180547619Y-88104819D02*
X180404762Y-88057200D01*
X180404762Y-88057200D02*
X180309524Y-87961961D01*
X180309524Y-87961961D02*
X180261905Y-87866723D01*
X180261905Y-87866723D02*
X180214286Y-87676247D01*
X180214286Y-87676247D02*
X180214286Y-87533390D01*
X180214286Y-87533390D02*
X180261905Y-87342914D01*
X180261905Y-87342914D02*
X180309524Y-87247676D01*
X180309524Y-87247676D02*
X180404762Y-87152438D01*
X180404762Y-87152438D02*
X180547619Y-87104819D01*
X180547619Y-87104819D02*
X180642857Y-87104819D01*
X180642857Y-87104819D02*
X180785714Y-87152438D01*
X180785714Y-87152438D02*
X180833333Y-87200057D01*
X181214286Y-87200057D02*
X181261905Y-87152438D01*
X181261905Y-87152438D02*
X181357143Y-87104819D01*
X181357143Y-87104819D02*
X181595238Y-87104819D01*
X181595238Y-87104819D02*
X181690476Y-87152438D01*
X181690476Y-87152438D02*
X181738095Y-87200057D01*
X181738095Y-87200057D02*
X181785714Y-87295295D01*
X181785714Y-87295295D02*
X181785714Y-87390533D01*
X181785714Y-87390533D02*
X181738095Y-87533390D01*
X181738095Y-87533390D02*
X181166667Y-88104819D01*
X181166667Y-88104819D02*
X181785714Y-88104819D01*
X123056921Y-98518095D02*
X123056921Y-98091428D01*
X123056921Y-98091428D02*
X123866921Y-98518095D01*
X123866921Y-98518095D02*
X123866921Y-98091428D01*
X123134064Y-97878095D02*
X123095492Y-97847619D01*
X123095492Y-97847619D02*
X123056921Y-97786666D01*
X123056921Y-97786666D02*
X123056921Y-97634285D01*
X123056921Y-97634285D02*
X123095492Y-97573333D01*
X123095492Y-97573333D02*
X123134064Y-97542857D01*
X123134064Y-97542857D02*
X123211207Y-97512380D01*
X123211207Y-97512380D02*
X123288350Y-97512380D01*
X123288350Y-97512380D02*
X123404064Y-97542857D01*
X123404064Y-97542857D02*
X123866921Y-97908571D01*
X123866921Y-97908571D02*
X123866921Y-97512380D01*
X138429580Y-88642857D02*
X138477200Y-88690476D01*
X138477200Y-88690476D02*
X138524819Y-88833333D01*
X138524819Y-88833333D02*
X138524819Y-88928571D01*
X138524819Y-88928571D02*
X138477200Y-89071428D01*
X138477200Y-89071428D02*
X138381961Y-89166666D01*
X138381961Y-89166666D02*
X138286723Y-89214285D01*
X138286723Y-89214285D02*
X138096247Y-89261904D01*
X138096247Y-89261904D02*
X137953390Y-89261904D01*
X137953390Y-89261904D02*
X137762914Y-89214285D01*
X137762914Y-89214285D02*
X137667676Y-89166666D01*
X137667676Y-89166666D02*
X137572438Y-89071428D01*
X137572438Y-89071428D02*
X137524819Y-88928571D01*
X137524819Y-88928571D02*
X137524819Y-88833333D01*
X137524819Y-88833333D02*
X137572438Y-88690476D01*
X137572438Y-88690476D02*
X137620057Y-88642857D01*
X138524819Y-87690476D02*
X138524819Y-88261904D01*
X138524819Y-87976190D02*
X137524819Y-87976190D01*
X137524819Y-87976190D02*
X137667676Y-88071428D01*
X137667676Y-88071428D02*
X137762914Y-88166666D01*
X137762914Y-88166666D02*
X137810533Y-88261904D01*
X138524819Y-86738095D02*
X138524819Y-87309523D01*
X138524819Y-87023809D02*
X137524819Y-87023809D01*
X137524819Y-87023809D02*
X137667676Y-87119047D01*
X137667676Y-87119047D02*
X137762914Y-87214285D01*
X137762914Y-87214285D02*
X137810533Y-87309523D01*
X185929580Y-100166666D02*
X185977200Y-100214285D01*
X185977200Y-100214285D02*
X186024819Y-100357142D01*
X186024819Y-100357142D02*
X186024819Y-100452380D01*
X186024819Y-100452380D02*
X185977200Y-100595237D01*
X185977200Y-100595237D02*
X185881961Y-100690475D01*
X185881961Y-100690475D02*
X185786723Y-100738094D01*
X185786723Y-100738094D02*
X185596247Y-100785713D01*
X185596247Y-100785713D02*
X185453390Y-100785713D01*
X185453390Y-100785713D02*
X185262914Y-100738094D01*
X185262914Y-100738094D02*
X185167676Y-100690475D01*
X185167676Y-100690475D02*
X185072438Y-100595237D01*
X185072438Y-100595237D02*
X185024819Y-100452380D01*
X185024819Y-100452380D02*
X185024819Y-100357142D01*
X185024819Y-100357142D02*
X185072438Y-100214285D01*
X185072438Y-100214285D02*
X185120057Y-100166666D01*
X185120057Y-99785713D02*
X185072438Y-99738094D01*
X185072438Y-99738094D02*
X185024819Y-99642856D01*
X185024819Y-99642856D02*
X185024819Y-99404761D01*
X185024819Y-99404761D02*
X185072438Y-99309523D01*
X185072438Y-99309523D02*
X185120057Y-99261904D01*
X185120057Y-99261904D02*
X185215295Y-99214285D01*
X185215295Y-99214285D02*
X185310533Y-99214285D01*
X185310533Y-99214285D02*
X185453390Y-99261904D01*
X185453390Y-99261904D02*
X186024819Y-99833332D01*
X186024819Y-99833332D02*
X186024819Y-99214285D01*
X134099819Y-49338333D02*
X134814104Y-49338333D01*
X134814104Y-49338333D02*
X134956961Y-49385952D01*
X134956961Y-49385952D02*
X135052200Y-49481190D01*
X135052200Y-49481190D02*
X135099819Y-49624047D01*
X135099819Y-49624047D02*
X135099819Y-49719285D01*
X134099819Y-48433571D02*
X134099819Y-48624047D01*
X134099819Y-48624047D02*
X134147438Y-48719285D01*
X134147438Y-48719285D02*
X134195057Y-48766904D01*
X134195057Y-48766904D02*
X134337914Y-48862142D01*
X134337914Y-48862142D02*
X134528390Y-48909761D01*
X134528390Y-48909761D02*
X134909342Y-48909761D01*
X134909342Y-48909761D02*
X135004580Y-48862142D01*
X135004580Y-48862142D02*
X135052200Y-48814523D01*
X135052200Y-48814523D02*
X135099819Y-48719285D01*
X135099819Y-48719285D02*
X135099819Y-48528809D01*
X135099819Y-48528809D02*
X135052200Y-48433571D01*
X135052200Y-48433571D02*
X135004580Y-48385952D01*
X135004580Y-48385952D02*
X134909342Y-48338333D01*
X134909342Y-48338333D02*
X134671247Y-48338333D01*
X134671247Y-48338333D02*
X134576009Y-48385952D01*
X134576009Y-48385952D02*
X134528390Y-48433571D01*
X134528390Y-48433571D02*
X134480771Y-48528809D01*
X134480771Y-48528809D02*
X134480771Y-48719285D01*
X134480771Y-48719285D02*
X134528390Y-48814523D01*
X134528390Y-48814523D02*
X134576009Y-48862142D01*
X134576009Y-48862142D02*
X134671247Y-48909761D01*
X103428571Y-72431009D02*
X103095238Y-72431009D01*
X103095238Y-72954819D02*
X103095238Y-71954819D01*
X103095238Y-71954819D02*
X103571428Y-71954819D01*
X103952381Y-72954819D02*
X103952381Y-71954819D01*
X104428571Y-72954819D02*
X104428571Y-71954819D01*
X104428571Y-71954819D02*
X104666666Y-71954819D01*
X104666666Y-71954819D02*
X104809523Y-72002438D01*
X104809523Y-72002438D02*
X104904761Y-72097676D01*
X104904761Y-72097676D02*
X104952380Y-72192914D01*
X104952380Y-72192914D02*
X104999999Y-72383390D01*
X104999999Y-72383390D02*
X104999999Y-72526247D01*
X104999999Y-72526247D02*
X104952380Y-72716723D01*
X104952380Y-72716723D02*
X104904761Y-72811961D01*
X104904761Y-72811961D02*
X104809523Y-72907200D01*
X104809523Y-72907200D02*
X104666666Y-72954819D01*
X104666666Y-72954819D02*
X104428571Y-72954819D01*
X105380952Y-72050057D02*
X105428571Y-72002438D01*
X105428571Y-72002438D02*
X105523809Y-71954819D01*
X105523809Y-71954819D02*
X105761904Y-71954819D01*
X105761904Y-71954819D02*
X105857142Y-72002438D01*
X105857142Y-72002438D02*
X105904761Y-72050057D01*
X105904761Y-72050057D02*
X105952380Y-72145295D01*
X105952380Y-72145295D02*
X105952380Y-72240533D01*
X105952380Y-72240533D02*
X105904761Y-72383390D01*
X105904761Y-72383390D02*
X105333333Y-72954819D01*
X105333333Y-72954819D02*
X105952380Y-72954819D01*
X166928571Y-95891009D02*
X166595238Y-95891009D01*
X166595238Y-96414819D02*
X166595238Y-95414819D01*
X166595238Y-95414819D02*
X167071428Y-95414819D01*
X167452381Y-96414819D02*
X167452381Y-95414819D01*
X167928571Y-96414819D02*
X167928571Y-95414819D01*
X167928571Y-95414819D02*
X168166666Y-95414819D01*
X168166666Y-95414819D02*
X168309523Y-95462438D01*
X168309523Y-95462438D02*
X168404761Y-95557676D01*
X168404761Y-95557676D02*
X168452380Y-95652914D01*
X168452380Y-95652914D02*
X168499999Y-95843390D01*
X168499999Y-95843390D02*
X168499999Y-95986247D01*
X168499999Y-95986247D02*
X168452380Y-96176723D01*
X168452380Y-96176723D02*
X168404761Y-96271961D01*
X168404761Y-96271961D02*
X168309523Y-96367200D01*
X168309523Y-96367200D02*
X168166666Y-96414819D01*
X168166666Y-96414819D02*
X167928571Y-96414819D01*
X168833333Y-95414819D02*
X169452380Y-95414819D01*
X169452380Y-95414819D02*
X169119047Y-95795771D01*
X169119047Y-95795771D02*
X169261904Y-95795771D01*
X169261904Y-95795771D02*
X169357142Y-95843390D01*
X169357142Y-95843390D02*
X169404761Y-95891009D01*
X169404761Y-95891009D02*
X169452380Y-95986247D01*
X169452380Y-95986247D02*
X169452380Y-96224342D01*
X169452380Y-96224342D02*
X169404761Y-96319580D01*
X169404761Y-96319580D02*
X169357142Y-96367200D01*
X169357142Y-96367200D02*
X169261904Y-96414819D01*
X169261904Y-96414819D02*
X168976190Y-96414819D01*
X168976190Y-96414819D02*
X168880952Y-96367200D01*
X168880952Y-96367200D02*
X168833333Y-96319580D01*
X132938095Y-86754819D02*
X132938095Y-87564342D01*
X132938095Y-87564342D02*
X132985714Y-87659580D01*
X132985714Y-87659580D02*
X133033333Y-87707200D01*
X133033333Y-87707200D02*
X133128571Y-87754819D01*
X133128571Y-87754819D02*
X133319047Y-87754819D01*
X133319047Y-87754819D02*
X133414285Y-87707200D01*
X133414285Y-87707200D02*
X133461904Y-87659580D01*
X133461904Y-87659580D02*
X133509523Y-87564342D01*
X133509523Y-87564342D02*
X133509523Y-86754819D01*
X133890476Y-86754819D02*
X134509523Y-86754819D01*
X134509523Y-86754819D02*
X134176190Y-87135771D01*
X134176190Y-87135771D02*
X134319047Y-87135771D01*
X134319047Y-87135771D02*
X134414285Y-87183390D01*
X134414285Y-87183390D02*
X134461904Y-87231009D01*
X134461904Y-87231009D02*
X134509523Y-87326247D01*
X134509523Y-87326247D02*
X134509523Y-87564342D01*
X134509523Y-87564342D02*
X134461904Y-87659580D01*
X134461904Y-87659580D02*
X134414285Y-87707200D01*
X134414285Y-87707200D02*
X134319047Y-87754819D01*
X134319047Y-87754819D02*
X134033333Y-87754819D01*
X134033333Y-87754819D02*
X133938095Y-87707200D01*
X133938095Y-87707200D02*
X133890476Y-87659580D01*
X107095238Y-46024819D02*
X107095238Y-45024819D01*
X107761904Y-45024819D02*
X107952380Y-45024819D01*
X107952380Y-45024819D02*
X108047618Y-45072438D01*
X108047618Y-45072438D02*
X108142856Y-45167676D01*
X108142856Y-45167676D02*
X108190475Y-45358152D01*
X108190475Y-45358152D02*
X108190475Y-45691485D01*
X108190475Y-45691485D02*
X108142856Y-45881961D01*
X108142856Y-45881961D02*
X108047618Y-45977200D01*
X108047618Y-45977200D02*
X107952380Y-46024819D01*
X107952380Y-46024819D02*
X107761904Y-46024819D01*
X107761904Y-46024819D02*
X107666666Y-45977200D01*
X107666666Y-45977200D02*
X107571428Y-45881961D01*
X107571428Y-45881961D02*
X107523809Y-45691485D01*
X107523809Y-45691485D02*
X107523809Y-45358152D01*
X107523809Y-45358152D02*
X107571428Y-45167676D01*
X107571428Y-45167676D02*
X107666666Y-45072438D01*
X107666666Y-45072438D02*
X107761904Y-45024819D01*
X109095237Y-46024819D02*
X108619047Y-46024819D01*
X108619047Y-46024819D02*
X108619047Y-45024819D01*
X109952380Y-46024819D02*
X109380952Y-46024819D01*
X109666666Y-46024819D02*
X109666666Y-45024819D01*
X109666666Y-45024819D02*
X109571428Y-45167676D01*
X109571428Y-45167676D02*
X109476190Y-45262914D01*
X109476190Y-45262914D02*
X109380952Y-45310533D01*
X191666666Y-96254819D02*
X191333333Y-95778628D01*
X191095238Y-96254819D02*
X191095238Y-95254819D01*
X191095238Y-95254819D02*
X191476190Y-95254819D01*
X191476190Y-95254819D02*
X191571428Y-95302438D01*
X191571428Y-95302438D02*
X191619047Y-95350057D01*
X191619047Y-95350057D02*
X191666666Y-95445295D01*
X191666666Y-95445295D02*
X191666666Y-95588152D01*
X191666666Y-95588152D02*
X191619047Y-95683390D01*
X191619047Y-95683390D02*
X191571428Y-95731009D01*
X191571428Y-95731009D02*
X191476190Y-95778628D01*
X191476190Y-95778628D02*
X191095238Y-95778628D01*
X192095238Y-95731009D02*
X192428571Y-95731009D01*
X192571428Y-96254819D02*
X192095238Y-96254819D01*
X192095238Y-96254819D02*
X192095238Y-95254819D01*
X192095238Y-95254819D02*
X192571428Y-95254819D01*
X193333333Y-95731009D02*
X193000000Y-95731009D01*
X193000000Y-96254819D02*
X193000000Y-95254819D01*
X193000000Y-95254819D02*
X193476190Y-95254819D01*
X194000000Y-95254819D02*
X194000000Y-95492914D01*
X193761905Y-95397676D02*
X194000000Y-95492914D01*
X194000000Y-95492914D02*
X194238095Y-95397676D01*
X193857143Y-95683390D02*
X194000000Y-95492914D01*
X194000000Y-95492914D02*
X194142857Y-95683390D01*
X194761905Y-95254819D02*
X194761905Y-95492914D01*
X194523810Y-95397676D02*
X194761905Y-95492914D01*
X194761905Y-95492914D02*
X195000000Y-95397676D01*
X194619048Y-95683390D02*
X194761905Y-95492914D01*
X194761905Y-95492914D02*
X194904762Y-95683390D01*
X178285714Y-61059104D02*
X178761904Y-61059104D01*
X178190476Y-61344819D02*
X178523809Y-60344819D01*
X178523809Y-60344819D02*
X178857142Y-61344819D01*
X179190476Y-61344819D02*
X179190476Y-60344819D01*
X179190476Y-60344819D02*
X179428571Y-60344819D01*
X179428571Y-60344819D02*
X179571428Y-60392438D01*
X179571428Y-60392438D02*
X179666666Y-60487676D01*
X179666666Y-60487676D02*
X179714285Y-60582914D01*
X179714285Y-60582914D02*
X179761904Y-60773390D01*
X179761904Y-60773390D02*
X179761904Y-60916247D01*
X179761904Y-60916247D02*
X179714285Y-61106723D01*
X179714285Y-61106723D02*
X179666666Y-61201961D01*
X179666666Y-61201961D02*
X179571428Y-61297200D01*
X179571428Y-61297200D02*
X179428571Y-61344819D01*
X179428571Y-61344819D02*
X179190476Y-61344819D01*
X180714285Y-61344819D02*
X180142857Y-61344819D01*
X180428571Y-61344819D02*
X180428571Y-60344819D01*
X180428571Y-60344819D02*
X180333333Y-60487676D01*
X180333333Y-60487676D02*
X180238095Y-60582914D01*
X180238095Y-60582914D02*
X180142857Y-60630533D01*
X155833333Y-76429580D02*
X155785714Y-76477200D01*
X155785714Y-76477200D02*
X155642857Y-76524819D01*
X155642857Y-76524819D02*
X155547619Y-76524819D01*
X155547619Y-76524819D02*
X155404762Y-76477200D01*
X155404762Y-76477200D02*
X155309524Y-76381961D01*
X155309524Y-76381961D02*
X155261905Y-76286723D01*
X155261905Y-76286723D02*
X155214286Y-76096247D01*
X155214286Y-76096247D02*
X155214286Y-75953390D01*
X155214286Y-75953390D02*
X155261905Y-75762914D01*
X155261905Y-75762914D02*
X155309524Y-75667676D01*
X155309524Y-75667676D02*
X155404762Y-75572438D01*
X155404762Y-75572438D02*
X155547619Y-75524819D01*
X155547619Y-75524819D02*
X155642857Y-75524819D01*
X155642857Y-75524819D02*
X155785714Y-75572438D01*
X155785714Y-75572438D02*
X155833333Y-75620057D01*
X156738095Y-75524819D02*
X156261905Y-75524819D01*
X156261905Y-75524819D02*
X156214286Y-76001009D01*
X156214286Y-76001009D02*
X156261905Y-75953390D01*
X156261905Y-75953390D02*
X156357143Y-75905771D01*
X156357143Y-75905771D02*
X156595238Y-75905771D01*
X156595238Y-75905771D02*
X156690476Y-75953390D01*
X156690476Y-75953390D02*
X156738095Y-76001009D01*
X156738095Y-76001009D02*
X156785714Y-76096247D01*
X156785714Y-76096247D02*
X156785714Y-76334342D01*
X156785714Y-76334342D02*
X156738095Y-76429580D01*
X156738095Y-76429580D02*
X156690476Y-76477200D01*
X156690476Y-76477200D02*
X156595238Y-76524819D01*
X156595238Y-76524819D02*
X156357143Y-76524819D01*
X156357143Y-76524819D02*
X156261905Y-76477200D01*
X156261905Y-76477200D02*
X156214286Y-76429580D01*
X158524819Y-68841666D02*
X158048628Y-69174999D01*
X158524819Y-69413094D02*
X157524819Y-69413094D01*
X157524819Y-69413094D02*
X157524819Y-69032142D01*
X157524819Y-69032142D02*
X157572438Y-68936904D01*
X157572438Y-68936904D02*
X157620057Y-68889285D01*
X157620057Y-68889285D02*
X157715295Y-68841666D01*
X157715295Y-68841666D02*
X157858152Y-68841666D01*
X157858152Y-68841666D02*
X157953390Y-68889285D01*
X157953390Y-68889285D02*
X158001009Y-68936904D01*
X158001009Y-68936904D02*
X158048628Y-69032142D01*
X158048628Y-69032142D02*
X158048628Y-69413094D01*
X157620057Y-68460713D02*
X157572438Y-68413094D01*
X157572438Y-68413094D02*
X157524819Y-68317856D01*
X157524819Y-68317856D02*
X157524819Y-68079761D01*
X157524819Y-68079761D02*
X157572438Y-67984523D01*
X157572438Y-67984523D02*
X157620057Y-67936904D01*
X157620057Y-67936904D02*
X157715295Y-67889285D01*
X157715295Y-67889285D02*
X157810533Y-67889285D01*
X157810533Y-67889285D02*
X157953390Y-67936904D01*
X157953390Y-67936904D02*
X158524819Y-68508332D01*
X158524819Y-68508332D02*
X158524819Y-67889285D01*
X114428571Y-52891009D02*
X114095238Y-52891009D01*
X114095238Y-53414819D02*
X114095238Y-52414819D01*
X114095238Y-52414819D02*
X114571428Y-52414819D01*
X114952381Y-53414819D02*
X114952381Y-52414819D01*
X115428571Y-53414819D02*
X115428571Y-52414819D01*
X115428571Y-52414819D02*
X115666666Y-52414819D01*
X115666666Y-52414819D02*
X115809523Y-52462438D01*
X115809523Y-52462438D02*
X115904761Y-52557676D01*
X115904761Y-52557676D02*
X115952380Y-52652914D01*
X115952380Y-52652914D02*
X115999999Y-52843390D01*
X115999999Y-52843390D02*
X115999999Y-52986247D01*
X115999999Y-52986247D02*
X115952380Y-53176723D01*
X115952380Y-53176723D02*
X115904761Y-53271961D01*
X115904761Y-53271961D02*
X115809523Y-53367200D01*
X115809523Y-53367200D02*
X115666666Y-53414819D01*
X115666666Y-53414819D02*
X115428571Y-53414819D01*
X116952380Y-53414819D02*
X116380952Y-53414819D01*
X116666666Y-53414819D02*
X116666666Y-52414819D01*
X116666666Y-52414819D02*
X116571428Y-52557676D01*
X116571428Y-52557676D02*
X116476190Y-52652914D01*
X116476190Y-52652914D02*
X116380952Y-52700533D01*
X130804819Y-76604166D02*
X130804819Y-76032738D01*
X131804819Y-76318452D02*
X130804819Y-76318452D01*
X131804819Y-75794642D02*
X131138152Y-75270833D01*
X131138152Y-75794642D02*
X131804819Y-75270833D01*
X131804819Y-74366071D02*
X131804819Y-74937499D01*
X131804819Y-74651785D02*
X130804819Y-74651785D01*
X130804819Y-74651785D02*
X130947676Y-74747023D01*
X130947676Y-74747023D02*
X131042914Y-74842261D01*
X131042914Y-74842261D02*
X131090533Y-74937499D01*
X107476191Y-99454819D02*
X107476191Y-98454819D01*
X108142857Y-98454819D02*
X108333333Y-98454819D01*
X108333333Y-98454819D02*
X108428571Y-98502438D01*
X108428571Y-98502438D02*
X108523809Y-98597676D01*
X108523809Y-98597676D02*
X108571428Y-98788152D01*
X108571428Y-98788152D02*
X108571428Y-99121485D01*
X108571428Y-99121485D02*
X108523809Y-99311961D01*
X108523809Y-99311961D02*
X108428571Y-99407200D01*
X108428571Y-99407200D02*
X108333333Y-99454819D01*
X108333333Y-99454819D02*
X108142857Y-99454819D01*
X108142857Y-99454819D02*
X108047619Y-99407200D01*
X108047619Y-99407200D02*
X107952381Y-99311961D01*
X107952381Y-99311961D02*
X107904762Y-99121485D01*
X107904762Y-99121485D02*
X107904762Y-98788152D01*
X107904762Y-98788152D02*
X107952381Y-98597676D01*
X107952381Y-98597676D02*
X108047619Y-98502438D01*
X108047619Y-98502438D02*
X108142857Y-98454819D01*
X109000000Y-99454819D02*
X109000000Y-98454819D01*
X109000000Y-98931009D02*
X109571428Y-98931009D01*
X109571428Y-99454819D02*
X109571428Y-98454819D01*
X110571428Y-99454819D02*
X110000000Y-99454819D01*
X110285714Y-99454819D02*
X110285714Y-98454819D01*
X110285714Y-98454819D02*
X110190476Y-98597676D01*
X110190476Y-98597676D02*
X110095238Y-98692914D01*
X110095238Y-98692914D02*
X110000000Y-98740533D01*
X129284819Y-83603333D02*
X129999104Y-83603333D01*
X129999104Y-83603333D02*
X130141961Y-83650952D01*
X130141961Y-83650952D02*
X130237200Y-83746190D01*
X130237200Y-83746190D02*
X130284819Y-83889047D01*
X130284819Y-83889047D02*
X130284819Y-83984285D01*
X129284819Y-83222380D02*
X129284819Y-82603333D01*
X129284819Y-82603333D02*
X129665771Y-82936666D01*
X129665771Y-82936666D02*
X129665771Y-82793809D01*
X129665771Y-82793809D02*
X129713390Y-82698571D01*
X129713390Y-82698571D02*
X129761009Y-82650952D01*
X129761009Y-82650952D02*
X129856247Y-82603333D01*
X129856247Y-82603333D02*
X130094342Y-82603333D01*
X130094342Y-82603333D02*
X130189580Y-82650952D01*
X130189580Y-82650952D02*
X130237200Y-82698571D01*
X130237200Y-82698571D02*
X130284819Y-82793809D01*
X130284819Y-82793809D02*
X130284819Y-83079523D01*
X130284819Y-83079523D02*
X130237200Y-83174761D01*
X130237200Y-83174761D02*
X130189580Y-83222380D01*
X148704819Y-96390476D02*
X148228628Y-96723809D01*
X148704819Y-96961904D02*
X147704819Y-96961904D01*
X147704819Y-96961904D02*
X147704819Y-96580952D01*
X147704819Y-96580952D02*
X147752438Y-96485714D01*
X147752438Y-96485714D02*
X147800057Y-96438095D01*
X147800057Y-96438095D02*
X147895295Y-96390476D01*
X147895295Y-96390476D02*
X148038152Y-96390476D01*
X148038152Y-96390476D02*
X148133390Y-96438095D01*
X148133390Y-96438095D02*
X148181009Y-96485714D01*
X148181009Y-96485714D02*
X148228628Y-96580952D01*
X148228628Y-96580952D02*
X148228628Y-96961904D01*
X148704819Y-95961904D02*
X147704819Y-95961904D01*
X147704819Y-95961904D02*
X148704819Y-95390476D01*
X148704819Y-95390476D02*
X147704819Y-95390476D01*
X148704819Y-94390476D02*
X148704819Y-94961904D01*
X148704819Y-94676190D02*
X147704819Y-94676190D01*
X147704819Y-94676190D02*
X147847676Y-94771428D01*
X147847676Y-94771428D02*
X147942914Y-94866666D01*
X147942914Y-94866666D02*
X147990533Y-94961904D01*
X176454819Y-72785713D02*
X175454819Y-72785713D01*
X175454819Y-72785713D02*
X175454819Y-72404761D01*
X175454819Y-72404761D02*
X175502438Y-72309523D01*
X175502438Y-72309523D02*
X175550057Y-72261904D01*
X175550057Y-72261904D02*
X175645295Y-72214285D01*
X175645295Y-72214285D02*
X175788152Y-72214285D01*
X175788152Y-72214285D02*
X175883390Y-72261904D01*
X175883390Y-72261904D02*
X175931009Y-72309523D01*
X175931009Y-72309523D02*
X175978628Y-72404761D01*
X175978628Y-72404761D02*
X175978628Y-72785713D01*
X175454819Y-71595237D02*
X175454819Y-71404761D01*
X175454819Y-71404761D02*
X175502438Y-71309523D01*
X175502438Y-71309523D02*
X175597676Y-71214285D01*
X175597676Y-71214285D02*
X175788152Y-71166666D01*
X175788152Y-71166666D02*
X176121485Y-71166666D01*
X176121485Y-71166666D02*
X176311961Y-71214285D01*
X176311961Y-71214285D02*
X176407200Y-71309523D01*
X176407200Y-71309523D02*
X176454819Y-71404761D01*
X176454819Y-71404761D02*
X176454819Y-71595237D01*
X176454819Y-71595237D02*
X176407200Y-71690475D01*
X176407200Y-71690475D02*
X176311961Y-71785713D01*
X176311961Y-71785713D02*
X176121485Y-71833332D01*
X176121485Y-71833332D02*
X175788152Y-71833332D01*
X175788152Y-71833332D02*
X175597676Y-71785713D01*
X175597676Y-71785713D02*
X175502438Y-71690475D01*
X175502438Y-71690475D02*
X175454819Y-71595237D01*
X175454819Y-70833332D02*
X176454819Y-70595237D01*
X176454819Y-70595237D02*
X175740533Y-70404761D01*
X175740533Y-70404761D02*
X176454819Y-70214285D01*
X176454819Y-70214285D02*
X175454819Y-69976190D01*
X175931009Y-69595237D02*
X175931009Y-69261904D01*
X176454819Y-69119047D02*
X176454819Y-69595237D01*
X176454819Y-69595237D02*
X175454819Y-69595237D01*
X175454819Y-69595237D02*
X175454819Y-69119047D01*
X176454819Y-68119047D02*
X175978628Y-68452380D01*
X176454819Y-68690475D02*
X175454819Y-68690475D01*
X175454819Y-68690475D02*
X175454819Y-68309523D01*
X175454819Y-68309523D02*
X175502438Y-68214285D01*
X175502438Y-68214285D02*
X175550057Y-68166666D01*
X175550057Y-68166666D02*
X175645295Y-68119047D01*
X175645295Y-68119047D02*
X175788152Y-68119047D01*
X175788152Y-68119047D02*
X175883390Y-68166666D01*
X175883390Y-68166666D02*
X175931009Y-68214285D01*
X175931009Y-68214285D02*
X175978628Y-68309523D01*
X175978628Y-68309523D02*
X175978628Y-68690475D01*
X176454819Y-67166666D02*
X176454819Y-67738094D01*
X176454819Y-67452380D02*
X175454819Y-67452380D01*
X175454819Y-67452380D02*
X175597676Y-67547618D01*
X175597676Y-67547618D02*
X175692914Y-67642856D01*
X175692914Y-67642856D02*
X175740533Y-67738094D01*
X104666666Y-102454819D02*
X104333333Y-101978628D01*
X104095238Y-102454819D02*
X104095238Y-101454819D01*
X104095238Y-101454819D02*
X104476190Y-101454819D01*
X104476190Y-101454819D02*
X104571428Y-101502438D01*
X104571428Y-101502438D02*
X104619047Y-101550057D01*
X104619047Y-101550057D02*
X104666666Y-101645295D01*
X104666666Y-101645295D02*
X104666666Y-101788152D01*
X104666666Y-101788152D02*
X104619047Y-101883390D01*
X104619047Y-101883390D02*
X104571428Y-101931009D01*
X104571428Y-101931009D02*
X104476190Y-101978628D01*
X104476190Y-101978628D02*
X104095238Y-101978628D01*
X105095238Y-101931009D02*
X105428571Y-101931009D01*
X105571428Y-102454819D02*
X105095238Y-102454819D01*
X105095238Y-102454819D02*
X105095238Y-101454819D01*
X105095238Y-101454819D02*
X105571428Y-101454819D01*
X106333333Y-101931009D02*
X106000000Y-101931009D01*
X106000000Y-102454819D02*
X106000000Y-101454819D01*
X106000000Y-101454819D02*
X106476190Y-101454819D01*
X107000000Y-101454819D02*
X107000000Y-101692914D01*
X106761905Y-101597676D02*
X107000000Y-101692914D01*
X107000000Y-101692914D02*
X107238095Y-101597676D01*
X106857143Y-101883390D02*
X107000000Y-101692914D01*
X107000000Y-101692914D02*
X107142857Y-101883390D01*
X107761905Y-101454819D02*
X107761905Y-101692914D01*
X107523810Y-101597676D02*
X107761905Y-101692914D01*
X107761905Y-101692914D02*
X108000000Y-101597676D01*
X107619048Y-101883390D02*
X107761905Y-101692914D01*
X107761905Y-101692914D02*
X107904762Y-101883390D01*
X148050714Y-51873776D02*
X147627380Y-51269014D01*
X147324999Y-51873776D02*
X147324999Y-50603776D01*
X147324999Y-50603776D02*
X147808809Y-50603776D01*
X147808809Y-50603776D02*
X147929761Y-50664252D01*
X147929761Y-50664252D02*
X147990238Y-50724728D01*
X147990238Y-50724728D02*
X148050714Y-50845680D01*
X148050714Y-50845680D02*
X148050714Y-51027109D01*
X148050714Y-51027109D02*
X147990238Y-51148061D01*
X147990238Y-51148061D02*
X147929761Y-51208538D01*
X147929761Y-51208538D02*
X147808809Y-51269014D01*
X147808809Y-51269014D02*
X147324999Y-51269014D01*
X148594999Y-51208538D02*
X149018333Y-51208538D01*
X149199761Y-51873776D02*
X148594999Y-51873776D01*
X148594999Y-51873776D02*
X148594999Y-50603776D01*
X148594999Y-50603776D02*
X149199761Y-50603776D01*
X149683571Y-51813300D02*
X149865000Y-51873776D01*
X149865000Y-51873776D02*
X150167381Y-51873776D01*
X150167381Y-51873776D02*
X150288333Y-51813300D01*
X150288333Y-51813300D02*
X150348809Y-51752823D01*
X150348809Y-51752823D02*
X150409286Y-51631871D01*
X150409286Y-51631871D02*
X150409286Y-51510919D01*
X150409286Y-51510919D02*
X150348809Y-51389966D01*
X150348809Y-51389966D02*
X150288333Y-51329490D01*
X150288333Y-51329490D02*
X150167381Y-51269014D01*
X150167381Y-51269014D02*
X149925476Y-51208538D01*
X149925476Y-51208538D02*
X149804524Y-51148061D01*
X149804524Y-51148061D02*
X149744047Y-51087585D01*
X149744047Y-51087585D02*
X149683571Y-50966633D01*
X149683571Y-50966633D02*
X149683571Y-50845680D01*
X149683571Y-50845680D02*
X149744047Y-50724728D01*
X149744047Y-50724728D02*
X149804524Y-50664252D01*
X149804524Y-50664252D02*
X149925476Y-50603776D01*
X149925476Y-50603776D02*
X150227857Y-50603776D01*
X150227857Y-50603776D02*
X150409286Y-50664252D01*
X150953571Y-51208538D02*
X151376905Y-51208538D01*
X151558333Y-51873776D02*
X150953571Y-51873776D01*
X150953571Y-51873776D02*
X150953571Y-50603776D01*
X150953571Y-50603776D02*
X151558333Y-50603776D01*
X151921191Y-50603776D02*
X152646905Y-50603776D01*
X152284048Y-51873776D02*
X152284048Y-50603776D01*
X153735477Y-51873776D02*
X153009762Y-51873776D01*
X153372619Y-51873776D02*
X153372619Y-50603776D01*
X153372619Y-50603776D02*
X153251667Y-50785204D01*
X153251667Y-50785204D02*
X153130715Y-50906157D01*
X153130715Y-50906157D02*
X153009762Y-50966633D01*
X126002438Y-51642857D02*
X125954819Y-51738095D01*
X125954819Y-51738095D02*
X125954819Y-51880952D01*
X125954819Y-51880952D02*
X126002438Y-52023809D01*
X126002438Y-52023809D02*
X126097676Y-52119047D01*
X126097676Y-52119047D02*
X126192914Y-52166666D01*
X126192914Y-52166666D02*
X126383390Y-52214285D01*
X126383390Y-52214285D02*
X126526247Y-52214285D01*
X126526247Y-52214285D02*
X126716723Y-52166666D01*
X126716723Y-52166666D02*
X126811961Y-52119047D01*
X126811961Y-52119047D02*
X126907200Y-52023809D01*
X126907200Y-52023809D02*
X126954819Y-51880952D01*
X126954819Y-51880952D02*
X126954819Y-51785714D01*
X126954819Y-51785714D02*
X126907200Y-51642857D01*
X126907200Y-51642857D02*
X126859580Y-51595238D01*
X126859580Y-51595238D02*
X126526247Y-51595238D01*
X126526247Y-51595238D02*
X126526247Y-51785714D01*
X126954819Y-50595238D02*
X126478628Y-50928571D01*
X126954819Y-51166666D02*
X125954819Y-51166666D01*
X125954819Y-51166666D02*
X125954819Y-50785714D01*
X125954819Y-50785714D02*
X126002438Y-50690476D01*
X126002438Y-50690476D02*
X126050057Y-50642857D01*
X126050057Y-50642857D02*
X126145295Y-50595238D01*
X126145295Y-50595238D02*
X126288152Y-50595238D01*
X126288152Y-50595238D02*
X126383390Y-50642857D01*
X126383390Y-50642857D02*
X126431009Y-50690476D01*
X126431009Y-50690476D02*
X126478628Y-50785714D01*
X126478628Y-50785714D02*
X126478628Y-51166666D01*
X126431009Y-50166666D02*
X126431009Y-49833333D01*
X126954819Y-49690476D02*
X126954819Y-50166666D01*
X126954819Y-50166666D02*
X125954819Y-50166666D01*
X125954819Y-50166666D02*
X125954819Y-49690476D01*
X126431009Y-49261904D02*
X126431009Y-48928571D01*
X126954819Y-48785714D02*
X126954819Y-49261904D01*
X126954819Y-49261904D02*
X125954819Y-49261904D01*
X125954819Y-49261904D02*
X125954819Y-48785714D01*
X126954819Y-48357142D02*
X125954819Y-48357142D01*
X125954819Y-48357142D02*
X126954819Y-47785714D01*
X126954819Y-47785714D02*
X125954819Y-47785714D01*
X126954819Y-46785714D02*
X126954819Y-47357142D01*
X126954819Y-47071428D02*
X125954819Y-47071428D01*
X125954819Y-47071428D02*
X126097676Y-47166666D01*
X126097676Y-47166666D02*
X126192914Y-47261904D01*
X126192914Y-47261904D02*
X126240533Y-47357142D01*
X148309523Y-81374819D02*
X147976190Y-80898628D01*
X147738095Y-81374819D02*
X147738095Y-80374819D01*
X147738095Y-80374819D02*
X148119047Y-80374819D01*
X148119047Y-80374819D02*
X148214285Y-80422438D01*
X148214285Y-80422438D02*
X148261904Y-80470057D01*
X148261904Y-80470057D02*
X148309523Y-80565295D01*
X148309523Y-80565295D02*
X148309523Y-80708152D01*
X148309523Y-80708152D02*
X148261904Y-80803390D01*
X148261904Y-80803390D02*
X148214285Y-80851009D01*
X148214285Y-80851009D02*
X148119047Y-80898628D01*
X148119047Y-80898628D02*
X147738095Y-80898628D01*
X148738095Y-81374819D02*
X148738095Y-80374819D01*
X148738095Y-80374819D02*
X149309523Y-81374819D01*
X149309523Y-81374819D02*
X149309523Y-80374819D01*
X149738095Y-80470057D02*
X149785714Y-80422438D01*
X149785714Y-80422438D02*
X149880952Y-80374819D01*
X149880952Y-80374819D02*
X150119047Y-80374819D01*
X150119047Y-80374819D02*
X150214285Y-80422438D01*
X150214285Y-80422438D02*
X150261904Y-80470057D01*
X150261904Y-80470057D02*
X150309523Y-80565295D01*
X150309523Y-80565295D02*
X150309523Y-80660533D01*
X150309523Y-80660533D02*
X150261904Y-80803390D01*
X150261904Y-80803390D02*
X149690476Y-81374819D01*
X149690476Y-81374819D02*
X150309523Y-81374819D01*
X170761905Y-107954819D02*
X170761905Y-106954819D01*
X170761905Y-106954819D02*
X171000000Y-106954819D01*
X171000000Y-106954819D02*
X171142857Y-107002438D01*
X171142857Y-107002438D02*
X171238095Y-107097676D01*
X171238095Y-107097676D02*
X171285714Y-107192914D01*
X171285714Y-107192914D02*
X171333333Y-107383390D01*
X171333333Y-107383390D02*
X171333333Y-107526247D01*
X171333333Y-107526247D02*
X171285714Y-107716723D01*
X171285714Y-107716723D02*
X171238095Y-107811961D01*
X171238095Y-107811961D02*
X171142857Y-107907200D01*
X171142857Y-107907200D02*
X171000000Y-107954819D01*
X171000000Y-107954819D02*
X170761905Y-107954819D01*
X172285714Y-107954819D02*
X171714286Y-107954819D01*
X172000000Y-107954819D02*
X172000000Y-106954819D01*
X172000000Y-106954819D02*
X171904762Y-107097676D01*
X171904762Y-107097676D02*
X171809524Y-107192914D01*
X171809524Y-107192914D02*
X171714286Y-107240533D01*
X129108333Y-88429580D02*
X129060714Y-88477200D01*
X129060714Y-88477200D02*
X128917857Y-88524819D01*
X128917857Y-88524819D02*
X128822619Y-88524819D01*
X128822619Y-88524819D02*
X128679762Y-88477200D01*
X128679762Y-88477200D02*
X128584524Y-88381961D01*
X128584524Y-88381961D02*
X128536905Y-88286723D01*
X128536905Y-88286723D02*
X128489286Y-88096247D01*
X128489286Y-88096247D02*
X128489286Y-87953390D01*
X128489286Y-87953390D02*
X128536905Y-87762914D01*
X128536905Y-87762914D02*
X128584524Y-87667676D01*
X128584524Y-87667676D02*
X128679762Y-87572438D01*
X128679762Y-87572438D02*
X128822619Y-87524819D01*
X128822619Y-87524819D02*
X128917857Y-87524819D01*
X128917857Y-87524819D02*
X129060714Y-87572438D01*
X129060714Y-87572438D02*
X129108333Y-87620057D01*
X129679762Y-87953390D02*
X129584524Y-87905771D01*
X129584524Y-87905771D02*
X129536905Y-87858152D01*
X129536905Y-87858152D02*
X129489286Y-87762914D01*
X129489286Y-87762914D02*
X129489286Y-87715295D01*
X129489286Y-87715295D02*
X129536905Y-87620057D01*
X129536905Y-87620057D02*
X129584524Y-87572438D01*
X129584524Y-87572438D02*
X129679762Y-87524819D01*
X129679762Y-87524819D02*
X129870238Y-87524819D01*
X129870238Y-87524819D02*
X129965476Y-87572438D01*
X129965476Y-87572438D02*
X130013095Y-87620057D01*
X130013095Y-87620057D02*
X130060714Y-87715295D01*
X130060714Y-87715295D02*
X130060714Y-87762914D01*
X130060714Y-87762914D02*
X130013095Y-87858152D01*
X130013095Y-87858152D02*
X129965476Y-87905771D01*
X129965476Y-87905771D02*
X129870238Y-87953390D01*
X129870238Y-87953390D02*
X129679762Y-87953390D01*
X129679762Y-87953390D02*
X129584524Y-88001009D01*
X129584524Y-88001009D02*
X129536905Y-88048628D01*
X129536905Y-88048628D02*
X129489286Y-88143866D01*
X129489286Y-88143866D02*
X129489286Y-88334342D01*
X129489286Y-88334342D02*
X129536905Y-88429580D01*
X129536905Y-88429580D02*
X129584524Y-88477200D01*
X129584524Y-88477200D02*
X129679762Y-88524819D01*
X129679762Y-88524819D02*
X129870238Y-88524819D01*
X129870238Y-88524819D02*
X129965476Y-88477200D01*
X129965476Y-88477200D02*
X130013095Y-88429580D01*
X130013095Y-88429580D02*
X130060714Y-88334342D01*
X130060714Y-88334342D02*
X130060714Y-88143866D01*
X130060714Y-88143866D02*
X130013095Y-88048628D01*
X130013095Y-88048628D02*
X129965476Y-88001009D01*
X129965476Y-88001009D02*
X129870238Y-87953390D01*
X140978628Y-79476190D02*
X141454819Y-79476190D01*
X140454819Y-79809523D02*
X140978628Y-79476190D01*
X140978628Y-79476190D02*
X140454819Y-79142857D01*
X141454819Y-78285714D02*
X141454819Y-78857142D01*
X141454819Y-78571428D02*
X140454819Y-78571428D01*
X140454819Y-78571428D02*
X140597676Y-78666666D01*
X140597676Y-78666666D02*
X140692914Y-78761904D01*
X140692914Y-78761904D02*
X140740533Y-78857142D01*
D12*
%TO.C,J2*%
X120830000Y-87410000D02*
X119500000Y-87410000D01*
X120830000Y-86080000D02*
X120830000Y-87410000D01*
X120830000Y-84810000D02*
X120830000Y-79670000D01*
X120830000Y-84810000D02*
X118230000Y-84810000D01*
X120830000Y-79670000D02*
X115630000Y-79670000D01*
X118230000Y-87410000D02*
X115630000Y-87410000D01*
X118230000Y-84810000D02*
X118230000Y-87410000D01*
X115630000Y-87410000D02*
X115630000Y-79670000D01*
%TO.C,R1*%
X138977500Y-84587742D02*
X138977500Y-85062258D01*
X140022500Y-84587742D02*
X140022500Y-85062258D01*
%TO.C,C4*%
X174359420Y-62990000D02*
X174640580Y-62990000D01*
X174359420Y-64010000D02*
X174640580Y-64010000D01*
%TO.C,PC1*%
X165562500Y-89152500D02*
X166350000Y-89152500D01*
X165956250Y-88758750D02*
X165956250Y-89546250D01*
X166590000Y-88654437D02*
X166590000Y-89940000D01*
X166590000Y-88654437D02*
X167654437Y-87590000D01*
X166590000Y-93345563D02*
X166590000Y-92060000D01*
X166590000Y-93345563D02*
X167654437Y-94410000D01*
X167654437Y-87590000D02*
X173410000Y-87590000D01*
X167654437Y-94410000D02*
X173410000Y-94410000D01*
X173410000Y-87590000D02*
X173410000Y-89940000D01*
X173410000Y-94410000D02*
X173410000Y-92060000D01*
%TO.C,C3*%
X152490000Y-102640580D02*
X152490000Y-102359420D01*
X153510000Y-102640580D02*
X153510000Y-102359420D01*
D13*
%TO.C,Z1*%
X114080000Y-98670000D02*
X112480000Y-98670000D01*
X114080000Y-100330000D02*
X112480000Y-100330000D01*
D10*
X115595000Y-99500000D02*
G75*
G02*
X115395000Y-99500000I-100000J0D01*
G01*
X115395000Y-99500000D02*
G75*
G02*
X115595000Y-99500000I100000J0D01*
G01*
D12*
%TO.C,L2*%
X152040000Y-82937500D02*
X152040000Y-85622500D01*
X152040000Y-85622500D02*
X153960000Y-85622500D01*
X153960000Y-85622500D02*
X153960000Y-82937500D01*
%TO.C,C9*%
X138990000Y-81359420D02*
X138990000Y-81640580D01*
X140010000Y-81359420D02*
X140010000Y-81640580D01*
D13*
%TO.C,X2*%
X116880000Y-100280000D02*
X116880000Y-103750000D01*
X116880000Y-100280000D02*
X120480000Y-100280000D01*
X116880000Y-108250000D02*
X116880000Y-116280000D01*
X116880000Y-116280000D02*
X129080000Y-116280000D01*
X125480000Y-100280000D02*
X129080000Y-100280000D01*
X129080000Y-103750000D02*
X129080000Y-100280000D01*
X129080000Y-116280000D02*
X129080000Y-108250000D01*
D10*
X124580000Y-99700000D02*
G75*
G02*
X124380000Y-99700000I-100000J0D01*
G01*
X124380000Y-99700000D02*
G75*
G02*
X124580000Y-99700000I100000J0D01*
G01*
D12*
%TO.C,U2*%
X150862500Y-104390000D02*
X150062500Y-104390000D01*
X150862500Y-104390000D02*
X151662500Y-104390000D01*
X150862500Y-107510000D02*
X150062500Y-107510000D01*
X150862500Y-107510000D02*
X151662500Y-107510000D01*
X149562500Y-104440000D02*
X149322500Y-104110000D01*
X149802500Y-104110000D01*
X149562500Y-104440000D01*
G36*
X149562500Y-104440000D02*
G01*
X149322500Y-104110000D01*
X149802500Y-104110000D01*
X149562500Y-104440000D01*
G37*
%TO.C,X1*%
X155742500Y-99950000D02*
X155742500Y-98900000D01*
X155942500Y-99100000D02*
X158542500Y-99100000D01*
X155942500Y-113800000D02*
X155942500Y-99100000D01*
X156792500Y-98900000D02*
X155742500Y-98900000D01*
X162442500Y-99100000D02*
X165142500Y-99100000D01*
X165142500Y-99100000D02*
X165142500Y-101000000D01*
X165142500Y-105000000D02*
X165142500Y-113800000D01*
X165142500Y-113800000D02*
X155942500Y-113800000D01*
%TO.C,JP2*%
X158100000Y-75500000D02*
X160900000Y-75500000D01*
X158100000Y-77500000D02*
X158100000Y-75500000D01*
X160900000Y-75500000D02*
X160900000Y-77500000D01*
X160900000Y-77500000D02*
X158100000Y-77500000D01*
%TO.C,C1*%
X136490000Y-102140580D02*
X136490000Y-101859420D01*
X137510000Y-102140580D02*
X137510000Y-101859420D01*
%TO.C,C6*%
X157990000Y-61865580D02*
X157990000Y-61584420D01*
X159010000Y-61865580D02*
X159010000Y-61584420D01*
%TO.C,Y2*%
X153800000Y-68000000D02*
X155800000Y-68000000D01*
X153800000Y-68800000D02*
X153800000Y-68000000D01*
X153800000Y-71600000D02*
X153800000Y-70600000D01*
X153800000Y-71800000D02*
X155800000Y-71800000D01*
X155800000Y-68000000D02*
X156200000Y-68000000D01*
X155800000Y-71600000D02*
X153800000Y-71600000D01*
X155800000Y-71600000D02*
X156200000Y-71600000D01*
X155800000Y-71800000D02*
X156200000Y-71800000D01*
X156200000Y-68000000D02*
X156200000Y-68800000D01*
X156200000Y-70600000D02*
X156200000Y-71600000D01*
X156200000Y-70600000D02*
X156600000Y-70600000D01*
%TO.C,U5*%
X143000000Y-104365000D02*
X140800000Y-104365000D01*
X143000000Y-104365000D02*
X145200000Y-104365000D01*
X143000000Y-107585000D02*
X140800000Y-107585000D01*
X143000000Y-107585000D02*
X145200000Y-107585000D01*
X146140000Y-107740000D02*
X145660000Y-107740000D01*
X145900000Y-107410000D01*
X146140000Y-107740000D01*
G36*
X146140000Y-107740000D02*
G01*
X145660000Y-107740000D01*
X145900000Y-107410000D01*
X146140000Y-107740000D01*
G37*
%TO.C,Q1*%
X135000000Y-104940000D02*
X134350000Y-104940000D01*
X135000000Y-104940000D02*
X135650000Y-104940000D01*
X135000000Y-108060000D02*
X134350000Y-108060000D01*
X135000000Y-108060000D02*
X135650000Y-108060000D01*
X136402500Y-108340000D02*
X135922500Y-108340000D01*
X136162500Y-108010000D01*
X136402500Y-108340000D01*
G36*
X136402500Y-108340000D02*
G01*
X135922500Y-108340000D01*
X136162500Y-108010000D01*
X136402500Y-108340000D01*
G37*
%TO.C,L1*%
X115440000Y-97399622D02*
X115440000Y-96600378D01*
X116560000Y-97399622D02*
X116560000Y-96600378D01*
%TO.C,RN4*%
X136750000Y-54080000D02*
X137550000Y-54080000D01*
X136750000Y-57520000D02*
X137550000Y-57520000D01*
%TO.C,RN3*%
X131780000Y-90400000D02*
X131780000Y-89600000D01*
X135220000Y-90400000D02*
X135220000Y-89600000D01*
%TO.C,C7*%
X139359420Y-94490000D02*
X139640580Y-94490000D01*
X139359420Y-95510000D02*
X139640580Y-95510000D01*
%TO.C,JP1*%
X125750000Y-92000000D02*
X128550000Y-92000000D01*
X125750000Y-94000000D02*
X125750000Y-92000000D01*
X128550000Y-92000000D02*
X128550000Y-94000000D01*
X128550000Y-94000000D02*
X125750000Y-94000000D01*
%TO.C,ZU4*%
X164160000Y-46190000D02*
X164160000Y-81870000D01*
X164160000Y-81870000D02*
X169460000Y-81870000D01*
X165810000Y-46190000D02*
X164160000Y-46190000D01*
X169460000Y-46190000D02*
X167810000Y-46190000D01*
X169460000Y-81870000D02*
X169460000Y-46190000D01*
X167810000Y-46190000D02*
G75*
G02*
X165810000Y-46190000I-1000000J0D01*
G01*
%TO.C,D2*%
X149215000Y-61365000D02*
X149215000Y-63635000D01*
X149215000Y-63635000D02*
X153100000Y-63635000D01*
X153100000Y-61365000D02*
X149215000Y-61365000D01*
%TO.C,D3*%
X111365000Y-84800000D02*
X111365000Y-88685000D01*
X111365000Y-88685000D02*
X113635000Y-88685000D01*
X113635000Y-88685000D02*
X113635000Y-84800000D01*
%TO.C,Rx1*%
X135540000Y-74437500D02*
X135540000Y-77122500D01*
X135540000Y-77122500D02*
X137460000Y-77122500D01*
X137460000Y-77122500D02*
X137460000Y-74437500D01*
%TO.C,U1*%
X178800000Y-99590000D02*
X182560000Y-99590000D01*
X178800000Y-106410000D02*
X182560000Y-106410000D01*
X182560000Y-99590000D02*
X182560000Y-100850000D01*
X182560000Y-106410000D02*
X182560000Y-105150000D01*
X177520000Y-99690000D02*
X177280000Y-99360000D01*
X177760000Y-99360000D01*
X177520000Y-99690000D01*
G36*
X177520000Y-99690000D02*
G01*
X177280000Y-99360000D01*
X177760000Y-99360000D01*
X177520000Y-99690000D01*
G37*
D13*
%TO.C,F1*%
X133400000Y-95900000D02*
X135600000Y-95900000D01*
X135600000Y-99100000D02*
X133400000Y-99100000D01*
X131363500Y-95900000D02*
G75*
G02*
X131236500Y-95900000I-63500J0D01*
G01*
X131236500Y-95900000D02*
G75*
G02*
X131363500Y-95900000I63500J0D01*
G01*
D12*
%TO.C,PC2*%
X176062500Y-90152500D02*
X176850000Y-90152500D01*
X176456250Y-89758750D02*
X176456250Y-90546250D01*
X177090000Y-89654437D02*
X177090000Y-90940000D01*
X177090000Y-89654437D02*
X178154437Y-88590000D01*
X177090000Y-94345563D02*
X177090000Y-93060000D01*
X177090000Y-94345563D02*
X178154437Y-95410000D01*
X178154437Y-88590000D02*
X183910000Y-88590000D01*
X178154437Y-95410000D02*
X183910000Y-95410000D01*
X183910000Y-88590000D02*
X183910000Y-90940000D01*
X183910000Y-95410000D02*
X183910000Y-93060000D01*
D13*
%TO.C,Z2*%
X121170000Y-97200000D02*
X121170000Y-98800000D01*
X122830000Y-97200000D02*
X122830000Y-98800000D01*
D10*
X122100000Y-95785000D02*
G75*
G02*
X121900000Y-95785000I-100000J0D01*
G01*
X121900000Y-95785000D02*
G75*
G02*
X122100000Y-95785000I100000J0D01*
G01*
D12*
%TO.C,C11*%
X138990000Y-88140580D02*
X138990000Y-87859420D01*
X140010000Y-88140580D02*
X140010000Y-87859420D01*
%TO.C,C2*%
X186490000Y-100140580D02*
X186490000Y-99859420D01*
X187510000Y-100140580D02*
X187510000Y-99859420D01*
%TO.C,J6*%
X135645000Y-46405000D02*
X143385000Y-46405000D01*
X135645000Y-49005000D02*
X135645000Y-46405000D01*
X135645000Y-51605000D02*
X135645000Y-50275000D01*
X136975000Y-51605000D02*
X135645000Y-51605000D01*
X138245000Y-49005000D02*
X135645000Y-49005000D01*
X138245000Y-51605000D02*
X138245000Y-49005000D01*
X138245000Y-51605000D02*
X143385000Y-51605000D01*
X143385000Y-51605000D02*
X143385000Y-46405000D01*
%TO.C,U3*%
X131090000Y-80890000D02*
X131090000Y-81365000D01*
X131090000Y-86110000D02*
X131090000Y-85635000D01*
X131565000Y-80890000D02*
X131090000Y-80890000D01*
X131565000Y-86110000D02*
X131090000Y-86110000D01*
X135835000Y-80890000D02*
X136310000Y-80890000D01*
X135835000Y-86110000D02*
X136010000Y-86110000D01*
X136310000Y-80890000D02*
X136310000Y-81365000D01*
X136310000Y-85635000D02*
X136310000Y-85870000D01*
X136550000Y-86440000D02*
X136070000Y-86440000D01*
X136310000Y-86110000D01*
X136550000Y-86440000D01*
G36*
X136550000Y-86440000D02*
G01*
X136070000Y-86440000D01*
X136310000Y-86110000D01*
X136550000Y-86440000D01*
G37*
%TO.C,IOL1*%
X107170000Y-49610000D02*
X107170000Y-67450000D01*
X107170000Y-49610000D02*
X109830000Y-49610000D01*
X107170000Y-67450000D02*
X109830000Y-67450000D01*
X108500000Y-47010000D02*
X109830000Y-47010000D01*
X109830000Y-47010000D02*
X109830000Y-48340000D01*
X109830000Y-49610000D02*
X109830000Y-67450000D01*
%TO.C,AD1*%
X178170000Y-56850000D02*
X178170000Y-44090000D01*
X178170000Y-59450000D02*
X178170000Y-58120000D01*
X179500000Y-59450000D02*
X178170000Y-59450000D01*
X180830000Y-44090000D02*
X178170000Y-44090000D01*
X180830000Y-56850000D02*
X178170000Y-56850000D01*
X180830000Y-56850000D02*
X180830000Y-44090000D01*
%TO.C,C5*%
X155859420Y-76990000D02*
X156140580Y-76990000D01*
X155859420Y-78010000D02*
X156140580Y-78010000D01*
%TO.C,R2*%
X158977500Y-68912258D02*
X158977500Y-68437742D01*
X160022500Y-68912258D02*
X160022500Y-68437742D01*
%TO.C,Tx1*%
X132040000Y-74437500D02*
X132040000Y-77122500D01*
X132040000Y-77122500D02*
X133960000Y-77122500D01*
X133960000Y-77122500D02*
X133960000Y-74437500D01*
%TO.C,IOH1*%
X107170000Y-94350000D02*
X107170000Y-71430000D01*
X107170000Y-96950000D02*
X107170000Y-95620000D01*
X108500000Y-96950000D02*
X107170000Y-96950000D01*
X109830000Y-71430000D02*
X107170000Y-71430000D01*
X109830000Y-94350000D02*
X107170000Y-94350000D01*
X109830000Y-94350000D02*
X109830000Y-71430000D01*
%TO.C,J3*%
X123630000Y-80670000D02*
X123630000Y-85870000D01*
X126230000Y-80670000D02*
X123630000Y-80670000D01*
X126230000Y-80670000D02*
X126230000Y-83270000D01*
X126230000Y-83270000D02*
X128830000Y-83270000D01*
X127500000Y-80670000D02*
X128830000Y-80670000D01*
X128830000Y-80670000D02*
X128830000Y-82000000D01*
X128830000Y-83270000D02*
X128830000Y-85870000D01*
X128830000Y-85870000D02*
X123630000Y-85870000D01*
%TO.C,RN1*%
X143930000Y-96100000D02*
X143930000Y-95300000D01*
X147370000Y-96100000D02*
X147370000Y-95300000D01*
%TO.C,POWER1*%
X178170000Y-67190000D02*
X178170000Y-85030000D01*
X178170000Y-67190000D02*
X180830000Y-67190000D01*
X178170000Y-85030000D02*
X180830000Y-85030000D01*
X179500000Y-64590000D02*
X180830000Y-64590000D01*
X180830000Y-64590000D02*
X180830000Y-65920000D01*
X180830000Y-67190000D02*
X180830000Y-85030000D01*
D14*
%TO.C,RESET1*%
X147655200Y-45493400D02*
X147655200Y-49506600D01*
X147655200Y-49506600D02*
X149509400Y-49506600D01*
X149509400Y-45290200D02*
X149509400Y-45493400D01*
X149509400Y-45493400D02*
X147655200Y-45493400D01*
X149509400Y-45493400D02*
X149509400Y-45696600D01*
X149509400Y-45696600D02*
X151490600Y-45696600D01*
X149509400Y-49303400D02*
X151490600Y-49303400D01*
X149509400Y-49506600D02*
X149509400Y-49303400D01*
X149509400Y-49506600D02*
X149509400Y-49709800D01*
X149509400Y-49709800D02*
X151490600Y-49709800D01*
X151490600Y-45290200D02*
X149509400Y-45290200D01*
X151490600Y-45493400D02*
X151490600Y-45290200D01*
X151490600Y-45696600D02*
X151490600Y-45493400D01*
X151490600Y-49303400D02*
X151490600Y-49506600D01*
X151490600Y-49506600D02*
X153344800Y-49506600D01*
X151490600Y-49709800D02*
X151490600Y-49506600D01*
X153344800Y-45493400D02*
X151490600Y-45493400D01*
X153344800Y-46992000D02*
X153344800Y-45493400D01*
X153344800Y-48008000D02*
X153598800Y-48008000D01*
X153344800Y-49506600D02*
X153344800Y-48008000D01*
X153598800Y-46992000D02*
X153344800Y-46992000D01*
X153598800Y-48008000D02*
X153598800Y-46992000D01*
X150503700Y-46001400D02*
G75*
G02*
X150500000Y-46001400I-1850J-1498604D01*
G01*
X150506300Y-46306200D02*
G75*
G02*
X150500000Y-46306200I-3150J-1193811D01*
G01*
D12*
%TO.C,GREEN1*%
X128040000Y-48815000D02*
X128040000Y-51500000D01*
X129960000Y-48815000D02*
X128040000Y-48815000D01*
X129960000Y-51500000D02*
X129960000Y-48815000D01*
%TO.C,RN2*%
X151450000Y-77480000D02*
X152250000Y-77480000D01*
X151450000Y-80920000D02*
X152250000Y-80920000D01*
%TO.C,D1*%
X175160000Y-102350000D02*
X169350000Y-102350000D01*
X175160000Y-106650000D02*
X169350000Y-106650000D01*
X175160000Y-106650000D02*
X175160000Y-102350000D01*
%TO.C,C8*%
X129134420Y-88990000D02*
X129415580Y-88990000D01*
X129134420Y-90010000D02*
X129415580Y-90010000D01*
%TO.C,Y1*%
X141975000Y-87185000D02*
X141975000Y-80935000D01*
X147025000Y-87185000D02*
X147025000Y-80935000D01*
X141975000Y-80935000D02*
G75*
G02*
X147025000Y-80935000I2525000J0D01*
G01*
X147025000Y-87185000D02*
G75*
G02*
X141975000Y-87185000I-2525000J0D01*
G01*
%TD*%
M02*
