%TF.GenerationSoftware,KiCad,Pcbnew,9.0.0*%
%TF.CreationDate,2025-04-24T02:30:34+05:30*%
%TF.ProjectId,suganya_arduino,73756761-6e79-4615-9f61-726475696e6f,rev?*%
%TF.SameCoordinates,Original*%
%TF.FileFunction,Copper,L1,Top*%
%TF.FilePolarity,Positive*%
%FSLAX46Y46*%
G04 Gerber Fmt 4.6, Leading zero omitted, Abs format (unit mm)*
G04 Created by KiCad (PCBNEW 9.0.0) date 2025-04-24 02:30:34*
%MOMM*%
%LPD*%
G01*
G04 APERTURE LIST*
G04 Aperture macros list*
%AMRoundRect*
0 Rectangle with rounded corners*
0 $1 Rounding radius*
0 $2 $3 $4 $5 $6 $7 $8 $9 X,Y pos of 4 corners*
0 Add a 4 corners polygon primitive as box body*
4,1,4,$2,$3,$4,$5,$6,$7,$8,$9,$2,$3,0*
0 Add four circle primitives for the rounded corners*
1,1,$1+$1,$2,$3*
1,1,$1+$1,$4,$5*
1,1,$1+$1,$6,$7*
1,1,$1+$1,$8,$9*
0 Add four rect primitives between the rounded corners*
20,1,$1+$1,$2,$3,$4,$5,0*
20,1,$1+$1,$4,$5,$6,$7,0*
20,1,$1+$1,$6,$7,$8,$9,0*
20,1,$1+$1,$8,$9,$2,$3,0*%
G04 Aperture macros list end*
%TA.AperFunction,ComponentPad*%
%ADD10R,1.700000X1.700000*%
%TD*%
%TA.AperFunction,ComponentPad*%
%ADD11O,1.700000X1.700000*%
%TD*%
%TA.AperFunction,SMDPad,CuDef*%
%ADD12RoundRect,0.200000X-0.275000X0.200000X-0.275000X-0.200000X0.275000X-0.200000X0.275000X0.200000X0*%
%TD*%
%TA.AperFunction,SMDPad,CuDef*%
%ADD13RoundRect,0.225000X-0.225000X-0.250000X0.225000X-0.250000X0.225000X0.250000X-0.225000X0.250000X0*%
%TD*%
%TA.AperFunction,SMDPad,CuDef*%
%ADD14RoundRect,0.250000X-1.500000X-0.550000X1.500000X-0.550000X1.500000X0.550000X-1.500000X0.550000X0*%
%TD*%
%TA.AperFunction,SMDPad,CuDef*%
%ADD15RoundRect,0.225000X0.250000X-0.225000X0.250000X0.225000X-0.250000X0.225000X-0.250000X-0.225000X0*%
%TD*%
%TA.AperFunction,SMDPad,CuDef*%
%ADD16RoundRect,0.108750X0.326250X0.401250X-0.326250X0.401250X-0.326250X-0.401250X0.326250X-0.401250X0*%
%TD*%
%TA.AperFunction,SMDPad,CuDef*%
%ADD17RoundRect,0.243750X0.456250X-0.243750X0.456250X0.243750X-0.456250X0.243750X-0.456250X-0.243750X0*%
%TD*%
%TA.AperFunction,SMDPad,CuDef*%
%ADD18RoundRect,0.225000X-0.250000X0.225000X-0.250000X-0.225000X0.250000X-0.225000X0.250000X0.225000X0*%
%TD*%
%TA.AperFunction,ComponentPad*%
%ADD19R,1.508000X1.508000*%
%TD*%
%TA.AperFunction,ComponentPad*%
%ADD20C,1.508000*%
%TD*%
%TA.AperFunction,ComponentPad*%
%ADD21C,3.396000*%
%TD*%
%TA.AperFunction,SMDPad,CuDef*%
%ADD22RoundRect,0.150000X-0.512500X-0.150000X0.512500X-0.150000X0.512500X0.150000X-0.512500X0.150000X0*%
%TD*%
%TA.AperFunction,ComponentPad*%
%ADD23R,3.500000X3.500000*%
%TD*%
%TA.AperFunction,ComponentPad*%
%ADD24RoundRect,0.750000X1.000000X-0.750000X1.000000X0.750000X-1.000000X0.750000X-1.000000X-0.750000X0*%
%TD*%
%TA.AperFunction,ComponentPad*%
%ADD25RoundRect,0.875000X0.875000X-0.875000X0.875000X0.875000X-0.875000X0.875000X-0.875000X-0.875000X0*%
%TD*%
%TA.AperFunction,SMDPad,CuDef*%
%ADD26R,1.000000X1.500000*%
%TD*%
%TA.AperFunction,SMDPad,CuDef*%
%ADD27R,1.900000X0.400000*%
%TD*%
%TA.AperFunction,SMDPad,CuDef*%
%ADD28RoundRect,0.100000X0.637500X0.100000X-0.637500X0.100000X-0.637500X-0.100000X0.637500X-0.100000X0*%
%TD*%
%TA.AperFunction,SMDPad,CuDef*%
%ADD29RoundRect,0.150000X0.587500X0.150000X-0.587500X0.150000X-0.587500X-0.150000X0.587500X-0.150000X0*%
%TD*%
%TA.AperFunction,SMDPad,CuDef*%
%ADD30RoundRect,0.218750X0.381250X-0.218750X0.381250X0.218750X-0.381250X0.218750X-0.381250X-0.218750X0*%
%TD*%
%TA.AperFunction,SMDPad,CuDef*%
%ADD31R,0.900000X0.400000*%
%TD*%
%TA.AperFunction,SMDPad,CuDef*%
%ADD32R,0.400000X0.900000*%
%TD*%
%TA.AperFunction,ComponentPad*%
%ADD33RoundRect,0.250000X-0.550000X-0.550000X0.550000X-0.550000X0.550000X0.550000X-0.550000X0.550000X0*%
%TD*%
%TA.AperFunction,ComponentPad*%
%ADD34C,1.600000*%
%TD*%
%TA.AperFunction,SMDPad,CuDef*%
%ADD35RoundRect,0.250000X-0.375000X-0.625000X0.375000X-0.625000X0.375000X0.625000X-0.375000X0.625000X0*%
%TD*%
%TA.AperFunction,SMDPad,CuDef*%
%ADD36RoundRect,0.250000X0.625000X-0.375000X0.625000X0.375000X-0.625000X0.375000X-0.625000X-0.375000X0*%
%TD*%
%TA.AperFunction,SMDPad,CuDef*%
%ADD37RoundRect,0.375000X-0.625000X-0.375000X0.625000X-0.375000X0.625000X0.375000X-0.625000X0.375000X0*%
%TD*%
%TA.AperFunction,SMDPad,CuDef*%
%ADD38RoundRect,0.500000X-0.500000X-1.400000X0.500000X-1.400000X0.500000X1.400000X-0.500000X1.400000X0*%
%TD*%
%TA.AperFunction,SMDPad,CuDef*%
%ADD39R,1.500000X3.200000*%
%TD*%
%TA.AperFunction,SMDPad,CuDef*%
%ADD40RoundRect,0.108750X-0.401250X0.326250X-0.401250X-0.326250X0.401250X-0.326250X0.401250X0.326250X0*%
%TD*%
%TA.AperFunction,SMDPad,CuDef*%
%ADD41C,1.000000*%
%TD*%
%TA.AperFunction,SMDPad,CuDef*%
%ADD42RoundRect,0.062500X0.337500X0.062500X-0.337500X0.062500X-0.337500X-0.062500X0.337500X-0.062500X0*%
%TD*%
%TA.AperFunction,SMDPad,CuDef*%
%ADD43RoundRect,0.062500X0.062500X0.337500X-0.062500X0.337500X-0.062500X-0.337500X0.062500X-0.337500X0*%
%TD*%
%TA.AperFunction,HeatsinkPad*%
%ADD44R,3.600000X3.600000*%
%TD*%
%TA.AperFunction,SMDPad,CuDef*%
%ADD45RoundRect,0.200000X0.275000X-0.200000X0.275000X0.200000X-0.275000X0.200000X-0.275000X-0.200000X0*%
%TD*%
%TA.AperFunction,SMDPad,CuDef*%
%ADD46R,1.600200X1.399500*%
%TD*%
%TA.AperFunction,SMDPad,CuDef*%
%ADD47RoundRect,0.243750X-0.456250X0.243750X-0.456250X-0.243750X0.456250X-0.243750X0.456250X0.243750X0*%
%TD*%
%TA.AperFunction,SMDPad,CuDef*%
%ADD48RoundRect,0.250000X1.000000X0.900000X-1.000000X0.900000X-1.000000X-0.900000X1.000000X-0.900000X0*%
%TD*%
%TA.AperFunction,ComponentPad*%
%ADD49C,1.500000*%
%TD*%
%TA.AperFunction,ViaPad*%
%ADD50C,0.600000*%
%TD*%
%TA.AperFunction,Conductor*%
%ADD51C,0.200000*%
%TD*%
G04 APERTURE END LIST*
D10*
%TO.P,J2,1,Pin_1*%
%TO.N,/MISO2*%
X119500000Y-86080000D03*
D11*
%TO.P,J2,2,Pin_2*%
%TO.N,+5V*%
X116960000Y-86080000D03*
%TO.P,J2,3,Pin_3*%
%TO.N,/SCK2*%
X119500000Y-83540000D03*
%TO.P,J2,4,Pin_4*%
%TO.N,Net-(J2-Pin_4)*%
X116960000Y-83540000D03*
%TO.P,J2,5,Pin_5*%
%TO.N,/RESET2*%
X119500000Y-81000000D03*
%TO.P,J2,6,Pin_6*%
%TO.N,GND*%
X116960000Y-81000000D03*
%TD*%
D12*
%TO.P,R1,1*%
%TO.N,/XT2*%
X139500000Y-84000000D03*
%TO.P,R1,2*%
%TO.N,/XT1*%
X139500000Y-85650000D03*
%TD*%
D13*
%TO.P,C4,1*%
%TO.N,/AREF*%
X173725000Y-63500000D03*
%TO.P,C4,2*%
%TO.N,GND*%
X175275000Y-63500000D03*
%TD*%
D14*
%TO.P,PC1,1*%
%TO.N,/VIN*%
X167200000Y-91000000D03*
%TO.P,PC1,2*%
%TO.N,GND*%
X172800000Y-91000000D03*
%TD*%
D15*
%TO.P,C3,1*%
%TO.N,Net-(U2-VOUT)*%
X153000000Y-103275000D03*
%TO.P,C3,2*%
%TO.N,GND*%
X153000000Y-101725000D03*
%TD*%
D16*
%TO.P,Z1,1*%
%TO.N,/D+*%
X114060000Y-99500000D03*
%TO.P,Z1,2*%
%TO.N,/PS1*%
X112500000Y-99500000D03*
%TD*%
D17*
%TO.P,L2,1,K*%
%TO.N,GND*%
X153000000Y-84875000D03*
%TO.P,L2,2,A*%
%TO.N,Net-(L2-A)*%
X153000000Y-83000000D03*
%TD*%
D18*
%TO.P,C9,1*%
%TO.N,GND*%
X139500000Y-80725000D03*
%TO.P,C9,2*%
%TO.N,/XT2*%
X139500000Y-82275000D03*
%TD*%
D19*
%TO.P,X2,1,VCC*%
%TO.N,/XUSB*%
X124230000Y-101290000D03*
D20*
%TO.P,X2,2,D-*%
%TO.N,/D-*%
X121730000Y-101290000D03*
%TO.P,X2,3,D+*%
%TO.N,/D+*%
X121730000Y-103290000D03*
%TO.P,X2,4,GND*%
%TO.N,/UGND*%
X124230000Y-103290000D03*
D21*
%TO.P,X2,S1,SHIELD*%
%TO.N,/PS1*%
X116960000Y-106000000D03*
%TO.P,X2,S2,SHIELD__1*%
X129000000Y-106000000D03*
%TD*%
D22*
%TO.P,U2,1,VIN*%
%TO.N,+5V*%
X149725000Y-105000000D03*
%TO.P,U2,2,GND*%
%TO.N,GND*%
X149725000Y-105950000D03*
%TO.P,U2,3,ON/~{OFF}*%
%TO.N,+5V*%
X149725000Y-106900000D03*
%TO.P,U2,4,BP*%
%TO.N,unconnected-(U2-BP-Pad4)*%
X152000000Y-106900000D03*
%TO.P,U2,5,VOUT*%
%TO.N,Net-(U2-VOUT)*%
X152000000Y-105000000D03*
%TD*%
D23*
%TO.P,X1,1*%
%TO.N,GND*%
X160542500Y-100000000D03*
D24*
%TO.P,X1,2*%
%TO.N,/PWRIN*%
X160542500Y-106000000D03*
D25*
%TO.P,X1,3*%
%TO.N,GND*%
X165242500Y-103000000D03*
%TD*%
D26*
%TO.P,JP2,1,A*%
%TO.N,Net-(D2-A)*%
X158850000Y-76500000D03*
%TO.P,JP2,2,B*%
X160150000Y-76500000D03*
%TD*%
D15*
%TO.P,C1,1*%
%TO.N,+5V*%
X137000000Y-102775000D03*
%TO.P,C1,2*%
%TO.N,GND*%
X137000000Y-101225000D03*
%TD*%
%TO.P,C6,1*%
%TO.N,+5V*%
X158500000Y-62500000D03*
%TO.P,C6,2*%
%TO.N,GND*%
X158500000Y-60950000D03*
%TD*%
D27*
%TO.P,Y2,1,1*%
%TO.N,Net-(ZU4-XTAL2{slash}PB7)*%
X155000000Y-71000000D03*
%TO.P,Y2,2,2*%
%TO.N,GND*%
X155000000Y-69800000D03*
%TO.P,Y2,3,3*%
%TO.N,Net-(ZU4-XTAL1{slash}PB6)*%
X155000000Y-68600000D03*
%TD*%
D28*
%TO.P,U5,1*%
%TO.N,Net-(Q1-G)*%
X145862500Y-106950000D03*
%TO.P,U5,2,-*%
%TO.N,/+3V3*%
X145862500Y-106300000D03*
%TO.P,U5,3,+*%
%TO.N,Net-(RN1A-R1.1)*%
X145862500Y-105650000D03*
%TO.P,U5,4,V-*%
%TO.N,GND*%
X145862500Y-105000000D03*
%TO.P,U5,5,+*%
%TO.N,/SCK*%
X140137500Y-105000000D03*
%TO.P,U5,6,-*%
%TO.N,Net-(RN2A-R1.2)*%
X140137500Y-105650000D03*
%TO.P,U5,7*%
X140137500Y-106300000D03*
%TO.P,U5,8,V+*%
%TO.N,+5V*%
X140137500Y-106950000D03*
%TD*%
D29*
%TO.P,Q1,1,G*%
%TO.N,Net-(Q1-G)*%
X135937500Y-107450000D03*
%TO.P,Q1,2,S*%
%TO.N,+5V*%
X135937500Y-105550000D03*
%TO.P,Q1,3,D*%
%TO.N,/USBVCC*%
X134062500Y-106500000D03*
%TD*%
D30*
%TO.P,L1,1,1*%
%TO.N,/PS1*%
X116000000Y-98062500D03*
%TO.P,L1,2,2*%
%TO.N,/UGND*%
X116000000Y-95937500D03*
%TD*%
D31*
%TO.P,RN4,1,R1.1*%
%TO.N,Net-(IOL1-Pin_3)*%
X138000000Y-57000000D03*
%TO.P,RN4,2,R2.1*%
%TO.N,Net-(IOL1-Pin_2)*%
X138000000Y-56200000D03*
%TO.P,RN4,3,R3.1*%
%TO.N,+5V*%
X138000000Y-55400000D03*
%TO.P,RN4,4,R4.1*%
X138000000Y-54600000D03*
%TO.P,RN4,5,R4.2*%
%TO.N,Net-(GREEN1-A)*%
X136300000Y-54600000D03*
%TO.P,RN4,6,R3.2*%
X136300000Y-55400000D03*
%TO.P,RN4,7,R2.2*%
%TO.N,/M8RxD*%
X136300000Y-56200000D03*
%TO.P,RN4,8,R1.2*%
%TO.N,/M8TxD*%
X136300000Y-57000000D03*
%TD*%
D32*
%TO.P,RN3,1,R1.1*%
%TO.N,/RD-*%
X134700000Y-89150000D03*
%TO.P,RN3,2,R2.1*%
X133900000Y-89150000D03*
%TO.P,RN3,3,R3.1*%
%TO.N,/RD+*%
X133100000Y-89150000D03*
%TO.P,RN3,4,R4.1*%
X132300000Y-89150000D03*
%TO.P,RN3,5,R4.2*%
%TO.N,/D+*%
X132300000Y-90850000D03*
%TO.P,RN3,6,R3.2*%
%TO.N,/D-*%
X133100000Y-90850000D03*
%TO.P,RN3,7,R2.2*%
X133900000Y-90850000D03*
%TO.P,RN3,8,R1.2*%
X134700000Y-90850000D03*
%TD*%
D13*
%TO.P,C7,1*%
%TO.N,+5V*%
X138725000Y-95000000D03*
%TO.P,C7,2*%
%TO.N,GND*%
X140275000Y-95000000D03*
%TD*%
D26*
%TO.P,JP1,1,A*%
%TO.N,/UGND*%
X126500000Y-93000000D03*
%TO.P,JP1,2,B*%
%TO.N,GND*%
X127800000Y-93000000D03*
%TD*%
D33*
%TO.P,ZU4,1,~{RESET}/PC6*%
%TO.N,Net-(D2-A)*%
X163000000Y-47520000D03*
D34*
%TO.P,ZU4,2,PD0*%
%TO.N,Net-(IOL1-Pin_1)*%
X163000000Y-50060000D03*
%TO.P,ZU4,3,PD1*%
%TO.N,Net-(IOL1-Pin_2)*%
X163000000Y-52600000D03*
%TO.P,ZU4,4,PD2*%
%TO.N,Net-(IOL1-Pin_3)*%
X163000000Y-55140000D03*
%TO.P,ZU4,5,PD3*%
%TO.N,Net-(IOL1-Pin_4)*%
X163000000Y-57680000D03*
%TO.P,ZU4,6,PD4*%
%TO.N,Net-(IOL1-Pin_5)*%
X163000000Y-60220000D03*
%TO.P,ZU4,7,VCC*%
%TO.N,+5V*%
X163000000Y-62760000D03*
%TO.P,ZU4,8,GND*%
%TO.N,GND*%
X163000000Y-65300000D03*
%TO.P,ZU4,9,XTAL1/PB6*%
%TO.N,Net-(ZU4-XTAL1{slash}PB6)*%
X163000000Y-67840000D03*
%TO.P,ZU4,10,XTAL2/PB7*%
%TO.N,Net-(ZU4-XTAL2{slash}PB7)*%
X163000000Y-70380000D03*
%TO.P,ZU4,11,PD5*%
%TO.N,Net-(IOL1-Pin_6)*%
X163000000Y-72920000D03*
%TO.P,ZU4,12,PD6*%
%TO.N,Net-(IOL1-Pin_7)*%
X163000000Y-75460000D03*
%TO.P,ZU4,13,PD7*%
%TO.N,Net-(IOL1-Pin_8)*%
X163000000Y-78000000D03*
%TO.P,ZU4,14,PB0*%
%TO.N,Net-(IOH1-Pin_1)*%
X163000000Y-80540000D03*
%TO.P,ZU4,15,PB1*%
%TO.N,Net-(IOH1-Pin_2)*%
X170620000Y-80540000D03*
%TO.P,ZU4,16,PB2*%
%TO.N,Net-(IOH1-Pin_3)*%
X170620000Y-78000000D03*
%TO.P,ZU4,17,PB3*%
%TO.N,Net-(IOH1-Pin_4)*%
X170620000Y-75460000D03*
%TO.P,ZU4,18,PB4*%
%TO.N,Net-(IOH1-Pin_5)*%
X170620000Y-72920000D03*
%TO.P,ZU4,19,PB5*%
%TO.N,Net-(IOH1-Pin_6)*%
X170620000Y-70380000D03*
%TO.P,ZU4,20,AVCC*%
%TO.N,+5V*%
X170620000Y-67840000D03*
%TO.P,ZU4,21,AREF*%
%TO.N,/AREF*%
X170620000Y-65300000D03*
%TO.P,ZU4,22,GND*%
%TO.N,GND*%
X170620000Y-62760000D03*
%TO.P,ZU4,23,PC0*%
%TO.N,/AD0*%
X170620000Y-60220000D03*
%TO.P,ZU4,24,PC1*%
%TO.N,/AD1*%
X170620000Y-57680000D03*
%TO.P,ZU4,25,PC2*%
%TO.N,/AD2*%
X170620000Y-55140000D03*
%TO.P,ZU4,26,PC3*%
%TO.N,/AD3*%
X170620000Y-52600000D03*
%TO.P,ZU4,27,PC4*%
%TO.N,/AD4{slash}SDA*%
X170620000Y-50060000D03*
%TO.P,ZU4,28,PC5*%
%TO.N,/AD5{slash}SCL*%
X170620000Y-47520000D03*
%TD*%
D35*
%TO.P,D2,1,K*%
%TO.N,+5V*%
X150100000Y-62500000D03*
%TO.P,D2,2,A*%
%TO.N,Net-(D2-A)*%
X152900000Y-62500000D03*
%TD*%
D36*
%TO.P,D3,1,K*%
%TO.N,+5V*%
X112500000Y-87800000D03*
%TO.P,D3,2,A*%
%TO.N,/RESET2*%
X112500000Y-85000000D03*
%TD*%
D17*
%TO.P,Rx1,1,K*%
%TO.N,/RxLED*%
X136500000Y-76375000D03*
%TO.P,Rx1,2,A*%
%TO.N,Net-(RN2B-R2.2)*%
X136500000Y-74500000D03*
%TD*%
D37*
%TO.P,U1,1,GND*%
%TO.N,GND*%
X177500000Y-100700000D03*
%TO.P,U1,2,VO*%
%TO.N,+5V*%
X177500000Y-103000000D03*
D38*
X183800000Y-103000000D03*
D37*
%TO.P,U1,3,VI*%
%TO.N,/VIN*%
X177500000Y-105300000D03*
%TD*%
D39*
%TO.P,F1,1*%
%TO.N,/XUSB*%
X132400000Y-97500000D03*
%TO.P,F1,2*%
%TO.N,/USBVCC*%
X136600000Y-97500000D03*
%TD*%
D14*
%TO.P,PC2,1*%
%TO.N,+5V*%
X177700000Y-92000000D03*
%TO.P,PC2,2*%
%TO.N,GND*%
X183300000Y-92000000D03*
%TD*%
D40*
%TO.P,Z2,1*%
%TO.N,/D-*%
X122000000Y-97220000D03*
%TO.P,Z2,2*%
%TO.N,/PS1*%
X122000000Y-98780000D03*
%TD*%
D15*
%TO.P,C11,1*%
%TO.N,GND*%
X139500000Y-88775000D03*
%TO.P,C11,2*%
%TO.N,/XT1*%
X139500000Y-87225000D03*
%TD*%
%TO.P,C2,1*%
%TO.N,+5V*%
X187000000Y-100775000D03*
%TO.P,C2,2*%
%TO.N,GND*%
X187000000Y-99225000D03*
%TD*%
D10*
%TO.P,J6,1,Pin_1*%
%TO.N,Net-(IOH1-Pin_5)*%
X136975000Y-50275000D03*
D11*
%TO.P,J6,2,Pin_2*%
%TO.N,+5V*%
X136975000Y-47735000D03*
%TO.P,J6,3,Pin_3*%
%TO.N,Net-(IOH1-Pin_6)*%
X139515000Y-50275000D03*
%TO.P,J6,4,Pin_4*%
%TO.N,Net-(IOH1-Pin_4)*%
X139515000Y-47735000D03*
%TO.P,J6,5,Pin_5*%
%TO.N,Net-(D2-A)*%
X142055000Y-50275000D03*
%TO.P,J6,6,Pin_6*%
%TO.N,GND*%
X142055000Y-47735000D03*
%TD*%
D41*
%TO.P,FID2,*%
%TO.N,*%
X104500000Y-70000000D03*
%TD*%
%TO.P,FID3,*%
%TO.N,*%
X168000000Y-98500000D03*
%TD*%
D42*
%TO.P,U3,1,XTAL1*%
%TO.N,/XT1*%
X136150000Y-85250000D03*
%TO.P,U3,2,PC0/XTAL2*%
%TO.N,/XT2*%
X136150000Y-84750000D03*
%TO.P,U3,3,GND*%
%TO.N,GND*%
X136150000Y-84250000D03*
%TO.P,U3,4,VCC*%
%TO.N,+5V*%
X136150000Y-83750000D03*
%TO.P,U3,5,PC2*%
%TO.N,unconnected-(U3-PC2-Pad5)*%
X136150000Y-83250000D03*
%TO.P,U3,6,PD0*%
%TO.N,unconnected-(U3-PD0-Pad6)*%
X136150000Y-82750000D03*
%TO.P,U3,7,PD1*%
%TO.N,unconnected-(U3-PD1-Pad7)*%
X136150000Y-82250000D03*
%TO.P,U3,8,PD2*%
%TO.N,/M8TxD*%
X136150000Y-81750000D03*
D43*
%TO.P,U3,9,PD3*%
%TO.N,/M8RxD*%
X135450000Y-81050000D03*
%TO.P,U3,10,PD4*%
%TO.N,/RxLED*%
X134950000Y-81050000D03*
%TO.P,U3,11,PD5*%
%TO.N,/TxLED*%
X134450000Y-81050000D03*
%TO.P,U3,12,PD6*%
%TO.N,unconnected-(U3-PD6-Pad12)*%
X133950000Y-81050000D03*
%TO.P,U3,13,~{HWB}/PD7*%
%TO.N,/DTR*%
X133450000Y-81050000D03*
%TO.P,U3,14,PB0*%
%TO.N,unconnected-(U3-PB0-Pad14)*%
X132950000Y-81050000D03*
%TO.P,U3,15,PB1*%
%TO.N,/SCK2*%
X132450000Y-81050000D03*
%TO.P,U3,16,PB2*%
%TO.N,Net-(J2-Pin_4)*%
X131950000Y-81050000D03*
D42*
%TO.P,U3,17,PB3*%
%TO.N,/MISO2*%
X131250000Y-81750000D03*
%TO.P,U3,18,PB4*%
%TO.N,Net-(J3-Pin_1)*%
X131250000Y-82250000D03*
%TO.P,U3,19,PB5*%
%TO.N,Net-(J3-Pin_3)*%
X131250000Y-82750000D03*
%TO.P,U3,20,PB6*%
%TO.N,Net-(J3-Pin_2)*%
X131250000Y-83250000D03*
%TO.P,U3,21,PB7*%
%TO.N,Net-(J3-Pin_4)*%
X131250000Y-83750000D03*
%TO.P,U3,22,PC7*%
%TO.N,unconnected-(U3-PC7-Pad22)*%
X131250000Y-84250000D03*
%TO.P,U3,23,PC6*%
%TO.N,unconnected-(U3-PC6-Pad23)*%
X131250000Y-84750000D03*
%TO.P,U3,24,PC1/~{RESET}*%
%TO.N,/RESET2*%
X131250000Y-85250000D03*
D43*
%TO.P,U3,25,PC5*%
%TO.N,unconnected-(U3-PC5-Pad25)*%
X131950000Y-85950000D03*
%TO.P,U3,26,PC4*%
%TO.N,unconnected-(U3-PC4-Pad26)*%
X132450000Y-85950000D03*
%TO.P,U3,27,UCAP*%
%TO.N,/TPVUCAP*%
X132950000Y-85950000D03*
%TO.P,U3,28,UGND*%
%TO.N,/UGND*%
X133450000Y-85950000D03*
%TO.P,U3,29,D+*%
%TO.N,/RD+*%
X133950000Y-85950000D03*
%TO.P,U3,30,D-*%
%TO.N,/RD-*%
X134450000Y-85950000D03*
%TO.P,U3,31,UVCC*%
%TO.N,/USBVCC*%
X134950000Y-85950000D03*
%TO.P,U3,32,AVCC*%
%TO.N,+5V*%
X135450000Y-85950000D03*
D44*
%TO.P,U3,33,GND*%
%TO.N,GND*%
X133700000Y-83500000D03*
%TD*%
D10*
%TO.P,IOL1,1,Pin_1*%
%TO.N,Net-(IOL1-Pin_1)*%
X108500000Y-48340000D03*
D11*
%TO.P,IOL1,2,Pin_2*%
%TO.N,Net-(IOL1-Pin_2)*%
X108500000Y-50880000D03*
%TO.P,IOL1,3,Pin_3*%
%TO.N,Net-(IOL1-Pin_3)*%
X108500000Y-53420000D03*
%TO.P,IOL1,4,Pin_4*%
%TO.N,Net-(IOL1-Pin_4)*%
X108500000Y-55960000D03*
%TO.P,IOL1,5,Pin_5*%
%TO.N,Net-(IOL1-Pin_5)*%
X108500000Y-58500000D03*
%TO.P,IOL1,6,Pin_6*%
%TO.N,Net-(IOL1-Pin_6)*%
X108500000Y-61040000D03*
%TO.P,IOL1,7,Pin_7*%
%TO.N,Net-(IOL1-Pin_7)*%
X108500000Y-63580000D03*
%TO.P,IOL1,8,Pin_8*%
%TO.N,Net-(IOL1-Pin_8)*%
X108500000Y-66120000D03*
%TD*%
D10*
%TO.P,AD1,1,Pin_1*%
%TO.N,/AD0*%
X179500000Y-58120000D03*
D11*
%TO.P,AD1,2,Pin_2*%
%TO.N,/AD1*%
X179500000Y-55580000D03*
%TO.P,AD1,3,Pin_3*%
%TO.N,/AD2*%
X179500000Y-53040000D03*
%TO.P,AD1,4,Pin_4*%
%TO.N,/AD3*%
X179500000Y-50500000D03*
%TO.P,AD1,5,Pin_5*%
%TO.N,/AD4{slash}SDA*%
X179500000Y-47960000D03*
%TO.P,AD1,6,Pin_6*%
%TO.N,/AD5{slash}SCL*%
X179500000Y-45420000D03*
%TD*%
D13*
%TO.P,C5,1*%
%TO.N,/DTR*%
X155225000Y-77500000D03*
%TO.P,C5,2*%
%TO.N,Net-(D2-A)*%
X156775000Y-77500000D03*
%TD*%
D45*
%TO.P,R2,1*%
%TO.N,Net-(ZU4-XTAL2{slash}PB7)*%
X159500000Y-69500000D03*
%TO.P,R2,2*%
%TO.N,Net-(ZU4-XTAL1{slash}PB6)*%
X159500000Y-67850000D03*
%TD*%
D41*
%TO.P,FID1,*%
%TO.N,*%
X115500000Y-55500000D03*
%TD*%
D17*
%TO.P,Tx1,1,K*%
%TO.N,/TxLED*%
X133000000Y-76375000D03*
%TO.P,Tx1,2,A*%
%TO.N,Net-(RN2C-R3.2)*%
X133000000Y-74500000D03*
%TD*%
D10*
%TO.P,IOH1,1,Pin_1*%
%TO.N,Net-(IOH1-Pin_1)*%
X108500000Y-95620000D03*
D11*
%TO.P,IOH1,2,Pin_2*%
%TO.N,Net-(IOH1-Pin_2)*%
X108500000Y-93080000D03*
%TO.P,IOH1,3,Pin_3*%
%TO.N,Net-(IOH1-Pin_3)*%
X108500000Y-90540000D03*
%TO.P,IOH1,4,Pin_4*%
%TO.N,Net-(IOH1-Pin_4)*%
X108500000Y-88000000D03*
%TO.P,IOH1,5,Pin_5*%
%TO.N,Net-(IOH1-Pin_5)*%
X108500000Y-85460000D03*
%TO.P,IOH1,6,Pin_6*%
%TO.N,Net-(IOH1-Pin_6)*%
X108500000Y-82920000D03*
%TO.P,IOH1,7,Pin_7*%
%TO.N,GND*%
X108500000Y-80380000D03*
%TO.P,IOH1,8,Pin_8*%
%TO.N,/AREF*%
X108500000Y-77840000D03*
%TO.P,IOH1,9,Pin_9*%
%TO.N,/AD4{slash}SDA*%
X108500000Y-75300000D03*
%TO.P,IOH1,10,Pin_10*%
%TO.N,/AD5{slash}SCL*%
X108500000Y-72760000D03*
%TD*%
D10*
%TO.P,J3,1,Pin_1*%
%TO.N,Net-(J3-Pin_1)*%
X127500000Y-82000000D03*
D11*
%TO.P,J3,2,Pin_2*%
%TO.N,Net-(J3-Pin_2)*%
X127500000Y-84540000D03*
%TO.P,J3,3,Pin_3*%
%TO.N,Net-(J3-Pin_3)*%
X124960000Y-82000000D03*
%TO.P,J3,4,Pin_4*%
%TO.N,Net-(J3-Pin_4)*%
X124960000Y-84540000D03*
%TD*%
D32*
%TO.P,RN1,1,R1.1*%
%TO.N,Net-(RN1A-R1.1)*%
X146850000Y-94850000D03*
%TO.P,RN1,2,R2.1*%
%TO.N,GND*%
X146050000Y-94850000D03*
%TO.P,RN1,3,R3.1*%
%TO.N,/RESET2*%
X145250000Y-94850000D03*
%TO.P,RN1,4,R4.1*%
%TO.N,Net-(D2-A)*%
X144450000Y-94850000D03*
%TO.P,RN1,5,R4.2*%
%TO.N,+5V*%
X144450000Y-96550000D03*
%TO.P,RN1,6,R3.2*%
X145250000Y-96550000D03*
%TO.P,RN1,7,R2.2*%
%TO.N,Net-(RN1A-R1.1)*%
X146050000Y-96550000D03*
%TO.P,RN1,8,R1.2*%
%TO.N,/VIN*%
X146850000Y-96550000D03*
%TD*%
D10*
%TO.P,POWER1,1,Pin_1*%
%TO.N,unconnected-(POWER1-Pin_1-Pad1)*%
X179500000Y-65920000D03*
D11*
%TO.P,POWER1,2,Pin_2*%
%TO.N,+5V*%
X179500000Y-68460000D03*
%TO.P,POWER1,3,Pin_3*%
%TO.N,Net-(D2-A)*%
X179500000Y-71000000D03*
%TO.P,POWER1,4,Pin_4*%
%TO.N,/+3V3*%
X179500000Y-73540000D03*
%TO.P,POWER1,5,Pin_5*%
%TO.N,+5V*%
X179500000Y-76080000D03*
%TO.P,POWER1,6,Pin_6*%
%TO.N,GND*%
X179500000Y-78620000D03*
%TO.P,POWER1,7,Pin_7*%
X179500000Y-81160000D03*
%TO.P,POWER1,8,Pin_8*%
%TO.N,/VIN*%
X179500000Y-83700000D03*
%TD*%
D46*
%TO.P,RESET1,1,1*%
%TO.N,Net-(RESET1-Pad1)*%
X154691000Y-49759300D03*
%TO.P,RESET1,2,2*%
X146309000Y-49759300D03*
%TO.P,RESET1,3,3*%
%TO.N,Net-(D2-A)*%
X154691000Y-45239400D03*
%TO.P,RESET1,4,4*%
X146309000Y-45239400D03*
%TO.P,RESET1,5,5-GND*%
%TO.N,unconnected-(RESET1-5-GND-Pad5)*%
X154691000Y-47498700D03*
%TD*%
D47*
%TO.P,GREEN1,1,K*%
%TO.N,GND*%
X129000000Y-49562500D03*
%TO.P,GREEN1,2,A*%
%TO.N,Net-(GREEN1-A)*%
X129000000Y-51437500D03*
%TD*%
D31*
%TO.P,RN2,1,R1.1*%
%TO.N,Net-(L2-A)*%
X152700000Y-80400000D03*
%TO.P,RN2,2,R2.1*%
%TO.N,+5V*%
X152700000Y-79600000D03*
%TO.P,RN2,3,R3.1*%
X152700000Y-78800000D03*
%TO.P,RN2,4,R4.1*%
%TO.N,/DTR*%
X152700000Y-78000000D03*
%TO.P,RN2,5,R4.2*%
%TO.N,GND*%
X151000000Y-78000000D03*
%TO.P,RN2,6,R3.2*%
%TO.N,Net-(RN2C-R3.2)*%
X151000000Y-78800000D03*
%TO.P,RN2,7,R2.2*%
%TO.N,Net-(RN2B-R2.2)*%
X151000000Y-79600000D03*
%TO.P,RN2,8,R1.2*%
%TO.N,Net-(RN2A-R1.2)*%
X151000000Y-80400000D03*
%TD*%
D48*
%TO.P,D1,1,K*%
%TO.N,/VIN*%
X173650000Y-104500000D03*
%TO.P,D1,2,A*%
%TO.N,/PWRIN*%
X169350000Y-104500000D03*
%TD*%
D13*
%TO.P,C8,1*%
%TO.N,/TPVUCAP*%
X128500000Y-89500000D03*
%TO.P,C8,2*%
%TO.N,/UGND*%
X130050000Y-89500000D03*
%TD*%
D49*
%TO.P,Y1,1,1*%
%TO.N,/XT1*%
X144500000Y-86500000D03*
%TO.P,Y1,2,2*%
%TO.N,/XT2*%
X144500000Y-81620000D03*
%TD*%
D50*
%TO.N,/RESET2*%
X119000000Y-79000000D03*
%TO.N,/AD5{slash}SCL*%
X111500000Y-72500000D03*
X149000000Y-58500000D03*
%TO.N,/AD4{slash}SDA*%
X110500000Y-74500000D03*
X149000000Y-60000000D03*
%TO.N,GND*%
X141700000Y-96000000D03*
X153000000Y-86000000D03*
X175500000Y-101000000D03*
X148500000Y-106000000D03*
X187000000Y-97500000D03*
X146000000Y-103500000D03*
X127000000Y-49500000D03*
X151000000Y-70000000D03*
X139500000Y-90000000D03*
X146000000Y-93500000D03*
X153500000Y-70000000D03*
X129500000Y-93000000D03*
X176500000Y-63500000D03*
X174000000Y-88000000D03*
X137000000Y-100000000D03*
X149500000Y-78000000D03*
X186000000Y-92500000D03*
X133700000Y-83500000D03*
X160000000Y-61000000D03*
%TO.N,+5V*%
X134000000Y-47000000D03*
X150500000Y-64500000D03*
X132500000Y-49500000D03*
X137500000Y-83000000D03*
X137000000Y-87000000D03*
X139500000Y-108000000D03*
X126000000Y-89000000D03*
X152000000Y-67500000D03*
X140000000Y-110000000D03*
%TO.N,/AREF*%
X107000000Y-77000000D03*
X172500000Y-67000000D03*
%TO.N,/DTR*%
X133500000Y-80000000D03*
X153000000Y-77000000D03*
%TO.N,/UGND*%
X116000000Y-101500000D03*
X114500000Y-97000000D03*
%TO.N,/VIN*%
X157500000Y-93000000D03*
X163000000Y-93500000D03*
%TO.N,/RESET2*%
X130250000Y-85250000D03*
X139500000Y-92000000D03*
%TO.N,Net-(IOH1-Pin_6)*%
X157000000Y-66500000D03*
X104000000Y-64000000D03*
X146000000Y-66500000D03*
X110500000Y-82500000D03*
%TO.N,Net-(IOH1-Pin_3)*%
X158500000Y-80500000D03*
X111500000Y-90000000D03*
%TO.N,Net-(IOH1-Pin_2)*%
X106000000Y-94000000D03*
X168500000Y-80500000D03*
%TO.N,Net-(IOH1-Pin_1)*%
X111500000Y-95000000D03*
X161500000Y-82000000D03*
%TO.N,Net-(IOH1-Pin_5)*%
X142500000Y-67000000D03*
X159500000Y-71500000D03*
%TO.N,Net-(IOH1-Pin_4)*%
X169000000Y-74500000D03*
X143000000Y-44500000D03*
%TO.N,Net-(IOL1-Pin_3)*%
X137500000Y-58500000D03*
X133000000Y-57500000D03*
X160640000Y-57500000D03*
%TO.N,Net-(IOL1-Pin_7)*%
X161000000Y-74500000D03*
X136000000Y-70500000D03*
%TO.N,Net-(IOL1-Pin_6)*%
X160500000Y-72500000D03*
X137000000Y-68500000D03*
%TO.N,Net-(IOL1-Pin_1)*%
X111000000Y-48500000D03*
X156500000Y-47000000D03*
%TO.N,Net-(IOL1-Pin_2)*%
X161000000Y-54000000D03*
X128000000Y-54000000D03*
X139500000Y-58500000D03*
%TO.N,Net-(IOL1-Pin_5)*%
X161000000Y-60000000D03*
X136000000Y-67000000D03*
%TO.N,Net-(IOL1-Pin_8)*%
X159500000Y-78000000D03*
X137000000Y-72500000D03*
%TO.N,Net-(IOL1-Pin_4)*%
X137000000Y-65000000D03*
X160500000Y-58500000D03*
%TO.N,Net-(RN2B-R2.2)*%
X141000000Y-76000000D03*
X137500000Y-74000000D03*
%TO.N,Net-(RN2A-R1.2)*%
X149000000Y-84000000D03*
X146000000Y-99500000D03*
%TO.N,Net-(RN2C-R3.2)*%
X140250000Y-74250000D03*
X134000000Y-73500000D03*
%TO.N,/D-*%
X127000000Y-95500000D03*
X129500000Y-96000000D03*
%TD*%
D51*
%TO.N,/RESET2*%
X119000000Y-80500000D02*
X119000000Y-79000000D01*
X119500000Y-81000000D02*
X119000000Y-80500000D01*
%TO.N,+5V*%
X117000000Y-89000000D02*
X126000000Y-89000000D01*
X116960000Y-86080000D02*
X116960000Y-88960000D01*
X116960000Y-88960000D02*
X117000000Y-89000000D01*
X115240000Y-87800000D02*
X116960000Y-86080000D01*
X112500000Y-87800000D02*
X115240000Y-87800000D01*
%TO.N,/SCK2*%
X120691000Y-82349000D02*
X121651000Y-82349000D01*
X119500000Y-83540000D02*
X120691000Y-82349000D01*
%TO.N,Net-(J2-Pin_4)*%
X120321900Y-84691000D02*
X121512900Y-83500000D01*
X118111000Y-84691000D02*
X120321900Y-84691000D01*
X116960000Y-83540000D02*
X118111000Y-84691000D01*
X121512900Y-83500000D02*
X122000000Y-83500000D01*
%TO.N,/MISO2*%
X120691000Y-84889000D02*
X119500000Y-86080000D01*
X121178100Y-84889000D02*
X120691000Y-84889000D01*
%TO.N,/RESET2*%
X118111000Y-82389000D02*
X119500000Y-81000000D01*
X112611000Y-82389000D02*
X118111000Y-82389000D01*
X112500000Y-82500000D02*
X112611000Y-82389000D01*
X112500000Y-85000000D02*
X112500000Y-82500000D01*
%TO.N,GND*%
X112000000Y-79918000D02*
X112000000Y-81000000D01*
X110481000Y-78399000D02*
X112000000Y-79918000D01*
X112000000Y-81000000D02*
X116960000Y-81000000D01*
%TO.N,/AD1*%
X177400000Y-57680000D02*
X179500000Y-55580000D01*
X170620000Y-57680000D02*
X177400000Y-57680000D01*
%TO.N,/AD2*%
X170620000Y-55140000D02*
X177400000Y-55140000D01*
X177400000Y-55140000D02*
X179500000Y-53040000D01*
%TO.N,/AD5{slash}SCL*%
X170620000Y-47520000D02*
X177400000Y-47520000D01*
X108500000Y-72760000D02*
X111240000Y-72760000D01*
X170620000Y-47520000D02*
X169980000Y-47520000D01*
X170620000Y-47520000D02*
X166641000Y-51499000D01*
X177400000Y-47520000D02*
X179500000Y-45420000D01*
X111240000Y-72760000D02*
X111500000Y-72500000D01*
X156001000Y-51499000D02*
X149000000Y-58500000D01*
X166641000Y-51499000D02*
X156001000Y-51499000D01*
%TO.N,/AD3*%
X177400000Y-52600000D02*
X179500000Y-50500000D01*
X170620000Y-52600000D02*
X177400000Y-52600000D01*
%TO.N,/AD0*%
X177400000Y-60220000D02*
X179500000Y-58120000D01*
X170620000Y-60220000D02*
X177400000Y-60220000D01*
%TO.N,/AD4{slash}SDA*%
X108500000Y-75300000D02*
X109700000Y-75300000D01*
X156169100Y-59998000D02*
X149002000Y-59998000D01*
X162167100Y-54000000D02*
X156169100Y-59998000D01*
X166680000Y-54000000D02*
X162167100Y-54000000D01*
X170620000Y-50060000D02*
X177400000Y-50060000D01*
X177400000Y-50060000D02*
X179500000Y-47960000D01*
X170620000Y-50060000D02*
X166680000Y-54000000D01*
X149002000Y-59998000D02*
X149000000Y-60000000D01*
X109700000Y-75300000D02*
X110500000Y-74500000D01*
%TO.N,GND*%
X175800000Y-100700000D02*
X175500000Y-101000000D01*
X146050000Y-93550000D02*
X146000000Y-93500000D01*
X148500000Y-106000000D02*
X149675000Y-106000000D01*
X129000000Y-49562500D02*
X127062500Y-49562500D01*
X145862500Y-105000000D02*
X145862500Y-103637500D01*
X153000000Y-101725000D02*
X150688500Y-104036500D01*
X159950000Y-60950000D02*
X160000000Y-61000000D01*
X183300000Y-92000000D02*
X185500000Y-92000000D01*
X137099943Y-84250000D02*
X138500000Y-82849943D01*
X138500000Y-81725000D02*
X139500000Y-80725000D01*
X150387499Y-105950000D02*
X149725000Y-105950000D01*
X172800000Y-91000000D02*
X174000000Y-89800000D01*
X127062500Y-49562500D02*
X127000000Y-49500000D01*
X154800000Y-70000000D02*
X155000000Y-69800000D01*
X140275000Y-95000000D02*
X140700000Y-95000000D01*
X187000000Y-99225000D02*
X187000000Y-97500000D01*
X151000000Y-78000000D02*
X151000000Y-70000000D01*
X150688500Y-104036500D02*
X150688500Y-105648999D01*
X136150000Y-84250000D02*
X137099943Y-84250000D01*
X158500000Y-60950000D02*
X159950000Y-60950000D01*
X127800000Y-93000000D02*
X129500000Y-93000000D01*
X145862500Y-103637500D02*
X146000000Y-103500000D01*
X149675000Y-106000000D02*
X149725000Y-105950000D01*
X185500000Y-92000000D02*
X186000000Y-92500000D01*
X150688500Y-105648999D02*
X150387499Y-105950000D01*
X136150000Y-84250000D02*
X134450000Y-84250000D01*
X138500000Y-82849943D02*
X138500000Y-81725000D01*
X151000000Y-78000000D02*
X149500000Y-78000000D01*
X146050000Y-94850000D02*
X146050000Y-93550000D01*
X137000000Y-101225000D02*
X137000000Y-100000000D01*
X174000000Y-89800000D02*
X174000000Y-88000000D01*
X139500000Y-88775000D02*
X139500000Y-90000000D01*
X140700000Y-95000000D02*
X141700000Y-96000000D01*
X153000000Y-84875000D02*
X153000000Y-86000000D01*
X177500000Y-100700000D02*
X175800000Y-100700000D01*
X108500000Y-80380000D02*
X110481000Y-78399000D01*
X153500000Y-70000000D02*
X154800000Y-70000000D01*
X175275000Y-63500000D02*
X176500000Y-63500000D01*
X134450000Y-84250000D02*
X133700000Y-83500000D01*
%TO.N,+5V*%
X179500000Y-68460000D02*
X171240000Y-68460000D01*
X141000000Y-57750000D02*
X141000000Y-68000000D01*
X170620000Y-67840000D02*
X170340000Y-67840000D01*
X148550057Y-106900000D02*
X147650057Y-106000000D01*
X144450000Y-96550000D02*
X144450000Y-100550000D01*
X138725000Y-95000000D02*
X138725000Y-91000000D01*
X137000000Y-83500000D02*
X137500000Y-83000000D01*
X177500000Y-103000000D02*
X176500000Y-103000000D01*
X138650000Y-55400000D02*
X141000000Y-57750000D01*
X137337500Y-106950000D02*
X135937500Y-105550000D01*
X137000000Y-104487500D02*
X137000000Y-102775000D01*
X151949000Y-79701000D02*
X151949000Y-82051000D01*
X148000000Y-108625000D02*
X148000000Y-109500000D01*
X148000000Y-68000000D02*
X148500000Y-67500000D01*
X176000000Y-93700000D02*
X177700000Y-92000000D01*
X176000000Y-95200000D02*
X176000000Y-93700000D01*
X151949000Y-67551000D02*
X152000000Y-67500000D01*
X141000000Y-68000000D02*
X148000000Y-68000000D01*
X141050000Y-101050000D02*
X138725000Y-101050000D01*
X156500000Y-62500000D02*
X158500000Y-62500000D01*
X179976760Y-72151000D02*
X179023240Y-72151000D01*
X170340000Y-67840000D02*
X165260000Y-62760000D01*
X138725000Y-95000000D02*
X138725000Y-101050000D01*
X179500000Y-76080000D02*
X180651000Y-74929000D01*
X148500000Y-67500000D02*
X152000000Y-67500000D01*
X138725000Y-101050000D02*
X137000000Y-102775000D01*
X156000000Y-62150057D02*
X156000000Y-63000000D01*
X148500000Y-105000000D02*
X149725000Y-105000000D01*
X138000000Y-55400000D02*
X138650000Y-55400000D01*
X143000000Y-91000000D02*
X138725000Y-91000000D01*
X165260000Y-62760000D02*
X163000000Y-62760000D01*
X186601000Y-77101000D02*
X186601000Y-97049057D01*
X135937500Y-105550000D02*
X137000000Y-104487500D01*
X183800000Y-99850057D02*
X183800000Y-103000000D01*
X186601000Y-97049057D02*
X183800000Y-99850057D01*
X149725000Y-106900000D02*
X148000000Y-108625000D01*
X171240000Y-68460000D02*
X170620000Y-67840000D01*
X174899000Y-96301000D02*
X176000000Y-95200000D01*
X150601000Y-60399000D02*
X154248943Y-60399000D01*
X185580000Y-76080000D02*
X186601000Y-77101000D01*
X178349000Y-71476760D02*
X178349000Y-69611000D01*
X150100000Y-64100000D02*
X150500000Y-64500000D01*
X152050000Y-78800000D02*
X151949000Y-78699000D01*
X132500000Y-53000000D02*
X132500000Y-49500000D01*
X152700000Y-79600000D02*
X152700000Y-78800000D01*
X180651000Y-72825240D02*
X179976760Y-72151000D01*
X138000000Y-54600000D02*
X136400000Y-53000000D01*
X149725000Y-106900000D02*
X148550057Y-106900000D01*
X144450000Y-100550000D02*
X142500000Y-102500000D01*
X136240000Y-47000000D02*
X134000000Y-47000000D01*
X136150000Y-83750000D02*
X136750000Y-83750000D01*
X180651000Y-74929000D02*
X180651000Y-72825240D01*
X179023240Y-72151000D02*
X178349000Y-71476760D01*
X140137500Y-106950000D02*
X139500000Y-107587500D01*
X179500000Y-76080000D02*
X185580000Y-76080000D01*
X145250000Y-96550000D02*
X144450000Y-96550000D01*
X140137500Y-106950000D02*
X137337500Y-106950000D01*
X150100000Y-62500000D02*
X150100000Y-64100000D01*
X187000000Y-100775000D02*
X186025000Y-100775000D01*
X138000000Y-54600000D02*
X138000000Y-55400000D01*
X139500000Y-107587500D02*
X139500000Y-108000000D01*
X150100000Y-62500000D02*
X150100000Y-60900000D01*
X147650057Y-105849943D02*
X148500000Y-105000000D01*
X183800000Y-103000000D02*
X176000000Y-95200000D01*
X142500000Y-102500000D02*
X141050000Y-101050000D01*
X147650057Y-106000000D02*
X147650057Y-105849943D01*
X154248943Y-60399000D02*
X156000000Y-62150057D01*
X186025000Y-100775000D02*
X183800000Y-103000000D01*
X152700000Y-78800000D02*
X152050000Y-78800000D01*
X136975000Y-47735000D02*
X136240000Y-47000000D01*
X152050000Y-79600000D02*
X151949000Y-79701000D01*
X152700000Y-79600000D02*
X152050000Y-79600000D01*
X159500000Y-62500000D02*
X159760000Y-62760000D01*
X136500000Y-87000000D02*
X135450000Y-85950000D01*
X151949000Y-78699000D02*
X151949000Y-67551000D01*
X151949000Y-82051000D02*
X143000000Y-91000000D01*
X159760000Y-62760000D02*
X163000000Y-62760000D01*
X138725000Y-91000000D02*
X138725000Y-89225000D01*
X178349000Y-69611000D02*
X179500000Y-68460000D01*
X158500000Y-62500000D02*
X159500000Y-62500000D01*
X150100000Y-60900000D02*
X150601000Y-60399000D01*
X174899000Y-101399000D02*
X174899000Y-96301000D01*
X138725000Y-89225000D02*
X136500000Y-87000000D01*
X140500000Y-109500000D02*
X140000000Y-110000000D01*
X148000000Y-109500000D02*
X140500000Y-109500000D01*
X156000000Y-63000000D02*
X156500000Y-62500000D01*
X136750000Y-83750000D02*
X137000000Y-83500000D01*
X176500000Y-103000000D02*
X174899000Y-101399000D01*
X136400000Y-53000000D02*
X132500000Y-53000000D01*
X136500000Y-87000000D02*
X137000000Y-87000000D01*
%TO.N,Net-(U2-VOUT)*%
X153000000Y-103275000D02*
X153000000Y-104000000D01*
X153000000Y-104000000D02*
X152000000Y-105000000D01*
%TO.N,/AREF*%
X170620000Y-65300000D02*
X170800000Y-65300000D01*
X170800000Y-65300000D02*
X171000000Y-65500000D01*
X107660000Y-77000000D02*
X107000000Y-77000000D01*
X173000000Y-63500000D02*
X173725000Y-63500000D01*
X173725000Y-65775000D02*
X172500000Y-67000000D01*
X173725000Y-63500000D02*
X173725000Y-65775000D01*
X171000000Y-65500000D02*
X173000000Y-63500000D01*
X108500000Y-77840000D02*
X107660000Y-77000000D01*
%TO.N,Net-(D2-A)*%
X156775000Y-77500000D02*
X157850000Y-77500000D01*
X184000000Y-44500000D02*
X184000000Y-66500000D01*
X184000000Y-66500000D02*
X179500000Y-71000000D01*
X152900000Y-62500000D02*
X152900000Y-66000000D01*
X156000000Y-73500000D02*
X156775000Y-74275000D01*
X146309000Y-45239400D02*
X146309000Y-46021000D01*
X147500000Y-65500000D02*
X148000000Y-66000000D01*
X146000000Y-92000000D02*
X150000000Y-92000000D01*
X145780000Y-54000000D02*
X147500000Y-54000000D01*
X146309000Y-46021000D02*
X142055000Y-50275000D01*
X146309000Y-45239400D02*
X154691000Y-45239400D01*
X155248000Y-73000000D02*
X156000000Y-73000000D01*
X154691000Y-45239400D02*
X162739400Y-45239400D01*
X157850000Y-77500000D02*
X158850000Y-76500000D01*
X152900000Y-66000000D02*
X152900000Y-70652000D01*
X142055000Y-50275000D02*
X145780000Y-54000000D01*
X162739400Y-45239400D02*
X163000000Y-45500000D01*
X144450000Y-94850000D02*
X144450000Y-93550000D01*
X163000000Y-45500000D02*
X166000000Y-42500000D01*
X144450000Y-94950000D02*
X144450000Y-94850000D01*
X144450000Y-94950000D02*
X144500000Y-95000000D01*
X160150000Y-76500000D02*
X158850000Y-76500000D01*
X147500000Y-54000000D02*
X147500000Y-65500000D01*
X152900000Y-70652000D02*
X155248000Y-73000000D01*
X156775000Y-74275000D02*
X156775000Y-77500000D01*
X144450000Y-93550000D02*
X146000000Y-92000000D01*
X156000000Y-73000000D02*
X156000000Y-73500000D01*
X148000000Y-66000000D02*
X152900000Y-66000000D01*
X166000000Y-42500000D02*
X182000000Y-42500000D01*
X150000000Y-92000000D02*
X157000000Y-85000000D01*
X182000000Y-42500000D02*
X184000000Y-44500000D01*
X156775000Y-84775000D02*
X156775000Y-77500000D01*
X163000000Y-47520000D02*
X163000000Y-45500000D01*
X157000000Y-85000000D02*
X156775000Y-84775000D01*
%TO.N,/DTR*%
X152700000Y-78000000D02*
X152700000Y-77300000D01*
X152700000Y-77300000D02*
X153000000Y-77000000D01*
X154725000Y-78000000D02*
X155225000Y-77500000D01*
X133450000Y-80050000D02*
X133500000Y-80000000D01*
X152700000Y-78000000D02*
X154725000Y-78000000D01*
X133450000Y-81050000D02*
X133450000Y-80050000D01*
%TO.N,/UGND*%
X126500000Y-93000000D02*
X118937500Y-93000000D01*
X127601000Y-91949000D02*
X126601000Y-91949000D01*
X124230000Y-103290000D02*
X123175000Y-104345000D01*
X118937500Y-93000000D02*
X116000000Y-95937500D01*
X123175000Y-104345000D02*
X118845000Y-104345000D01*
X130050000Y-89500000D02*
X127601000Y-91949000D01*
X133450000Y-86550000D02*
X130500000Y-89500000D01*
X115562500Y-95937500D02*
X114500000Y-97000000D01*
X126500000Y-92050000D02*
X126500000Y-93000000D01*
X126601000Y-91949000D02*
X126500000Y-92050000D01*
X133450000Y-85950000D02*
X133450000Y-86550000D01*
X116000000Y-95937500D02*
X115562500Y-95937500D01*
X130500000Y-89500000D02*
X130050000Y-89500000D01*
X118845000Y-104345000D02*
X116000000Y-101500000D01*
%TO.N,/TPVUCAP*%
X129276000Y-88724000D02*
X128500000Y-89500000D01*
X132950000Y-85950000D02*
X132950000Y-86365798D01*
X132950000Y-86365798D02*
X130591798Y-88724000D01*
X130591798Y-88724000D02*
X129276000Y-88724000D01*
%TO.N,/XT2*%
X136150000Y-84750000D02*
X138750000Y-84750000D01*
X138750000Y-84750000D02*
X139500000Y-84000000D01*
X139500000Y-82275000D02*
X143845000Y-82275000D01*
X139500000Y-84000000D02*
X139500000Y-82275000D01*
X143845000Y-82275000D02*
X144500000Y-81620000D01*
%TO.N,/XT1*%
X139100000Y-85250000D02*
X139500000Y-85650000D01*
X140225000Y-86500000D02*
X144500000Y-86500000D01*
X139500000Y-85650000D02*
X139500000Y-87225000D01*
X136150000Y-85250000D02*
X139100000Y-85250000D01*
X139500000Y-87225000D02*
X140225000Y-86500000D01*
%TO.N,/PWRIN*%
X169350000Y-104500000D02*
X167850000Y-106000000D01*
X167850000Y-106000000D02*
X160542500Y-106000000D01*
%TO.N,/VIN*%
X167200000Y-91000000D02*
X164700000Y-93500000D01*
X146850000Y-96550000D02*
X153950000Y-96550000D01*
X176700000Y-104500000D02*
X177500000Y-105300000D01*
X153950000Y-96550000D02*
X157500000Y-93000000D01*
X173650000Y-104500000D02*
X173650000Y-97450000D01*
X164700000Y-93500000D02*
X163000000Y-93500000D01*
X173650000Y-97450000D02*
X167200000Y-91000000D01*
X179500000Y-83700000D02*
X174500000Y-83700000D01*
X173650000Y-104500000D02*
X176700000Y-104500000D01*
X174500000Y-83700000D02*
X167200000Y-91000000D01*
%TO.N,/RESET2*%
X142601000Y-95601000D02*
X141500000Y-94500000D01*
X112500000Y-85000000D02*
X112920000Y-85000000D01*
X131250000Y-85250000D02*
X130250000Y-85250000D01*
X141500000Y-94500000D02*
X141500000Y-94000000D01*
X131250000Y-85250000D02*
X131265798Y-85250000D01*
X145250000Y-95500000D02*
X145149000Y-95601000D01*
X145149000Y-95601000D02*
X142601000Y-95601000D01*
X141500000Y-94000000D02*
X139500000Y-92000000D01*
X145250000Y-94850000D02*
X145250000Y-95500000D01*
%TO.N,/XUSB*%
X128610000Y-101290000D02*
X132400000Y-97500000D01*
X124230000Y-101290000D02*
X128610000Y-101290000D01*
%TO.N,/USBVCC*%
X132500000Y-101600000D02*
X132500000Y-106500000D01*
X137500000Y-89500000D02*
X136600000Y-90400000D01*
X134950000Y-85950000D02*
X134950000Y-86950000D01*
X132500000Y-106500000D02*
X134062500Y-106500000D01*
X134950000Y-86950000D02*
X137500000Y-89500000D01*
X136600000Y-90400000D02*
X136600000Y-97500000D01*
X136600000Y-97500000D02*
X132500000Y-101600000D01*
%TO.N,Net-(GREEN1-A)*%
X136300000Y-54600000D02*
X136300000Y-55400000D01*
X136300000Y-54600000D02*
X130600000Y-54600000D01*
X129000000Y-53000000D02*
X129000000Y-51437500D01*
X130600000Y-54600000D02*
X129000000Y-53000000D01*
%TO.N,Net-(IOH1-Pin_6)*%
X110080000Y-82920000D02*
X110500000Y-82500000D01*
X139515000Y-50275000D02*
X145500000Y-56260000D01*
X104000000Y-45932900D02*
X104833900Y-45099000D01*
X170620000Y-70380000D02*
X166740000Y-66500000D01*
X138364000Y-46364000D02*
X138364000Y-49124000D01*
X124899000Y-47101000D02*
X126500000Y-45500000D01*
X111166100Y-45099000D02*
X113168100Y-47101000D01*
X108500000Y-82920000D02*
X110080000Y-82920000D01*
X104833900Y-45099000D02*
X111166100Y-45099000D01*
X145500000Y-56260000D02*
X145500000Y-63500000D01*
X166740000Y-66500000D02*
X157000000Y-66500000D01*
X138364000Y-49124000D02*
X139515000Y-50275000D01*
X137500000Y-45500000D02*
X138364000Y-46364000D01*
X145500000Y-66000000D02*
X146000000Y-66500000D01*
X126500000Y-45500000D02*
X137500000Y-45500000D01*
X145500000Y-63500000D02*
X145500000Y-66000000D01*
X113168100Y-47101000D02*
X124899000Y-47101000D01*
X104000000Y-64000000D02*
X104000000Y-45932900D01*
%TO.N,Net-(IOH1-Pin_3)*%
X110960000Y-90540000D02*
X111500000Y-90000000D01*
X169181000Y-79439000D02*
X159561000Y-79439000D01*
X108500000Y-90540000D02*
X110960000Y-90540000D01*
X159561000Y-79439000D02*
X158500000Y-80500000D01*
X170620000Y-78000000D02*
X169181000Y-79439000D01*
%TO.N,Net-(IOH1-Pin_2)*%
X107580000Y-94000000D02*
X106000000Y-94000000D01*
X170620000Y-80540000D02*
X168540000Y-80540000D01*
X168540000Y-80540000D02*
X168500000Y-80500000D01*
X108500000Y-93080000D02*
X107580000Y-94000000D01*
%TO.N,Net-(IOH1-Pin_1)*%
X163000000Y-80540000D02*
X161540000Y-82000000D01*
X161540000Y-82000000D02*
X161500000Y-82000000D01*
X110880000Y-95620000D02*
X111500000Y-95000000D01*
X108500000Y-95620000D02*
X110880000Y-95620000D01*
%TO.N,Net-(IOH1-Pin_5)*%
X142500000Y-55800000D02*
X142500000Y-67000000D01*
X169200000Y-71500000D02*
X159500000Y-71500000D01*
X170620000Y-72920000D02*
X169200000Y-71500000D01*
X105000000Y-45500000D02*
X104500000Y-46000000D01*
X113000000Y-47500000D02*
X111000000Y-45500000D01*
X136975000Y-50275000D02*
X142500000Y-55800000D01*
X104500000Y-46000000D02*
X106101000Y-47601000D01*
X106101000Y-83899000D02*
X105000000Y-85000000D01*
X105000000Y-85000000D02*
X105460000Y-85460000D01*
X111000000Y-45500000D02*
X105000000Y-45500000D01*
X113500000Y-48000000D02*
X113000000Y-47500000D01*
X105460000Y-85460000D02*
X108500000Y-85460000D01*
X136975000Y-50275000D02*
X134700000Y-48000000D01*
X134700000Y-48000000D02*
X113500000Y-48000000D01*
X106101000Y-47601000D02*
X106101000Y-83899000D01*
%TO.N,Net-(IOH1-Pin_4)*%
X108500000Y-88000000D02*
X102500000Y-88000000D01*
X142500000Y-45000000D02*
X143000000Y-44500000D01*
X141000000Y-46500000D02*
X140750000Y-46500000D01*
X141500000Y-46000000D02*
X142500000Y-45000000D01*
X170620000Y-75460000D02*
X169660000Y-74500000D01*
X169660000Y-74500000D02*
X169000000Y-74500000D01*
X102500000Y-88000000D02*
X102500000Y-43500000D01*
X142500000Y-45000000D02*
X141000000Y-43500000D01*
X141500000Y-46000000D02*
X141000000Y-46500000D01*
X140750000Y-46500000D02*
X139515000Y-47735000D01*
X141000000Y-43500000D02*
X102500000Y-43500000D01*
%TO.N,Net-(IOL1-Pin_3)*%
X108500000Y-53420000D02*
X109420000Y-52500000D01*
X124000000Y-52500000D02*
X129000000Y-57500000D01*
X129000000Y-57500000D02*
X133000000Y-57500000D01*
X138000000Y-58000000D02*
X137500000Y-58500000D01*
X163000000Y-55140000D02*
X160640000Y-57500000D01*
X138000000Y-57000000D02*
X138000000Y-58000000D01*
X109420000Y-52500000D02*
X124000000Y-52500000D01*
%TO.N,Net-(IOL1-Pin_7)*%
X162040000Y-74500000D02*
X161000000Y-74500000D01*
X108500000Y-63580000D02*
X115420000Y-70500000D01*
X163000000Y-75460000D02*
X162040000Y-74500000D01*
X115420000Y-70500000D02*
X136000000Y-70500000D01*
%TO.N,Net-(IOL1-Pin_6)*%
X163000000Y-72920000D02*
X160920000Y-72920000D01*
X115960000Y-68500000D02*
X137000000Y-68500000D01*
X160920000Y-72920000D02*
X160500000Y-72500000D01*
X108500000Y-61040000D02*
X115960000Y-68500000D01*
%TO.N,Net-(IOL1-Pin_1)*%
X159560000Y-50060000D02*
X156500000Y-47000000D01*
X108500000Y-48340000D02*
X110840000Y-48340000D01*
X110840000Y-48340000D02*
X111000000Y-48500000D01*
X163000000Y-50060000D02*
X159560000Y-50060000D01*
%TO.N,Net-(IOL1-Pin_2)*%
X108500000Y-50880000D02*
X124880000Y-50880000D01*
X138650000Y-56200000D02*
X139500000Y-57050000D01*
X138000000Y-56200000D02*
X138650000Y-56200000D01*
X163000000Y-52600000D02*
X161600000Y-54000000D01*
X124880000Y-50880000D02*
X128000000Y-54000000D01*
X161600000Y-54000000D02*
X161000000Y-54000000D01*
X139500000Y-57050000D02*
X139500000Y-58500000D01*
%TO.N,Net-(IOL1-Pin_5)*%
X108500000Y-58500000D02*
X117000000Y-67000000D01*
X117000000Y-67000000D02*
X136000000Y-67000000D01*
X161220000Y-60220000D02*
X161000000Y-60000000D01*
X163000000Y-60220000D02*
X161220000Y-60220000D01*
%TO.N,Net-(IOL1-Pin_8)*%
X136500000Y-72000000D02*
X137000000Y-72500000D01*
X108500000Y-66120000D02*
X114380000Y-72000000D01*
X163000000Y-78000000D02*
X159500000Y-78000000D01*
X114380000Y-72000000D02*
X135000000Y-72000000D01*
X135000000Y-72000000D02*
X136500000Y-72000000D01*
%TO.N,Net-(IOL1-Pin_4)*%
X108500000Y-55960000D02*
X117540000Y-65000000D01*
X117540000Y-65000000D02*
X137000000Y-65000000D01*
X163000000Y-57680000D02*
X161320000Y-57680000D01*
X161320000Y-57680000D02*
X160500000Y-58500000D01*
%TO.N,Net-(J2-Pin_4)*%
X131950000Y-81050000D02*
X131950000Y-80450000D01*
X122500000Y-81000000D02*
X122500000Y-83000000D01*
X131000000Y-79500000D02*
X124000000Y-79500000D01*
X124000000Y-79500000D02*
X122500000Y-81000000D01*
X122500000Y-83000000D02*
X122000000Y-83500000D01*
X131950000Y-80450000D02*
X131000000Y-79500000D01*
%TO.N,/MISO2*%
X123500000Y-82567100D02*
X123500000Y-81000000D01*
X121178100Y-84889000D02*
X123500000Y-82567100D01*
X123500000Y-81000000D02*
X123651000Y-80849000D01*
X130349000Y-80849000D02*
X131250000Y-81750000D01*
X123651000Y-80849000D02*
X130349000Y-80849000D01*
%TO.N,/SCK2*%
X122000000Y-80500000D02*
X122000000Y-82000000D01*
X123401000Y-79099000D02*
X122000000Y-80500000D01*
X131166100Y-79099000D02*
X123401000Y-79099000D01*
X122000000Y-82000000D02*
X121651000Y-82349000D01*
X132450000Y-80382900D02*
X131166100Y-79099000D01*
X132450000Y-81050000D02*
X132450000Y-80382900D01*
%TO.N,Net-(J3-Pin_2)*%
X128702081Y-84540000D02*
X129992081Y-83250000D01*
X127500000Y-84540000D02*
X128702081Y-84540000D01*
X129992081Y-83250000D02*
X131250000Y-83250000D01*
%TO.N,Net-(J3-Pin_3)*%
X130099000Y-82750000D02*
X131250000Y-82750000D01*
X125460000Y-82500000D02*
X126000000Y-82500000D01*
X126000000Y-82500000D02*
X126000000Y-82802000D01*
X124960000Y-82000000D02*
X125460000Y-82500000D01*
X130000000Y-82651000D02*
X130099000Y-82750000D01*
X126349000Y-83151000D02*
X129500000Y-83151000D01*
X129500000Y-83151000D02*
X130000000Y-82651000D01*
X126000000Y-82802000D02*
X126349000Y-83151000D01*
%TO.N,Net-(J3-Pin_4)*%
X128893202Y-85691000D02*
X130834202Y-83750000D01*
X130834202Y-83750000D02*
X131250000Y-83750000D01*
X126111000Y-85691000D02*
X128893202Y-85691000D01*
X124960000Y-84540000D02*
X126111000Y-85691000D01*
%TO.N,Net-(J3-Pin_1)*%
X127500000Y-82000000D02*
X127750000Y-82250000D01*
X127750000Y-82250000D02*
X131250000Y-82250000D01*
%TO.N,/PS1*%
X114000000Y-103040000D02*
X113980000Y-103020000D01*
X125000000Y-110000000D02*
X114000000Y-110000000D01*
X118500000Y-99500000D02*
X119220000Y-98780000D01*
X119220000Y-98780000D02*
X122000000Y-98780000D01*
X116960000Y-106000000D02*
X113980000Y-103020000D01*
X112500000Y-99500000D02*
X113937500Y-98062500D01*
X113980000Y-103020000D02*
X112500000Y-101540000D01*
X117062500Y-98062500D02*
X118500000Y-99500000D01*
X113937500Y-98062500D02*
X116000000Y-98062500D01*
X116000000Y-98062500D02*
X117062500Y-98062500D01*
X112500000Y-101540000D02*
X112500000Y-99500000D01*
X114000000Y-110000000D02*
X114000000Y-103040000D01*
X129000000Y-106000000D02*
X125000000Y-110000000D01*
%TO.N,Net-(L2-A)*%
X152700000Y-80400000D02*
X152700000Y-82700000D01*
X152700000Y-82700000D02*
X153000000Y-83000000D01*
%TO.N,/+3V3*%
X148500000Y-104399999D02*
X148500000Y-99500000D01*
X174500000Y-78540000D02*
X179500000Y-73540000D01*
X174500000Y-83000000D02*
X174500000Y-78540000D01*
X153000000Y-100000000D02*
X170000000Y-83000000D01*
X146599999Y-106300000D02*
X148500000Y-104399999D01*
X148500000Y-99500000D02*
X149000000Y-100000000D01*
X145862500Y-106300000D02*
X146599999Y-106300000D01*
X149000000Y-100000000D02*
X153000000Y-100000000D01*
X170000000Y-83000000D02*
X174500000Y-83000000D01*
%TO.N,Net-(Q1-G)*%
X135937500Y-107450000D02*
X137450000Y-107450000D01*
X143812500Y-109000000D02*
X145862500Y-106950000D01*
X139000000Y-109000000D02*
X143812500Y-109000000D01*
X137450000Y-107450000D02*
X139000000Y-109000000D01*
%TO.N,Net-(ZU4-XTAL1{slash}PB6)*%
X155000000Y-68600000D02*
X158750000Y-68600000D01*
X162990000Y-67850000D02*
X163000000Y-67840000D01*
X159500000Y-67850000D02*
X162990000Y-67850000D01*
X158750000Y-68600000D02*
X159500000Y-67850000D01*
%TO.N,Net-(ZU4-XTAL2{slash}PB7)*%
X162120000Y-69500000D02*
X163000000Y-70380000D01*
X155000000Y-71000000D02*
X158000000Y-71000000D01*
X159500000Y-69500000D02*
X162120000Y-69500000D01*
X158000000Y-71000000D02*
X159500000Y-69500000D01*
%TO.N,Net-(RESET1-Pad1)*%
X154691000Y-49759300D02*
X146309000Y-49759300D01*
%TO.N,Net-(RN1A-R1.1)*%
X146519870Y-105650000D02*
X146901000Y-105268870D01*
X146050000Y-97200000D02*
X146050000Y-96550000D01*
X145205130Y-105650000D02*
X145862500Y-105650000D01*
X146901000Y-105268870D02*
X146901000Y-98051000D01*
X145862500Y-105650000D02*
X146519870Y-105650000D01*
X146850000Y-95302000D02*
X146850000Y-94850000D01*
X146050000Y-96550000D02*
X146050000Y-96102000D01*
X146050000Y-96102000D02*
X146850000Y-95302000D01*
X146901000Y-98051000D02*
X146050000Y-97200000D01*
%TO.N,Net-(RN2B-R2.2)*%
X137000000Y-74000000D02*
X137500000Y-74000000D01*
X144600000Y-79600000D02*
X141000000Y-76000000D01*
X136500000Y-74500000D02*
X137000000Y-74000000D01*
X151000000Y-79600000D02*
X144600000Y-79600000D01*
%TO.N,Net-(RN2A-R1.2)*%
X140794870Y-105650000D02*
X146000000Y-100444870D01*
X140137500Y-105650000D02*
X140794870Y-105650000D01*
X140137500Y-105650000D02*
X140137500Y-106300000D01*
X151000000Y-80400000D02*
X151000000Y-82000000D01*
X151000000Y-82000000D02*
X149000000Y-84000000D01*
X146000000Y-100444870D02*
X146000000Y-99500000D01*
%TO.N,Net-(RN2C-R3.2)*%
X144800000Y-78800000D02*
X140250000Y-74250000D01*
X133000000Y-74500000D02*
X134000000Y-73500000D01*
X151000000Y-78800000D02*
X144800000Y-78800000D01*
%TO.N,/D-*%
X123500000Y-98000000D02*
X122720000Y-97220000D01*
X124500000Y-98000000D02*
X127000000Y-95500000D01*
X123500000Y-98000000D02*
X124500000Y-98000000D01*
X134700000Y-90850000D02*
X133100000Y-90850000D01*
X134700000Y-90850000D02*
X134650000Y-90850000D01*
X121730000Y-101290000D02*
X123500000Y-99520000D01*
X122720000Y-97220000D02*
X122000000Y-97220000D01*
X134650000Y-90850000D02*
X129500000Y-96000000D01*
X123500000Y-99520000D02*
X123500000Y-98000000D01*
%TO.N,/RD-*%
X135000000Y-88000000D02*
X134700000Y-88300000D01*
X134450000Y-85950000D02*
X134450000Y-87450000D01*
X134700000Y-88300000D02*
X134700000Y-89150000D01*
X134700000Y-89150000D02*
X133900000Y-89150000D01*
X134450000Y-87450000D02*
X135000000Y-88000000D01*
%TO.N,/RD+*%
X133100000Y-89150000D02*
X132300000Y-89150000D01*
X133950000Y-87848000D02*
X133100000Y-88698000D01*
X133100000Y-88698000D02*
X133100000Y-89150000D01*
X133950000Y-85950000D02*
X133950000Y-87848000D01*
%TO.N,/D+*%
X120290000Y-103290000D02*
X121730000Y-103290000D01*
X116500000Y-99500000D02*
X120290000Y-103290000D01*
X114060000Y-99500000D02*
X116500000Y-99500000D01*
X132300000Y-91287100D02*
X123175000Y-100412100D01*
X123175000Y-100412100D02*
X123175000Y-101845000D01*
X123175000Y-101845000D02*
X121730000Y-103290000D01*
X132300000Y-90850000D02*
X132300000Y-91287100D01*
%TO.N,/M8TxD*%
X136300000Y-59300000D02*
X136300000Y-57000000D01*
X136150000Y-81750000D02*
X139500000Y-78400000D01*
X139500000Y-78400000D02*
X139500000Y-62500000D01*
X139500000Y-62500000D02*
X136300000Y-59300000D01*
%TO.N,/M8RxD*%
X136500000Y-77500000D02*
X138500000Y-77500000D01*
X133500000Y-58350000D02*
X135650000Y-56200000D01*
X135450000Y-81050000D02*
X135450000Y-78550000D01*
X135650000Y-56200000D02*
X136300000Y-56200000D01*
X133500000Y-59500000D02*
X133500000Y-58350000D01*
X138500000Y-77500000D02*
X138500000Y-64500000D01*
X135450000Y-78550000D02*
X136500000Y-77500000D01*
X138500000Y-64500000D02*
X133500000Y-59500000D01*
%TO.N,/RxLED*%
X136500000Y-76375000D02*
X134950000Y-77925000D01*
X134950000Y-77925000D02*
X134950000Y-81050000D01*
%TO.N,/TxLED*%
X134450000Y-77825000D02*
X134450000Y-81050000D01*
X133000000Y-76375000D02*
X134450000Y-77825000D01*
%TD*%
M02*
