%TF.GenerationSoftware,KiCad,Pcbnew,9.0.3*%
%TF.CreationDate,2026-05-07T10:51:22+02:00*%
%TF.ProjectId,Temperature sensor monitor,54656d70-6572-4617-9475-72652073656e,rev?*%
%TF.SameCoordinates,Original*%
%TF.FileFunction,Copper,L4,Bot*%
%TF.FilePolarity,Positive*%
%FSLAX46Y46*%
G04 Gerber Fmt 4.6, Leading zero omitted, Abs format (unit mm)*
G04 Created by KiCad (PCBNEW 9.0.3) date 2026-05-07 10:51:22*
%MOMM*%
%LPD*%
G01*
G04 APERTURE LIST*
%TA.AperFunction,ComponentPad*%
%ADD10R,1.600000X1.600000*%
%TD*%
%TA.AperFunction,ComponentPad*%
%ADD11O,1.600000X1.600000*%
%TD*%
%TA.AperFunction,ComponentPad*%
%ADD12R,1.700000X1.700000*%
%TD*%
%TA.AperFunction,ComponentPad*%
%ADD13C,1.700000*%
%TD*%
%TA.AperFunction,ComponentPad*%
%ADD14C,1.600000*%
%TD*%
%TA.AperFunction,ComponentPad*%
%ADD15C,1.440000*%
%TD*%
%TA.AperFunction,ComponentPad*%
%ADD16R,1.300000X1.300000*%
%TD*%
%TA.AperFunction,ComponentPad*%
%ADD17C,1.300000*%
%TD*%
%TA.AperFunction,ComponentPad*%
%ADD18R,1.800000X1.800000*%
%TD*%
%TA.AperFunction,ComponentPad*%
%ADD19C,1.800000*%
%TD*%
%TA.AperFunction,Conductor*%
%ADD20C,0.700000*%
%TD*%
G04 APERTURE END LIST*
D10*
%TO.P,A1,1,NC*%
%TO.N,unconnected-(A1-NC-Pad1)*%
X167005000Y-95631000D03*
D11*
%TO.P,A1,2,IOREF*%
%TO.N,unconnected-(A1-IOREF-Pad2)*%
X167005000Y-93091000D03*
%TO.P,A1,3,~{RESET}*%
%TO.N,unconnected-(A1-~{RESET}-Pad3)*%
X167005000Y-90551000D03*
%TO.P,A1,4,3V3*%
%TO.N,unconnected-(A1-3V3-Pad4)*%
X167005000Y-88011000D03*
%TO.P,A1,5,+5V*%
%TO.N,5V*%
X167005000Y-85471000D03*
%TO.P,A1,6,GND*%
%TO.N,GND*%
X167005000Y-82931000D03*
%TO.P,A1,7,GND*%
X167005000Y-80391000D03*
%TO.P,A1,8,VIN*%
%TO.N,unconnected-(A1-VIN-Pad8)*%
X167005000Y-77851000D03*
%TO.P,A1,9,A0*%
%TO.N,Net-(A1-A0)*%
X167005000Y-72771000D03*
%TO.P,A1,10,A1*%
%TO.N,Net-(A1-A1)*%
X167005000Y-70231000D03*
%TO.P,A1,11,A2*%
%TO.N,unconnected-(A1-A2-Pad11)*%
X167005000Y-67691000D03*
%TO.P,A1,12,A3*%
%TO.N,unconnected-(A1-A3-Pad12)*%
X167005000Y-65151000D03*
%TO.P,A1,13,SDA/A4*%
%TO.N,unconnected-(A1-SDA{slash}A4-Pad13)*%
X167005000Y-62611000D03*
%TO.P,A1,14,SCL/A5*%
%TO.N,unconnected-(A1-SCL{slash}A5-Pad14)*%
X167005000Y-60071000D03*
%TO.P,A1,15,D0/RX*%
%TO.N,unconnected-(A1-D0{slash}RX-Pad15)*%
X215265000Y-60071000D03*
%TO.P,A1,16,D1/TX*%
%TO.N,unconnected-(A1-D1{slash}TX-Pad16)*%
X215265000Y-62611000D03*
%TO.P,A1,17,D2*%
%TO.N,unconnected-(A1-D2-Pad17)*%
X215265000Y-65151000D03*
%TO.P,A1,18,D3*%
%TO.N,unconnected-(A1-D3-Pad18)*%
X215265000Y-67691000D03*
%TO.P,A1,19,D4*%
%TO.N,unconnected-(A1-D4-Pad19)*%
X215265000Y-70231000D03*
%TO.P,A1,20,D5*%
%TO.N,unconnected-(A1-D5-Pad20)*%
X215265000Y-72771000D03*
%TO.P,A1,21,D6*%
%TO.N,unconnected-(A1-D6-Pad21)*%
X215265000Y-75311000D03*
%TO.P,A1,22,D7*%
%TO.N,unconnected-(A1-D7-Pad22)*%
X215265000Y-77851000D03*
%TO.P,A1,23,D8*%
%TO.N,unconnected-(A1-D8-Pad23)*%
X215265000Y-81911000D03*
%TO.P,A1,24,D9*%
%TO.N,unconnected-(A1-D9-Pad24)*%
X215265000Y-84451000D03*
%TO.P,A1,25,D10*%
%TO.N,unconnected-(A1-D10-Pad25)*%
X215265000Y-86991000D03*
%TO.P,A1,26,D11*%
%TO.N,unconnected-(A1-D11-Pad26)*%
X215265000Y-89531000D03*
%TO.P,A1,27,D12*%
%TO.N,unconnected-(A1-D12-Pad27)*%
X215265000Y-92071000D03*
%TO.P,A1,28,D13*%
%TO.N,Net-(A1-D13)*%
X215265000Y-94611000D03*
%TO.P,A1,29,GND*%
%TO.N,GND*%
X215265000Y-97151000D03*
%TO.P,A1,30,AREF*%
%TO.N,unconnected-(A1-AREF-Pad30)*%
X215265000Y-99691000D03*
%TO.P,A1,31,SDA/A4*%
%TO.N,unconnected-(A1-SDA{slash}A4-Pad31)*%
X215265000Y-102231000D03*
%TO.P,A1,32,SCL/A5*%
%TO.N,unconnected-(A1-SCL{slash}A5-Pad32)*%
X215265000Y-104771000D03*
%TD*%
D12*
%TO.P,J2,1,Pin_1*%
%TO.N,5V*%
X132842000Y-67818000D03*
D13*
%TO.P,J2,2,Pin_2*%
%TO.N,Net-(A1-A1)*%
X132842000Y-70358000D03*
%TO.P,J2,3,Pin_3*%
%TO.N,GND*%
X132842000Y-72898000D03*
%TD*%
D14*
%TO.P,R1,1*%
%TO.N,Net-(A1-D13)*%
X221488000Y-95758000D03*
%TO.P,R1,2*%
%TO.N,Net-(D1-A)*%
X229108000Y-95758000D03*
%TD*%
D15*
%TO.P,RV1,1,1*%
%TO.N,5V*%
X146304000Y-68326000D03*
%TO.P,RV1,2,2*%
%TO.N,Net-(A1-A1)*%
X143764000Y-70866000D03*
%TO.P,RV1,3,3*%
%TO.N,GND*%
X146304000Y-73406000D03*
%TD*%
D12*
%TO.P,J1,1,Pin_1*%
%TO.N,5V*%
X133350000Y-55118000D03*
D13*
%TO.P,J1,2,Pin_2*%
%TO.N,GND*%
X133350000Y-57658000D03*
%TO.P,J1,3,Pin_3*%
%TO.N,Net-(A1-A0)*%
X133350000Y-60198000D03*
%TD*%
D16*
%TO.P,U1,1,Vcc*%
%TO.N,5V*%
X141986000Y-56134000D03*
D17*
%TO.P,U1,2,Vo*%
%TO.N,Net-(A1-A0)*%
X143256000Y-57404000D03*
%TO.P,U1,3,GND*%
%TO.N,GND*%
X141986000Y-58674000D03*
%TD*%
D18*
%TO.P,D1,1,K*%
%TO.N,GND*%
X221742000Y-107442000D03*
D19*
%TO.P,D1,2,A*%
%TO.N,Net-(D1-A)*%
X224282000Y-107442000D03*
%TD*%
D20*
%TO.N,GND*%
X133350000Y-57658000D02*
X135382000Y-59690000D01*
X135382000Y-59690000D02*
X135382000Y-70358000D01*
X135382000Y-70358000D02*
X132842000Y-72898000D01*
%TD*%
M02*
