%TF.GenerationSoftware,KiCad,Pcbnew,9.0.3*%
%TF.CreationDate,2026-05-07T10:51:22+02:00*%
%TF.ProjectId,Temperature sensor monitor,54656d70-6572-4617-9475-72652073656e,rev?*%
%TF.SameCoordinates,Original*%
%TF.FileFunction,Copper,L3,Inr*%
%TF.FilePolarity,Positive*%
%FSLAX46Y46*%
G04 Gerber Fmt 4.6, Leading zero omitted, Abs format (unit mm)*
G04 Created by KiCad (PCBNEW 9.0.3) date 2026-05-07 10:51:22*
%MOMM*%
%LPD*%
G01*
G04 APERTURE LIST*
%TA.AperFunction,ComponentPad*%
%ADD10R,1.600000X1.600000*%
%TD*%
%TA.AperFunction,ComponentPad*%
%ADD11O,1.600000X1.600000*%
%TD*%
%TA.AperFunction,ComponentPad*%
%ADD12R,1.700000X1.700000*%
%TD*%
%TA.AperFunction,ComponentPad*%
%ADD13C,1.700000*%
%TD*%
%TA.AperFunction,ComponentPad*%
%ADD14C,1.600000*%
%TD*%
%TA.AperFunction,ComponentPad*%
%ADD15C,1.440000*%
%TD*%
%TA.AperFunction,ComponentPad*%
%ADD16R,1.300000X1.300000*%
%TD*%
%TA.AperFunction,ComponentPad*%
%ADD17C,1.300000*%
%TD*%
%TA.AperFunction,ComponentPad*%
%ADD18R,1.800000X1.800000*%
%TD*%
%TA.AperFunction,ComponentPad*%
%ADD19C,1.800000*%
%TD*%
G04 APERTURE END LIST*
D10*
%TO.N,unconnected-(A1-NC-Pad1)*%
%TO.C,A1*%
X167005000Y-95631000D03*
D11*
%TO.N,unconnected-(A1-IOREF-Pad2)*%
X167005000Y-93091000D03*
%TO.N,unconnected-(A1-~{RESET}-Pad3)*%
X167005000Y-90551000D03*
%TO.N,unconnected-(A1-3V3-Pad4)*%
X167005000Y-88011000D03*
%TO.N,5V*%
X167005000Y-85471000D03*
%TO.N,GND*%
X167005000Y-82931000D03*
X167005000Y-80391000D03*
%TO.N,unconnected-(A1-VIN-Pad8)*%
X167005000Y-77851000D03*
%TO.N,Net-(A1-A0)*%
X167005000Y-72771000D03*
%TO.N,Net-(A1-A1)*%
X167005000Y-70231000D03*
%TO.N,unconnected-(A1-A2-Pad11)*%
X167005000Y-67691000D03*
%TO.N,unconnected-(A1-A3-Pad12)*%
X167005000Y-65151000D03*
%TO.N,unconnected-(A1-SDA{slash}A4-Pad13)*%
X167005000Y-62611000D03*
%TO.N,unconnected-(A1-SCL{slash}A5-Pad14)*%
X167005000Y-60071000D03*
%TO.N,unconnected-(A1-D0{slash}RX-Pad15)*%
X215265000Y-60071000D03*
%TO.N,unconnected-(A1-D1{slash}TX-Pad16)*%
X215265000Y-62611000D03*
%TO.N,unconnected-(A1-D2-Pad17)*%
X215265000Y-65151000D03*
%TO.N,unconnected-(A1-D3-Pad18)*%
X215265000Y-67691000D03*
%TO.N,unconnected-(A1-D4-Pad19)*%
X215265000Y-70231000D03*
%TO.N,unconnected-(A1-D5-Pad20)*%
X215265000Y-72771000D03*
%TO.N,unconnected-(A1-D6-Pad21)*%
X215265000Y-75311000D03*
%TO.N,unconnected-(A1-D7-Pad22)*%
X215265000Y-77851000D03*
%TO.N,unconnected-(A1-D8-Pad23)*%
X215265000Y-81911000D03*
%TO.N,unconnected-(A1-D9-Pad24)*%
X215265000Y-84451000D03*
%TO.N,unconnected-(A1-D10-Pad25)*%
X215265000Y-86991000D03*
%TO.N,unconnected-(A1-D11-Pad26)*%
X215265000Y-89531000D03*
%TO.N,unconnected-(A1-D12-Pad27)*%
X215265000Y-92071000D03*
%TO.N,Net-(A1-D13)*%
X215265000Y-94611000D03*
%TO.N,GND*%
X215265000Y-97151000D03*
%TO.N,unconnected-(A1-AREF-Pad30)*%
X215265000Y-99691000D03*
%TO.N,unconnected-(A1-SDA{slash}A4-Pad31)*%
X215265000Y-102231000D03*
%TO.N,unconnected-(A1-SCL{slash}A5-Pad32)*%
X215265000Y-104771000D03*
%TD*%
D12*
%TO.N,5V*%
%TO.C,J2*%
X132842000Y-67818000D03*
D13*
%TO.N,Net-(A1-A1)*%
X132842000Y-70358000D03*
%TO.N,GND*%
X132842000Y-72898000D03*
%TD*%
D14*
%TO.N,Net-(A1-D13)*%
%TO.C,R1*%
X221488000Y-95758000D03*
%TO.N,Net-(D1-A)*%
X229108000Y-95758000D03*
%TD*%
D15*
%TO.N,5V*%
%TO.C,RV1*%
X146304000Y-68326000D03*
%TO.N,Net-(A1-A1)*%
X143764000Y-70866000D03*
%TO.N,GND*%
X146304000Y-73406000D03*
%TD*%
D12*
%TO.N,5V*%
%TO.C,J1*%
X133350000Y-55118000D03*
D13*
%TO.N,GND*%
X133350000Y-57658000D03*
%TO.N,Net-(A1-A0)*%
X133350000Y-60198000D03*
%TD*%
D16*
%TO.N,5V*%
%TO.C,U1*%
X141986000Y-56134000D03*
D17*
%TO.N,Net-(A1-A0)*%
X143256000Y-57404000D03*
%TO.N,GND*%
X141986000Y-58674000D03*
%TD*%
D18*
%TO.N,GND*%
%TO.C,D1*%
X221742000Y-107442000D03*
D19*
%TO.N,Net-(D1-A)*%
X224282000Y-107442000D03*
%TD*%
%TA.AperFunction,Conductor*%
%TO.N,5V*%
G36*
X231344539Y-51193185D02*
G01*
X231390294Y-51245989D01*
X231401500Y-51297500D01*
X231401500Y-129550500D01*
X231381815Y-129617539D01*
X231329011Y-129663294D01*
X231277500Y-129674500D01*
X123941500Y-129674500D01*
X123874461Y-129654815D01*
X123828706Y-129602011D01*
X123817500Y-129550500D01*
X123817500Y-106494135D01*
X220341500Y-106494135D01*
X220341500Y-108389870D01*
X220341501Y-108389876D01*
X220347908Y-108449483D01*
X220398202Y-108584328D01*
X220398206Y-108584335D01*
X220484452Y-108699544D01*
X220484455Y-108699547D01*
X220599664Y-108785793D01*
X220599671Y-108785797D01*
X220734517Y-108836091D01*
X220734516Y-108836091D01*
X220741444Y-108836835D01*
X220794127Y-108842500D01*
X222689872Y-108842499D01*
X222749483Y-108836091D01*
X222884331Y-108785796D01*
X222999546Y-108699546D01*
X223085796Y-108584331D01*
X223113429Y-108510243D01*
X223115601Y-108504420D01*
X223157471Y-108448486D01*
X223222936Y-108424068D01*
X223291209Y-108438919D01*
X223319464Y-108460071D01*
X223369636Y-108510243D01*
X223369641Y-108510247D01*
X223471603Y-108584326D01*
X223547978Y-108639815D01*
X223676375Y-108705237D01*
X223744393Y-108739895D01*
X223744396Y-108739896D01*
X223849221Y-108773955D01*
X223954049Y-108808015D01*
X224171778Y-108842500D01*
X224171779Y-108842500D01*
X224392221Y-108842500D01*
X224392222Y-108842500D01*
X224609951Y-108808015D01*
X224819606Y-108739895D01*
X225016022Y-108639815D01*
X225194365Y-108510242D01*
X225350242Y-108354365D01*
X225479815Y-108176022D01*
X225579895Y-107979606D01*
X225648015Y-107769951D01*
X225682500Y-107552222D01*
X225682500Y-107331778D01*
X225648015Y-107114049D01*
X225579895Y-106904394D01*
X225579895Y-106904393D01*
X225545237Y-106836375D01*
X225479815Y-106707978D01*
X225421501Y-106627715D01*
X225350247Y-106529641D01*
X225350243Y-106529636D01*
X225194363Y-106373756D01*
X225194358Y-106373752D01*
X225016025Y-106244187D01*
X225016024Y-106244186D01*
X225016022Y-106244185D01*
X224898791Y-106184452D01*
X224819606Y-106144104D01*
X224819603Y-106144103D01*
X224609952Y-106075985D01*
X224501086Y-106058742D01*
X224392222Y-106041500D01*
X224171778Y-106041500D01*
X224099201Y-106052995D01*
X223954047Y-106075985D01*
X223744396Y-106144103D01*
X223744393Y-106144104D01*
X223547974Y-106244187D01*
X223369641Y-106373752D01*
X223369636Y-106373756D01*
X223319463Y-106423929D01*
X223258140Y-106457413D01*
X223188448Y-106452428D01*
X223132515Y-106410557D01*
X223115601Y-106379580D01*
X223085797Y-106299671D01*
X223085793Y-106299664D01*
X222999547Y-106184455D01*
X222999544Y-106184452D01*
X222884335Y-106098206D01*
X222884328Y-106098202D01*
X222749482Y-106047908D01*
X222749483Y-106047908D01*
X222689883Y-106041501D01*
X222689881Y-106041500D01*
X222689873Y-106041500D01*
X222689864Y-106041500D01*
X220794129Y-106041500D01*
X220794123Y-106041501D01*
X220734516Y-106047908D01*
X220599671Y-106098202D01*
X220599664Y-106098206D01*
X220484455Y-106184452D01*
X220484452Y-106184455D01*
X220398206Y-106299664D01*
X220398202Y-106299671D01*
X220347908Y-106434517D01*
X220341501Y-106494116D01*
X220341500Y-106494135D01*
X123817500Y-106494135D01*
X123817500Y-77748648D01*
X165704500Y-77748648D01*
X165704500Y-77953351D01*
X165736522Y-78155534D01*
X165799781Y-78350223D01*
X165892715Y-78532613D01*
X166013028Y-78698213D01*
X166157786Y-78842971D01*
X166312749Y-78955556D01*
X166323390Y-78963287D01*
X166414840Y-79009883D01*
X166416080Y-79010515D01*
X166466876Y-79058490D01*
X166483671Y-79126311D01*
X166461134Y-79192446D01*
X166416080Y-79231485D01*
X166323386Y-79278715D01*
X166157786Y-79399028D01*
X166013028Y-79543786D01*
X165892715Y-79709386D01*
X165799781Y-79891776D01*
X165736522Y-80086465D01*
X165704500Y-80288648D01*
X165704500Y-80493351D01*
X165736522Y-80695531D01*
X165799781Y-80890223D01*
X165863691Y-81015653D01*
X165888214Y-81063781D01*
X165892715Y-81072613D01*
X166013028Y-81238213D01*
X166157786Y-81382971D01*
X166312749Y-81495556D01*
X166323390Y-81503287D01*
X166414840Y-81549883D01*
X166416080Y-81550515D01*
X166466876Y-81598490D01*
X166483671Y-81666311D01*
X166461134Y-81732446D01*
X166416080Y-81771485D01*
X166323386Y-81818715D01*
X166157786Y-81939028D01*
X166013028Y-82083786D01*
X165892715Y-82249386D01*
X165799781Y-82431776D01*
X165736522Y-82626465D01*
X165704500Y-82828648D01*
X165704500Y-83033351D01*
X165736522Y-83235531D01*
X165799781Y-83430223D01*
X165863691Y-83555653D01*
X165888214Y-83603781D01*
X165892715Y-83612613D01*
X166013028Y-83778213D01*
X166157786Y-83922971D01*
X166312749Y-84035556D01*
X166323390Y-84043287D01*
X166395424Y-84079990D01*
X166416629Y-84090795D01*
X166467425Y-84138770D01*
X166484220Y-84206591D01*
X166461682Y-84272726D01*
X166416629Y-84311765D01*
X166323650Y-84359140D01*
X166158105Y-84479417D01*
X166158104Y-84479417D01*
X166013417Y-84624104D01*
X166013417Y-84624105D01*
X165893140Y-84789650D01*
X165800244Y-84971970D01*
X165737009Y-85166586D01*
X165728391Y-85221000D01*
X166571988Y-85221000D01*
X166539075Y-85278007D01*
X166505000Y-85405174D01*
X166505000Y-85536826D01*
X166539075Y-85663993D01*
X166571988Y-85721000D01*
X165728391Y-85721000D01*
X165737009Y-85775413D01*
X165800244Y-85970029D01*
X165893140Y-86152349D01*
X166013417Y-86317894D01*
X166013417Y-86317895D01*
X166158104Y-86462582D01*
X166323652Y-86582861D01*
X166416628Y-86630234D01*
X166467425Y-86678208D01*
X166484220Y-86746029D01*
X166461683Y-86812164D01*
X166416630Y-86851203D01*
X166323388Y-86898713D01*
X166157786Y-87019028D01*
X166013028Y-87163786D01*
X165892715Y-87329386D01*
X165799781Y-87511776D01*
X165736522Y-87706465D01*
X165704500Y-87908648D01*
X165704500Y-88113351D01*
X165736522Y-88315531D01*
X165799781Y-88510223D01*
X165863691Y-88635653D01*
X165888214Y-88683781D01*
X165892715Y-88692613D01*
X166013028Y-88858213D01*
X166157786Y-89002971D01*
X166312749Y-89115556D01*
X166323390Y-89123287D01*
X166414840Y-89169883D01*
X166416080Y-89170515D01*
X166466876Y-89218490D01*
X166483671Y-89286311D01*
X166461134Y-89352446D01*
X166416080Y-89391485D01*
X166323386Y-89438715D01*
X166157786Y-89559028D01*
X166013028Y-89703786D01*
X165892715Y-89869386D01*
X165799781Y-90051776D01*
X165736522Y-90246465D01*
X165704500Y-90448648D01*
X165704500Y-90653351D01*
X165736522Y-90855531D01*
X165799781Y-91050223D01*
X165863691Y-91175653D01*
X165888214Y-91223781D01*
X165892715Y-91232613D01*
X166013028Y-91398213D01*
X166157786Y-91542971D01*
X166312749Y-91655556D01*
X166323390Y-91663287D01*
X166414840Y-91709883D01*
X166416080Y-91710515D01*
X166466876Y-91758490D01*
X166483671Y-91826311D01*
X166461134Y-91892446D01*
X166416080Y-91931485D01*
X166323386Y-91978715D01*
X166157786Y-92099028D01*
X166013028Y-92243786D01*
X165892715Y-92409386D01*
X165799781Y-92591776D01*
X165736522Y-92786465D01*
X165704500Y-92988648D01*
X165704500Y-93193351D01*
X165736522Y-93395531D01*
X165799781Y-93590223D01*
X165863691Y-93715653D01*
X165888214Y-93763781D01*
X165892715Y-93772613D01*
X166013028Y-93938213D01*
X166157784Y-94082969D01*
X166194068Y-94109330D01*
X166236735Y-94164659D01*
X166242715Y-94234273D01*
X166210109Y-94296068D01*
X166149271Y-94330426D01*
X166134440Y-94332938D01*
X166097519Y-94336907D01*
X165962671Y-94387202D01*
X165962664Y-94387206D01*
X165847455Y-94473452D01*
X165847452Y-94473455D01*
X165761206Y-94588664D01*
X165761202Y-94588671D01*
X165710908Y-94723517D01*
X165704501Y-94783116D01*
X165704501Y-94783123D01*
X165704500Y-94783135D01*
X165704500Y-96478870D01*
X165704501Y-96478876D01*
X165710908Y-96538483D01*
X165761202Y-96673328D01*
X165761206Y-96673335D01*
X165847452Y-96788544D01*
X165847455Y-96788547D01*
X165962664Y-96874793D01*
X165962671Y-96874797D01*
X166097517Y-96925091D01*
X166097516Y-96925091D01*
X166104444Y-96925835D01*
X166157127Y-96931500D01*
X167852872Y-96931499D01*
X167912483Y-96925091D01*
X168047331Y-96874796D01*
X168162546Y-96788546D01*
X168248796Y-96673331D01*
X168299091Y-96538483D01*
X168305500Y-96478873D01*
X168305499Y-94783128D01*
X168299091Y-94723517D01*
X168295299Y-94713351D01*
X168248797Y-94588671D01*
X168248793Y-94588664D01*
X168162547Y-94473455D01*
X168162544Y-94473452D01*
X168047335Y-94387206D01*
X168047328Y-94387202D01*
X167912482Y-94336908D01*
X167912483Y-94336908D01*
X167875560Y-94332939D01*
X167811009Y-94306201D01*
X167771160Y-94248809D01*
X167768667Y-94178984D01*
X167804319Y-94118895D01*
X167815930Y-94109331D01*
X167852219Y-94082966D01*
X167996966Y-93938219D01*
X167996968Y-93938215D01*
X167996971Y-93938213D01*
X168049732Y-93865590D01*
X168117287Y-93772610D01*
X168210220Y-93590219D01*
X168273477Y-93395534D01*
X168273476Y-93395534D01*
X168273478Y-93395531D01*
X168305500Y-93193351D01*
X168305500Y-92988648D01*
X168273477Y-92786465D01*
X168210218Y-92591776D01*
X168176503Y-92525607D01*
X168117287Y-92409390D01*
X168109556Y-92398749D01*
X167996971Y-92243786D01*
X167852213Y-92099028D01*
X167686614Y-91978715D01*
X167666856Y-91968648D01*
X167593917Y-91931483D01*
X167543123Y-91883511D01*
X167526328Y-91815690D01*
X167548865Y-91749555D01*
X167593917Y-91710516D01*
X167686610Y-91663287D01*
X167707770Y-91647913D01*
X167852213Y-91542971D01*
X167852215Y-91542968D01*
X167852219Y-91542966D01*
X167996966Y-91398219D01*
X167996968Y-91398215D01*
X167996971Y-91398213D01*
X168049732Y-91325590D01*
X168117287Y-91232610D01*
X168210220Y-91050219D01*
X168273477Y-90855534D01*
X168273476Y-90855534D01*
X168273478Y-90855531D01*
X168305500Y-90653351D01*
X168305500Y-90448648D01*
X168273477Y-90246465D01*
X168210218Y-90051776D01*
X168176503Y-89985607D01*
X168117287Y-89869390D01*
X168109556Y-89858749D01*
X167996971Y-89703786D01*
X167852213Y-89559028D01*
X167686614Y-89438715D01*
X167666856Y-89428648D01*
X167593917Y-89391483D01*
X167543123Y-89343511D01*
X167526328Y-89275690D01*
X167548865Y-89209555D01*
X167593917Y-89170516D01*
X167686610Y-89123287D01*
X167707770Y-89107913D01*
X167852213Y-89002971D01*
X167852215Y-89002968D01*
X167852219Y-89002966D01*
X167996966Y-88858219D01*
X167996968Y-88858215D01*
X167996971Y-88858213D01*
X168049732Y-88785590D01*
X168117287Y-88692610D01*
X168210220Y-88510219D01*
X168273477Y-88315534D01*
X168273476Y-88315534D01*
X168273478Y-88315531D01*
X168305500Y-88113351D01*
X168305500Y-87908648D01*
X168273477Y-87706465D01*
X168210218Y-87511776D01*
X168176503Y-87445607D01*
X168117287Y-87329390D01*
X168109556Y-87318749D01*
X167996971Y-87163786D01*
X167852213Y-87019028D01*
X167686611Y-86898713D01*
X167593369Y-86851203D01*
X167542574Y-86803229D01*
X167525779Y-86735407D01*
X167548317Y-86669273D01*
X167593371Y-86630234D01*
X167686347Y-86582861D01*
X167851894Y-86462582D01*
X167851895Y-86462582D01*
X167996582Y-86317895D01*
X167996582Y-86317894D01*
X168116859Y-86152349D01*
X168209755Y-85970029D01*
X168272990Y-85775413D01*
X168281609Y-85721000D01*
X167438012Y-85721000D01*
X167470925Y-85663993D01*
X167505000Y-85536826D01*
X167505000Y-85405174D01*
X167470925Y-85278007D01*
X167438012Y-85221000D01*
X168281609Y-85221000D01*
X168272990Y-85166586D01*
X168209755Y-84971970D01*
X168116859Y-84789650D01*
X167996582Y-84624105D01*
X167996582Y-84624104D01*
X167851895Y-84479417D01*
X167686349Y-84359140D01*
X167593370Y-84311765D01*
X167542574Y-84263790D01*
X167525779Y-84195969D01*
X167548316Y-84129835D01*
X167593370Y-84090795D01*
X167686610Y-84043287D01*
X167707770Y-84027913D01*
X167852213Y-83922971D01*
X167852215Y-83922968D01*
X167852219Y-83922966D01*
X167996966Y-83778219D01*
X167996968Y-83778215D01*
X167996971Y-83778213D01*
X168049732Y-83705590D01*
X168117287Y-83612610D01*
X168210220Y-83430219D01*
X168273477Y-83235534D01*
X168273476Y-83235534D01*
X168273478Y-83235531D01*
X168305500Y-83033351D01*
X168305500Y-82828648D01*
X168273477Y-82626465D01*
X168210218Y-82431776D01*
X168176503Y-82365607D01*
X168117287Y-82249390D01*
X168109556Y-82238749D01*
X167996971Y-82083786D01*
X167852219Y-81939034D01*
X167804129Y-81904095D01*
X167804127Y-81904092D01*
X167686614Y-81818715D01*
X167666856Y-81808648D01*
X213964500Y-81808648D01*
X213964500Y-82013351D01*
X213996522Y-82215534D01*
X214059781Y-82410223D01*
X214152715Y-82592613D01*
X214273028Y-82758213D01*
X214417786Y-82902971D01*
X214572749Y-83015556D01*
X214583390Y-83023287D01*
X214674840Y-83069883D01*
X214676080Y-83070515D01*
X214726876Y-83118490D01*
X214743671Y-83186311D01*
X214721134Y-83252446D01*
X214676080Y-83291485D01*
X214583386Y-83338715D01*
X214417786Y-83459028D01*
X214273028Y-83603786D01*
X214152715Y-83769386D01*
X214059781Y-83951776D01*
X213996522Y-84146465D01*
X213964500Y-84348648D01*
X213964500Y-84553351D01*
X213996522Y-84755534D01*
X214059781Y-84950223D01*
X214152715Y-85132613D01*
X214273028Y-85298213D01*
X214417786Y-85442971D01*
X214546969Y-85536826D01*
X214583390Y-85563287D01*
X214674840Y-85609883D01*
X214676080Y-85610515D01*
X214726876Y-85658490D01*
X214743671Y-85726311D01*
X214721134Y-85792446D01*
X214676080Y-85831485D01*
X214583386Y-85878715D01*
X214417786Y-85999028D01*
X214273028Y-86143786D01*
X214152715Y-86309386D01*
X214059781Y-86491776D01*
X213996522Y-86686465D01*
X213964500Y-86888648D01*
X213964500Y-87093351D01*
X213996522Y-87295534D01*
X214059781Y-87490223D01*
X214152715Y-87672613D01*
X214273028Y-87838213D01*
X214417786Y-87982971D01*
X214572749Y-88095556D01*
X214583390Y-88103287D01*
X214674840Y-88149883D01*
X214676080Y-88150515D01*
X214726876Y-88198490D01*
X214743671Y-88266311D01*
X214721134Y-88332446D01*
X214676080Y-88371485D01*
X214583386Y-88418715D01*
X214417786Y-88539028D01*
X214273028Y-88683786D01*
X214152715Y-88849386D01*
X214059781Y-89031776D01*
X213996522Y-89226465D01*
X213964500Y-89428648D01*
X213964500Y-89633351D01*
X213996522Y-89835534D01*
X214059781Y-90030223D01*
X214152715Y-90212613D01*
X214273028Y-90378213D01*
X214417786Y-90522971D01*
X214572749Y-90635556D01*
X214583390Y-90643287D01*
X214674840Y-90689883D01*
X214676080Y-90690515D01*
X214726876Y-90738490D01*
X214743671Y-90806311D01*
X214721134Y-90872446D01*
X214676080Y-90911485D01*
X214583386Y-90958715D01*
X214417786Y-91079028D01*
X214273028Y-91223786D01*
X214152715Y-91389386D01*
X214059781Y-91571776D01*
X213996522Y-91766465D01*
X213964500Y-91968648D01*
X213964500Y-92173351D01*
X213996522Y-92375534D01*
X214059781Y-92570223D01*
X214152715Y-92752613D01*
X214273028Y-92918213D01*
X214417786Y-93062971D01*
X214572749Y-93175556D01*
X214583390Y-93183287D01*
X214674840Y-93229883D01*
X214676080Y-93230515D01*
X214726876Y-93278490D01*
X214743671Y-93346311D01*
X214721134Y-93412446D01*
X214676080Y-93451485D01*
X214583386Y-93498715D01*
X214417786Y-93619028D01*
X214273028Y-93763786D01*
X214152715Y-93929386D01*
X214059781Y-94111776D01*
X213996522Y-94306465D01*
X213964500Y-94508648D01*
X213964500Y-94713351D01*
X213996522Y-94915534D01*
X214059781Y-95110223D01*
X214152715Y-95292613D01*
X214273028Y-95458213D01*
X214417786Y-95602971D01*
X214572749Y-95715556D01*
X214583390Y-95723287D01*
X214674840Y-95769883D01*
X214676080Y-95770515D01*
X214726876Y-95818490D01*
X214743671Y-95886311D01*
X214721134Y-95952446D01*
X214676080Y-95991485D01*
X214583386Y-96038715D01*
X214417786Y-96159028D01*
X214273028Y-96303786D01*
X214152715Y-96469386D01*
X214059781Y-96651776D01*
X213996522Y-96846465D01*
X213964500Y-97048648D01*
X213964500Y-97253351D01*
X213996522Y-97455534D01*
X214059781Y-97650223D01*
X214152715Y-97832613D01*
X214273028Y-97998213D01*
X214417786Y-98142971D01*
X214572749Y-98255556D01*
X214583390Y-98263287D01*
X214674840Y-98309883D01*
X214676080Y-98310515D01*
X214726876Y-98358490D01*
X214743671Y-98426311D01*
X214721134Y-98492446D01*
X214676080Y-98531485D01*
X214583386Y-98578715D01*
X214417786Y-98699028D01*
X214273028Y-98843786D01*
X214152715Y-99009386D01*
X214059781Y-99191776D01*
X213996522Y-99386465D01*
X213964500Y-99588648D01*
X213964500Y-99793351D01*
X213996522Y-99995534D01*
X214059781Y-100190223D01*
X214152715Y-100372613D01*
X214273028Y-100538213D01*
X214417786Y-100682971D01*
X214572749Y-100795556D01*
X214583390Y-100803287D01*
X214674840Y-100849883D01*
X214676080Y-100850515D01*
X214726876Y-100898490D01*
X214743671Y-100966311D01*
X214721134Y-101032446D01*
X214676080Y-101071485D01*
X214583386Y-101118715D01*
X214417786Y-101239028D01*
X214273028Y-101383786D01*
X214152715Y-101549386D01*
X214059781Y-101731776D01*
X213996522Y-101926465D01*
X213964500Y-102128648D01*
X213964500Y-102333351D01*
X213996522Y-102535534D01*
X214059781Y-102730223D01*
X214152715Y-102912613D01*
X214273028Y-103078213D01*
X214417786Y-103222971D01*
X214572749Y-103335556D01*
X214583390Y-103343287D01*
X214674840Y-103389883D01*
X214676080Y-103390515D01*
X214726876Y-103438490D01*
X214743671Y-103506311D01*
X214721134Y-103572446D01*
X214676080Y-103611485D01*
X214583386Y-103658715D01*
X214417786Y-103779028D01*
X214273028Y-103923786D01*
X214152715Y-104089386D01*
X214059781Y-104271776D01*
X213996522Y-104466465D01*
X213964500Y-104668648D01*
X213964500Y-104873351D01*
X213996522Y-105075534D01*
X214059781Y-105270223D01*
X214152715Y-105452613D01*
X214273028Y-105618213D01*
X214417786Y-105762971D01*
X214572749Y-105875556D01*
X214583390Y-105883287D01*
X214699607Y-105942503D01*
X214765776Y-105976218D01*
X214765778Y-105976218D01*
X214765781Y-105976220D01*
X214870137Y-106010127D01*
X214960465Y-106039477D01*
X215061557Y-106055488D01*
X215162648Y-106071500D01*
X215162649Y-106071500D01*
X215367351Y-106071500D01*
X215367352Y-106071500D01*
X215569534Y-106039477D01*
X215764219Y-105976220D01*
X215946610Y-105883287D01*
X216039590Y-105815732D01*
X216112213Y-105762971D01*
X216112215Y-105762968D01*
X216112219Y-105762966D01*
X216256966Y-105618219D01*
X216256968Y-105618215D01*
X216256971Y-105618213D01*
X216309732Y-105545590D01*
X216377287Y-105452610D01*
X216470220Y-105270219D01*
X216533477Y-105075534D01*
X216565500Y-104873352D01*
X216565500Y-104668648D01*
X216533477Y-104466466D01*
X216470220Y-104271781D01*
X216470218Y-104271778D01*
X216470218Y-104271776D01*
X216436503Y-104205607D01*
X216377287Y-104089390D01*
X216369556Y-104078749D01*
X216256971Y-103923786D01*
X216112213Y-103779028D01*
X215946614Y-103658715D01*
X215940006Y-103655348D01*
X215853917Y-103611483D01*
X215803123Y-103563511D01*
X215786328Y-103495690D01*
X215808865Y-103429555D01*
X215853917Y-103390516D01*
X215946610Y-103343287D01*
X215967770Y-103327913D01*
X216112213Y-103222971D01*
X216112215Y-103222968D01*
X216112219Y-103222966D01*
X216256966Y-103078219D01*
X216256968Y-103078215D01*
X216256971Y-103078213D01*
X216309732Y-103005590D01*
X216377287Y-102912610D01*
X216470220Y-102730219D01*
X216533477Y-102535534D01*
X216565500Y-102333352D01*
X216565500Y-102128648D01*
X216533477Y-101926466D01*
X216470220Y-101731781D01*
X216470218Y-101731778D01*
X216470218Y-101731776D01*
X216436503Y-101665607D01*
X216377287Y-101549390D01*
X216369556Y-101538749D01*
X216256971Y-101383786D01*
X216112213Y-101239028D01*
X215946614Y-101118715D01*
X215940006Y-101115348D01*
X215853917Y-101071483D01*
X215803123Y-101023511D01*
X215786328Y-100955690D01*
X215808865Y-100889555D01*
X215853917Y-100850516D01*
X215946610Y-100803287D01*
X215967770Y-100787913D01*
X216112213Y-100682971D01*
X216112215Y-100682968D01*
X216112219Y-100682966D01*
X216256966Y-100538219D01*
X216256968Y-100538215D01*
X216256971Y-100538213D01*
X216309732Y-100465590D01*
X216377287Y-100372610D01*
X216470220Y-100190219D01*
X216533477Y-99995534D01*
X216565500Y-99793352D01*
X216565500Y-99588648D01*
X216533477Y-99386466D01*
X216470220Y-99191781D01*
X216470218Y-99191778D01*
X216470218Y-99191776D01*
X216436503Y-99125607D01*
X216377287Y-99009390D01*
X216369556Y-98998749D01*
X216256971Y-98843786D01*
X216112213Y-98699028D01*
X215946614Y-98578715D01*
X215940006Y-98575348D01*
X215853917Y-98531483D01*
X215803123Y-98483511D01*
X215786328Y-98415690D01*
X215808865Y-98349555D01*
X215853917Y-98310516D01*
X215946610Y-98263287D01*
X215967770Y-98247913D01*
X216112213Y-98142971D01*
X216112215Y-98142968D01*
X216112219Y-98142966D01*
X216256966Y-97998219D01*
X216256968Y-97998215D01*
X216256971Y-97998213D01*
X216309732Y-97925590D01*
X216377287Y-97832610D01*
X216470220Y-97650219D01*
X216533477Y-97455534D01*
X216565500Y-97253352D01*
X216565500Y-97048648D01*
X216537250Y-96870287D01*
X216533477Y-96846465D01*
X216470218Y-96651776D01*
X216436503Y-96585607D01*
X216377287Y-96469390D01*
X216355651Y-96439610D01*
X216256971Y-96303786D01*
X216112213Y-96159028D01*
X215946614Y-96038715D01*
X215940006Y-96035348D01*
X215853917Y-95991483D01*
X215803123Y-95943511D01*
X215786328Y-95875690D01*
X215808865Y-95809555D01*
X215853917Y-95770516D01*
X215946610Y-95723287D01*
X216039708Y-95655648D01*
X220187500Y-95655648D01*
X220187500Y-95860351D01*
X220219522Y-96062534D01*
X220282781Y-96257223D01*
X220375715Y-96439613D01*
X220496028Y-96605213D01*
X220640786Y-96749971D01*
X220773603Y-96846466D01*
X220806390Y-96870287D01*
X220913949Y-96925091D01*
X220988776Y-96963218D01*
X220988778Y-96963218D01*
X220988781Y-96963220D01*
X221093137Y-96997127D01*
X221183465Y-97026477D01*
X221284557Y-97042488D01*
X221385648Y-97058500D01*
X221385649Y-97058500D01*
X221590351Y-97058500D01*
X221590352Y-97058500D01*
X221792534Y-97026477D01*
X221987219Y-96963220D01*
X222169610Y-96870287D01*
X222262590Y-96802732D01*
X222335213Y-96749971D01*
X222335215Y-96749968D01*
X222335219Y-96749966D01*
X222479966Y-96605219D01*
X222479968Y-96605215D01*
X222479971Y-96605213D01*
X222532732Y-96532590D01*
X222600287Y-96439610D01*
X222693220Y-96257219D01*
X222756477Y-96062534D01*
X222788500Y-95860352D01*
X222788500Y-95655648D01*
X227807500Y-95655648D01*
X227807500Y-95860351D01*
X227839522Y-96062534D01*
X227902781Y-96257223D01*
X227995715Y-96439613D01*
X228116028Y-96605213D01*
X228260786Y-96749971D01*
X228393603Y-96846466D01*
X228426390Y-96870287D01*
X228533949Y-96925091D01*
X228608776Y-96963218D01*
X228608778Y-96963218D01*
X228608781Y-96963220D01*
X228713137Y-96997127D01*
X228803465Y-97026477D01*
X228904557Y-97042488D01*
X229005648Y-97058500D01*
X229005649Y-97058500D01*
X229210351Y-97058500D01*
X229210352Y-97058500D01*
X229412534Y-97026477D01*
X229607219Y-96963220D01*
X229789610Y-96870287D01*
X229882590Y-96802732D01*
X229955213Y-96749971D01*
X229955215Y-96749968D01*
X229955219Y-96749966D01*
X230099966Y-96605219D01*
X230099968Y-96605215D01*
X230099971Y-96605213D01*
X230152732Y-96532590D01*
X230220287Y-96439610D01*
X230313220Y-96257219D01*
X230376477Y-96062534D01*
X230408500Y-95860352D01*
X230408500Y-95655648D01*
X230377230Y-95458219D01*
X230376477Y-95453465D01*
X230347127Y-95363137D01*
X230313220Y-95258781D01*
X230313218Y-95258778D01*
X230313218Y-95258776D01*
X230279503Y-95192607D01*
X230220287Y-95076390D01*
X230212556Y-95065749D01*
X230099971Y-94910786D01*
X229955213Y-94766028D01*
X229789613Y-94645715D01*
X229789612Y-94645714D01*
X229789610Y-94645713D01*
X229732653Y-94616691D01*
X229607223Y-94552781D01*
X229412534Y-94489522D01*
X229237995Y-94461878D01*
X229210352Y-94457500D01*
X229005648Y-94457500D01*
X228981329Y-94461351D01*
X228803465Y-94489522D01*
X228608776Y-94552781D01*
X228426386Y-94645715D01*
X228260786Y-94766028D01*
X228116028Y-94910786D01*
X227995715Y-95076386D01*
X227902781Y-95258776D01*
X227839522Y-95453465D01*
X227807500Y-95655648D01*
X222788500Y-95655648D01*
X222757230Y-95458219D01*
X222756477Y-95453465D01*
X222727127Y-95363137D01*
X222693220Y-95258781D01*
X222693218Y-95258778D01*
X222693218Y-95258776D01*
X222659503Y-95192607D01*
X222600287Y-95076390D01*
X222592556Y-95065749D01*
X222479971Y-94910786D01*
X222335213Y-94766028D01*
X222169613Y-94645715D01*
X222169612Y-94645714D01*
X222169610Y-94645713D01*
X222112653Y-94616691D01*
X221987223Y-94552781D01*
X221792534Y-94489522D01*
X221617995Y-94461878D01*
X221590352Y-94457500D01*
X221385648Y-94457500D01*
X221361329Y-94461351D01*
X221183465Y-94489522D01*
X220988776Y-94552781D01*
X220806386Y-94645715D01*
X220640786Y-94766028D01*
X220496028Y-94910786D01*
X220375715Y-95076386D01*
X220282781Y-95258776D01*
X220219522Y-95453465D01*
X220187500Y-95655648D01*
X216039708Y-95655648D01*
X216112213Y-95602971D01*
X216112215Y-95602968D01*
X216112219Y-95602966D01*
X216256966Y-95458219D01*
X216256968Y-95458215D01*
X216256971Y-95458213D01*
X216309732Y-95385590D01*
X216377287Y-95292610D01*
X216470220Y-95110219D01*
X216533477Y-94915534D01*
X216565500Y-94713352D01*
X216565500Y-94508648D01*
X216538299Y-94336908D01*
X216533477Y-94306465D01*
X216499952Y-94203287D01*
X216470220Y-94111781D01*
X216470218Y-94111778D01*
X216470218Y-94111776D01*
X216436503Y-94045607D01*
X216377287Y-93929390D01*
X216369556Y-93918749D01*
X216256971Y-93763786D01*
X216112213Y-93619028D01*
X215946614Y-93498715D01*
X215940006Y-93495348D01*
X215853917Y-93451483D01*
X215803123Y-93403511D01*
X215786328Y-93335690D01*
X215808865Y-93269555D01*
X215853917Y-93230516D01*
X215946610Y-93183287D01*
X215967770Y-93167913D01*
X216112213Y-93062971D01*
X216112215Y-93062968D01*
X216112219Y-93062966D01*
X216256966Y-92918219D01*
X216256968Y-92918215D01*
X216256971Y-92918213D01*
X216352690Y-92786465D01*
X216377287Y-92752610D01*
X216470220Y-92570219D01*
X216533477Y-92375534D01*
X216565500Y-92173352D01*
X216565500Y-91968648D01*
X216542356Y-91822523D01*
X216533477Y-91766465D01*
X216470218Y-91571776D01*
X216436503Y-91505607D01*
X216377287Y-91389390D01*
X216369556Y-91378749D01*
X216256971Y-91223786D01*
X216112213Y-91079028D01*
X215946614Y-90958715D01*
X215940006Y-90955348D01*
X215853917Y-90911483D01*
X215803123Y-90863511D01*
X215786328Y-90795690D01*
X215808865Y-90729555D01*
X215853917Y-90690516D01*
X215946610Y-90643287D01*
X215967770Y-90627913D01*
X216112213Y-90522971D01*
X216112215Y-90522968D01*
X216112219Y-90522966D01*
X216256966Y-90378219D01*
X216256968Y-90378215D01*
X216256971Y-90378213D01*
X216352690Y-90246465D01*
X216377287Y-90212610D01*
X216470220Y-90030219D01*
X216533477Y-89835534D01*
X216565500Y-89633352D01*
X216565500Y-89428648D01*
X216542356Y-89282523D01*
X216533477Y-89226465D01*
X216470218Y-89031776D01*
X216436503Y-88965607D01*
X216377287Y-88849390D01*
X216369556Y-88838749D01*
X216256971Y-88683786D01*
X216112213Y-88539028D01*
X215946614Y-88418715D01*
X215940006Y-88415348D01*
X215853917Y-88371483D01*
X215803123Y-88323511D01*
X215786328Y-88255690D01*
X215808865Y-88189555D01*
X215853917Y-88150516D01*
X215946610Y-88103287D01*
X215967770Y-88087913D01*
X216112213Y-87982971D01*
X216112215Y-87982968D01*
X216112219Y-87982966D01*
X216256966Y-87838219D01*
X216256968Y-87838215D01*
X216256971Y-87838213D01*
X216352690Y-87706465D01*
X216377287Y-87672610D01*
X216470220Y-87490219D01*
X216533477Y-87295534D01*
X216565500Y-87093352D01*
X216565500Y-86888648D01*
X216533477Y-86686466D01*
X216470220Y-86491781D01*
X216470218Y-86491778D01*
X216470218Y-86491776D01*
X216436503Y-86425607D01*
X216377287Y-86309390D01*
X216369556Y-86298749D01*
X216256971Y-86143786D01*
X216112213Y-85999028D01*
X215946614Y-85878715D01*
X215931667Y-85871099D01*
X215853917Y-85831483D01*
X215803123Y-85783511D01*
X215786328Y-85715690D01*
X215808865Y-85649555D01*
X215853917Y-85610516D01*
X215946610Y-85563287D01*
X215983031Y-85536826D01*
X216112213Y-85442971D01*
X216112215Y-85442968D01*
X216112219Y-85442966D01*
X216256966Y-85298219D01*
X216256968Y-85298215D01*
X216256971Y-85298213D01*
X216354486Y-85163993D01*
X216377287Y-85132610D01*
X216470220Y-84950219D01*
X216533477Y-84755534D01*
X216565500Y-84553352D01*
X216565500Y-84348648D01*
X216533477Y-84146466D01*
X216530976Y-84138770D01*
X216470218Y-83951776D01*
X216436503Y-83885607D01*
X216377287Y-83769390D01*
X216369556Y-83758749D01*
X216256971Y-83603786D01*
X216112213Y-83459028D01*
X215946614Y-83338715D01*
X215940006Y-83335348D01*
X215853917Y-83291483D01*
X215803123Y-83243511D01*
X215786328Y-83175690D01*
X215808865Y-83109555D01*
X215853917Y-83070516D01*
X215946610Y-83023287D01*
X215967770Y-83007913D01*
X216112213Y-82902971D01*
X216112215Y-82902968D01*
X216112219Y-82902966D01*
X216256966Y-82758219D01*
X216256968Y-82758215D01*
X216256971Y-82758213D01*
X216352690Y-82626465D01*
X216377287Y-82592610D01*
X216470220Y-82410219D01*
X216533477Y-82215534D01*
X216565500Y-82013352D01*
X216565500Y-81808648D01*
X216542356Y-81662523D01*
X216533477Y-81606465D01*
X216470218Y-81411776D01*
X216436503Y-81345607D01*
X216377287Y-81229390D01*
X216369556Y-81218749D01*
X216256971Y-81063786D01*
X216112213Y-80919028D01*
X215946613Y-80798715D01*
X215946612Y-80798714D01*
X215946610Y-80798713D01*
X215889653Y-80769691D01*
X215764223Y-80705781D01*
X215569534Y-80642522D01*
X215394995Y-80614878D01*
X215367352Y-80610500D01*
X215162648Y-80610500D01*
X215138329Y-80614351D01*
X214960465Y-80642522D01*
X214765776Y-80705781D01*
X214583386Y-80798715D01*
X214417786Y-80919028D01*
X214273028Y-81063786D01*
X214152715Y-81229386D01*
X214059781Y-81411776D01*
X213996522Y-81606465D01*
X213964500Y-81808648D01*
X167666856Y-81808648D01*
X167593917Y-81771483D01*
X167543123Y-81723511D01*
X167526328Y-81655690D01*
X167548865Y-81589555D01*
X167593917Y-81550516D01*
X167686610Y-81503287D01*
X167707770Y-81487913D01*
X167852213Y-81382971D01*
X167852215Y-81382968D01*
X167852219Y-81382966D01*
X167996966Y-81238219D01*
X167996968Y-81238215D01*
X167996971Y-81238213D01*
X168049732Y-81165590D01*
X168117287Y-81072610D01*
X168210220Y-80890219D01*
X168273477Y-80695534D01*
X168273476Y-80695534D01*
X168273478Y-80695531D01*
X168305500Y-80493351D01*
X168305500Y-80288648D01*
X168273477Y-80086465D01*
X168210218Y-79891776D01*
X168176503Y-79825607D01*
X168117287Y-79709390D01*
X168109556Y-79698749D01*
X167996971Y-79543786D01*
X167852213Y-79399028D01*
X167686614Y-79278715D01*
X167680006Y-79275348D01*
X167593917Y-79231483D01*
X167543123Y-79183511D01*
X167526328Y-79115690D01*
X167548865Y-79049555D01*
X167593917Y-79010516D01*
X167686610Y-78963287D01*
X167707770Y-78947913D01*
X167852213Y-78842971D01*
X167852215Y-78842968D01*
X167852219Y-78842966D01*
X167996966Y-78698219D01*
X167996968Y-78698215D01*
X167996971Y-78698213D01*
X168049732Y-78625590D01*
X168117287Y-78532610D01*
X168210220Y-78350219D01*
X168273477Y-78155534D01*
X168305500Y-77953352D01*
X168305500Y-77748648D01*
X168273477Y-77546466D01*
X168210220Y-77351781D01*
X168210218Y-77351778D01*
X168210218Y-77351776D01*
X168176503Y-77285607D01*
X168117287Y-77169390D01*
X168109556Y-77158749D01*
X167996971Y-77003786D01*
X167852213Y-76859028D01*
X167686613Y-76738715D01*
X167686612Y-76738714D01*
X167686610Y-76738713D01*
X167629653Y-76709691D01*
X167504223Y-76645781D01*
X167309534Y-76582522D01*
X167134995Y-76554878D01*
X167107352Y-76550500D01*
X166902648Y-76550500D01*
X166878329Y-76554351D01*
X166700465Y-76582522D01*
X166505776Y-76645781D01*
X166323386Y-76738715D01*
X166157786Y-76859028D01*
X166013028Y-77003786D01*
X165892715Y-77169386D01*
X165799781Y-77351776D01*
X165736522Y-77546465D01*
X165704500Y-77748648D01*
X123817500Y-77748648D01*
X123817500Y-70251713D01*
X131491500Y-70251713D01*
X131491500Y-70464287D01*
X131524754Y-70674243D01*
X131541816Y-70726755D01*
X131590444Y-70876414D01*
X131686951Y-71065820D01*
X131811890Y-71237786D01*
X131962213Y-71388109D01*
X132134182Y-71513050D01*
X132142946Y-71517516D01*
X132193742Y-71565491D01*
X132210536Y-71633312D01*
X132187998Y-71699447D01*
X132142946Y-71738484D01*
X132134182Y-71742949D01*
X131962213Y-71867890D01*
X131811890Y-72018213D01*
X131686951Y-72190179D01*
X131590444Y-72379585D01*
X131524753Y-72581760D01*
X131495522Y-72766318D01*
X131491500Y-72791713D01*
X131491500Y-73004287D01*
X131524754Y-73214243D01*
X131541816Y-73266755D01*
X131590444Y-73416414D01*
X131686951Y-73605820D01*
X131811890Y-73777786D01*
X131962213Y-73928109D01*
X132134179Y-74053048D01*
X132134181Y-74053049D01*
X132134184Y-74053051D01*
X132323588Y-74149557D01*
X132525757Y-74215246D01*
X132735713Y-74248500D01*
X132735714Y-74248500D01*
X132948286Y-74248500D01*
X132948287Y-74248500D01*
X133158243Y-74215246D01*
X133360412Y-74149557D01*
X133549816Y-74053051D01*
X133573712Y-74035690D01*
X133721786Y-73928109D01*
X133721788Y-73928106D01*
X133721792Y-73928104D01*
X133872104Y-73777792D01*
X133872106Y-73777788D01*
X133872109Y-73777786D01*
X133997048Y-73605820D01*
X133997047Y-73605820D01*
X133997051Y-73605816D01*
X134093557Y-73416412D01*
X134128150Y-73309945D01*
X145083500Y-73309945D01*
X145083500Y-73502054D01*
X145113553Y-73691802D01*
X145172916Y-73874506D01*
X145225899Y-73978490D01*
X145260135Y-74045681D01*
X145373055Y-74201102D01*
X145508898Y-74336945D01*
X145664319Y-74449865D01*
X145835491Y-74537082D01*
X145835493Y-74537083D01*
X145926845Y-74566764D01*
X146018199Y-74596447D01*
X146207945Y-74626500D01*
X146207946Y-74626500D01*
X146400054Y-74626500D01*
X146400055Y-74626500D01*
X146589801Y-74596447D01*
X146772509Y-74537082D01*
X146943681Y-74449865D01*
X147099102Y-74336945D01*
X147234945Y-74201102D01*
X147347865Y-74045681D01*
X147435082Y-73874509D01*
X147494447Y-73691801D01*
X147524500Y-73502055D01*
X147524500Y-73309945D01*
X147494447Y-73120199D01*
X147435082Y-72937491D01*
X147347865Y-72766319D01*
X147234945Y-72610898D01*
X147099102Y-72475055D01*
X146943681Y-72362135D01*
X146772506Y-72274916D01*
X146589802Y-72215553D01*
X146429628Y-72190184D01*
X146400055Y-72185500D01*
X146207945Y-72185500D01*
X146178372Y-72190184D01*
X146018197Y-72215553D01*
X145835493Y-72274916D01*
X145664318Y-72362135D01*
X145575645Y-72426560D01*
X145508898Y-72475055D01*
X145508896Y-72475057D01*
X145508895Y-72475057D01*
X145373057Y-72610895D01*
X145373057Y-72610896D01*
X145373055Y-72610898D01*
X145331097Y-72668648D01*
X145260135Y-72766318D01*
X145172916Y-72937493D01*
X145113553Y-73120197D01*
X145083500Y-73309945D01*
X134128150Y-73309945D01*
X134159246Y-73214243D01*
X134192500Y-73004287D01*
X134192500Y-72791713D01*
X134159246Y-72581757D01*
X134093557Y-72379588D01*
X133997051Y-72190184D01*
X133997049Y-72190181D01*
X133997048Y-72190179D01*
X133872109Y-72018213D01*
X133721786Y-71867890D01*
X133549820Y-71742951D01*
X133549115Y-71742591D01*
X133541054Y-71738485D01*
X133490259Y-71690512D01*
X133473463Y-71622692D01*
X133495999Y-71556556D01*
X133541054Y-71517515D01*
X133549816Y-71513051D01*
X133573712Y-71495690D01*
X133721786Y-71388109D01*
X133721788Y-71388106D01*
X133721792Y-71388104D01*
X133872104Y-71237792D01*
X133872106Y-71237788D01*
X133872109Y-71237786D01*
X133997048Y-71065820D01*
X133997047Y-71065820D01*
X133997051Y-71065816D01*
X134093557Y-70876412D01*
X134128150Y-70769945D01*
X142543500Y-70769945D01*
X142543500Y-70962054D01*
X142573553Y-71151802D01*
X142632916Y-71334506D01*
X142685899Y-71438490D01*
X142720135Y-71505681D01*
X142833055Y-71661102D01*
X142968898Y-71796945D01*
X143124319Y-71909865D01*
X143295491Y-71997082D01*
X143295493Y-71997083D01*
X143360526Y-72018213D01*
X143478199Y-72056447D01*
X143667945Y-72086500D01*
X143667946Y-72086500D01*
X143860054Y-72086500D01*
X143860055Y-72086500D01*
X144049801Y-72056447D01*
X144232509Y-71997082D01*
X144403681Y-71909865D01*
X144559102Y-71796945D01*
X144694945Y-71661102D01*
X144807865Y-71505681D01*
X144895082Y-71334509D01*
X144954447Y-71151801D01*
X144984500Y-70962055D01*
X144984500Y-70769945D01*
X144954447Y-70580199D01*
X144895082Y-70397491D01*
X144807865Y-70226319D01*
X144694945Y-70070898D01*
X144559102Y-69935055D01*
X144403681Y-69822135D01*
X144232506Y-69734916D01*
X144049802Y-69675553D01*
X143889628Y-69650184D01*
X143860055Y-69645500D01*
X143667945Y-69645500D01*
X143638372Y-69650184D01*
X143478197Y-69675553D01*
X143295493Y-69734916D01*
X143124318Y-69822135D01*
X143035645Y-69886560D01*
X142968898Y-69935055D01*
X142968896Y-69935057D01*
X142968895Y-69935057D01*
X142833057Y-70070895D01*
X142833057Y-70070896D01*
X142833055Y-70070898D01*
X142791097Y-70128648D01*
X142720135Y-70226318D01*
X142632916Y-70397493D01*
X142573553Y-70580197D01*
X142543500Y-70769945D01*
X134128150Y-70769945D01*
X134159246Y-70674243D01*
X134192500Y-70464287D01*
X134192500Y-70251713D01*
X134159246Y-70041757D01*
X134093557Y-69839588D01*
X133997051Y-69650184D01*
X133997049Y-69650181D01*
X133997048Y-69650179D01*
X133872109Y-69478213D01*
X133758181Y-69364285D01*
X133724696Y-69302962D01*
X133729680Y-69233270D01*
X133771552Y-69177337D01*
X133802529Y-69160422D01*
X133934086Y-69111354D01*
X133934093Y-69111350D01*
X134049187Y-69025190D01*
X134049190Y-69025187D01*
X134135350Y-68910093D01*
X134135354Y-68910086D01*
X134185596Y-68775379D01*
X134185598Y-68775372D01*
X134191999Y-68715844D01*
X134192000Y-68715827D01*
X134192000Y-68229984D01*
X145084000Y-68229984D01*
X145084000Y-68422015D01*
X145114040Y-68611684D01*
X145173383Y-68794321D01*
X145260561Y-68965415D01*
X145281798Y-68994646D01*
X145904000Y-68372445D01*
X145904000Y-68378661D01*
X145931259Y-68480394D01*
X145983920Y-68571606D01*
X146058394Y-68646080D01*
X146149606Y-68698741D01*
X146251339Y-68726000D01*
X146257554Y-68726000D01*
X145635351Y-69348200D01*
X145635352Y-69348201D01*
X145664577Y-69369434D01*
X145835678Y-69456616D01*
X146018315Y-69515959D01*
X146207985Y-69546000D01*
X146400015Y-69546000D01*
X146589684Y-69515959D01*
X146772321Y-69456616D01*
X146943419Y-69369436D01*
X146972646Y-69348201D01*
X146972646Y-69348200D01*
X146350447Y-68726000D01*
X146356661Y-68726000D01*
X146458394Y-68698741D01*
X146549606Y-68646080D01*
X146624080Y-68571606D01*
X146676741Y-68480394D01*
X146704000Y-68378661D01*
X146704000Y-68372446D01*
X147326200Y-68994646D01*
X147326201Y-68994646D01*
X147347436Y-68965419D01*
X147434616Y-68794321D01*
X147493959Y-68611684D01*
X147524000Y-68422015D01*
X147524000Y-68229984D01*
X147493959Y-68040315D01*
X147434616Y-67857678D01*
X147347434Y-67686577D01*
X147326201Y-67657352D01*
X147326200Y-67657351D01*
X146704000Y-68279552D01*
X146704000Y-68273339D01*
X146676741Y-68171606D01*
X146624080Y-68080394D01*
X146549606Y-68005920D01*
X146458394Y-67953259D01*
X146356661Y-67926000D01*
X146350447Y-67926000D01*
X146972646Y-67303798D01*
X146943415Y-67282561D01*
X146772321Y-67195383D01*
X146589684Y-67136040D01*
X146400015Y-67106000D01*
X146207985Y-67106000D01*
X146018315Y-67136040D01*
X145835678Y-67195383D01*
X145664578Y-67282564D01*
X145635352Y-67303798D01*
X145635351Y-67303798D01*
X146257554Y-67926000D01*
X146251339Y-67926000D01*
X146149606Y-67953259D01*
X146058394Y-68005920D01*
X145983920Y-68080394D01*
X145931259Y-68171606D01*
X145904000Y-68273339D01*
X145904000Y-68279553D01*
X145281798Y-67657351D01*
X145281798Y-67657352D01*
X145260564Y-67686578D01*
X145173383Y-67857678D01*
X145114040Y-68040315D01*
X145084000Y-68229984D01*
X134192000Y-68229984D01*
X134192000Y-68068000D01*
X133275012Y-68068000D01*
X133307925Y-68010993D01*
X133342000Y-67883826D01*
X133342000Y-67752174D01*
X133307925Y-67625007D01*
X133275012Y-67568000D01*
X134192000Y-67568000D01*
X134192000Y-66920172D01*
X134191999Y-66920155D01*
X134185598Y-66860627D01*
X134185596Y-66860620D01*
X134135354Y-66725913D01*
X134135350Y-66725906D01*
X134049190Y-66610812D01*
X134049187Y-66610809D01*
X133934093Y-66524649D01*
X133934086Y-66524645D01*
X133799379Y-66474403D01*
X133799372Y-66474401D01*
X133739844Y-66468000D01*
X133092000Y-66468000D01*
X133092000Y-67384988D01*
X133034993Y-67352075D01*
X132907826Y-67318000D01*
X132776174Y-67318000D01*
X132649007Y-67352075D01*
X132592000Y-67384988D01*
X132592000Y-66468000D01*
X131944155Y-66468000D01*
X131884627Y-66474401D01*
X131884620Y-66474403D01*
X131749913Y-66524645D01*
X131749906Y-66524649D01*
X131634812Y-66610809D01*
X131634809Y-66610812D01*
X131548649Y-66725906D01*
X131548645Y-66725913D01*
X131498403Y-66860620D01*
X131498401Y-66860627D01*
X131492000Y-66920155D01*
X131492000Y-67568000D01*
X132408988Y-67568000D01*
X132376075Y-67625007D01*
X132342000Y-67752174D01*
X132342000Y-67883826D01*
X132376075Y-68010993D01*
X132408988Y-68068000D01*
X131492000Y-68068000D01*
X131492000Y-68715844D01*
X131498401Y-68775372D01*
X131498403Y-68775379D01*
X131548645Y-68910086D01*
X131548649Y-68910093D01*
X131634809Y-69025187D01*
X131634812Y-69025190D01*
X131749906Y-69111350D01*
X131749913Y-69111354D01*
X131881470Y-69160422D01*
X131937404Y-69202293D01*
X131961821Y-69267758D01*
X131946969Y-69336031D01*
X131925819Y-69364285D01*
X131811889Y-69478215D01*
X131686951Y-69650179D01*
X131590444Y-69839585D01*
X131524753Y-70041760D01*
X131495522Y-70226318D01*
X131491500Y-70251713D01*
X123817500Y-70251713D01*
X123817500Y-57551713D01*
X131999500Y-57551713D01*
X131999500Y-57764286D01*
X132012384Y-57845636D01*
X132032754Y-57974243D01*
X132090996Y-58153494D01*
X132098444Y-58176414D01*
X132194951Y-58365820D01*
X132319890Y-58537786D01*
X132470213Y-58688109D01*
X132642182Y-58813050D01*
X132650946Y-58817516D01*
X132701742Y-58865491D01*
X132718536Y-58933312D01*
X132695998Y-58999447D01*
X132650946Y-59038484D01*
X132642182Y-59042949D01*
X132470213Y-59167890D01*
X132319890Y-59318213D01*
X132194951Y-59490179D01*
X132098444Y-59679585D01*
X132032753Y-59881760D01*
X131999500Y-60091713D01*
X131999500Y-60304286D01*
X132032753Y-60514239D01*
X132098444Y-60716414D01*
X132194951Y-60905820D01*
X132319890Y-61077786D01*
X132470213Y-61228109D01*
X132642179Y-61353048D01*
X132642181Y-61353049D01*
X132642184Y-61353051D01*
X132831588Y-61449557D01*
X133033757Y-61515246D01*
X133243713Y-61548500D01*
X133243714Y-61548500D01*
X133456286Y-61548500D01*
X133456287Y-61548500D01*
X133666243Y-61515246D01*
X133868412Y-61449557D01*
X134057816Y-61353051D01*
X134081712Y-61335690D01*
X134229786Y-61228109D01*
X134229788Y-61228106D01*
X134229792Y-61228104D01*
X134380104Y-61077792D01*
X134380106Y-61077788D01*
X134380109Y-61077786D01*
X134505048Y-60905820D01*
X134505047Y-60905820D01*
X134505051Y-60905816D01*
X134601557Y-60716412D01*
X134667246Y-60514243D01*
X134700500Y-60304287D01*
X134700500Y-60091713D01*
X134681008Y-59968648D01*
X165704500Y-59968648D01*
X165704500Y-60173351D01*
X165736522Y-60375534D01*
X165799781Y-60570223D01*
X165892715Y-60752613D01*
X166013028Y-60918213D01*
X166157786Y-61062971D01*
X166312749Y-61175556D01*
X166323390Y-61183287D01*
X166411348Y-61228104D01*
X166416080Y-61230515D01*
X166466876Y-61278490D01*
X166483671Y-61346311D01*
X166461134Y-61412446D01*
X166416080Y-61451485D01*
X166323386Y-61498715D01*
X166157786Y-61619028D01*
X166013028Y-61763786D01*
X165892715Y-61929386D01*
X165799781Y-62111776D01*
X165736522Y-62306465D01*
X165704500Y-62508648D01*
X165704500Y-62713351D01*
X165736522Y-62915534D01*
X165799781Y-63110223D01*
X165892715Y-63292613D01*
X166013028Y-63458213D01*
X166157786Y-63602971D01*
X166312749Y-63715556D01*
X166323390Y-63723287D01*
X166414840Y-63769883D01*
X166416080Y-63770515D01*
X166466876Y-63818490D01*
X166483671Y-63886311D01*
X166461134Y-63952446D01*
X166416080Y-63991485D01*
X166323386Y-64038715D01*
X166157786Y-64159028D01*
X166013028Y-64303786D01*
X165892715Y-64469386D01*
X165799781Y-64651776D01*
X165736522Y-64846465D01*
X165704500Y-65048648D01*
X165704500Y-65253351D01*
X165736522Y-65455534D01*
X165799781Y-65650223D01*
X165892715Y-65832613D01*
X166013028Y-65998213D01*
X166157786Y-66142971D01*
X166312749Y-66255556D01*
X166323390Y-66263287D01*
X166414840Y-66309883D01*
X166416080Y-66310515D01*
X166466876Y-66358490D01*
X166483671Y-66426311D01*
X166461134Y-66492446D01*
X166416080Y-66531485D01*
X166323386Y-66578715D01*
X166157786Y-66699028D01*
X166013028Y-66843786D01*
X165892715Y-67009386D01*
X165799781Y-67191776D01*
X165736522Y-67386465D01*
X165704500Y-67588648D01*
X165704500Y-67793351D01*
X165736522Y-67995534D01*
X165799781Y-68190223D01*
X165863691Y-68315653D01*
X165868963Y-68325999D01*
X165892715Y-68372613D01*
X166013028Y-68538213D01*
X166157786Y-68682971D01*
X166311049Y-68794321D01*
X166323390Y-68803287D01*
X166414840Y-68849883D01*
X166416080Y-68850515D01*
X166466876Y-68898490D01*
X166483671Y-68966311D01*
X166461134Y-69032446D01*
X166416080Y-69071485D01*
X166323386Y-69118715D01*
X166157786Y-69239028D01*
X166013028Y-69383786D01*
X165892715Y-69549386D01*
X165799781Y-69731776D01*
X165736522Y-69926465D01*
X165704500Y-70128648D01*
X165704500Y-70333351D01*
X165736522Y-70535534D01*
X165799781Y-70730223D01*
X165892715Y-70912613D01*
X166013028Y-71078213D01*
X166157786Y-71222971D01*
X166311304Y-71334506D01*
X166323390Y-71343287D01*
X166411348Y-71388104D01*
X166416080Y-71390515D01*
X166466876Y-71438490D01*
X166483671Y-71506311D01*
X166461134Y-71572446D01*
X166416080Y-71611485D01*
X166323386Y-71658715D01*
X166157786Y-71779028D01*
X166013028Y-71923786D01*
X165892715Y-72089386D01*
X165799781Y-72271776D01*
X165736522Y-72466465D01*
X165704500Y-72668648D01*
X165704500Y-72873351D01*
X165736522Y-73075534D01*
X165799781Y-73270223D01*
X165892715Y-73452613D01*
X166013028Y-73618213D01*
X166157786Y-73762971D01*
X166311304Y-73874506D01*
X166323390Y-73883287D01*
X166411358Y-73928109D01*
X166505776Y-73976218D01*
X166505778Y-73976218D01*
X166505781Y-73976220D01*
X166610137Y-74010127D01*
X166700465Y-74039477D01*
X166786167Y-74053051D01*
X166902648Y-74071500D01*
X166902649Y-74071500D01*
X167107351Y-74071500D01*
X167107352Y-74071500D01*
X167309534Y-74039477D01*
X167504219Y-73976220D01*
X167686610Y-73883287D01*
X167831821Y-73777786D01*
X167852213Y-73762971D01*
X167852215Y-73762968D01*
X167852219Y-73762966D01*
X167996966Y-73618219D01*
X167996968Y-73618215D01*
X167996971Y-73618213D01*
X168081364Y-73502054D01*
X168117287Y-73452610D01*
X168210220Y-73270219D01*
X168273477Y-73075534D01*
X168305500Y-72873352D01*
X168305500Y-72668648D01*
X168274838Y-72475057D01*
X168273477Y-72466465D01*
X168211239Y-72274918D01*
X168210220Y-72271781D01*
X168210218Y-72271778D01*
X168210218Y-72271776D01*
X168168642Y-72190179D01*
X168117287Y-72089390D01*
X168093352Y-72056446D01*
X167996971Y-71923786D01*
X167852213Y-71779028D01*
X167686614Y-71658715D01*
X167662529Y-71646443D01*
X167593917Y-71611483D01*
X167543123Y-71563511D01*
X167526328Y-71495690D01*
X167548865Y-71429555D01*
X167593917Y-71390516D01*
X167686610Y-71343287D01*
X167831813Y-71237792D01*
X167852213Y-71222971D01*
X167852215Y-71222968D01*
X167852219Y-71222966D01*
X167996966Y-71078219D01*
X167996968Y-71078215D01*
X167996971Y-71078213D01*
X168081364Y-70962054D01*
X168117287Y-70912610D01*
X168210220Y-70730219D01*
X168273477Y-70535534D01*
X168305500Y-70333352D01*
X168305500Y-70128648D01*
X168274838Y-69935057D01*
X168273477Y-69926465D01*
X168211239Y-69734918D01*
X168210220Y-69731781D01*
X168210218Y-69731778D01*
X168210218Y-69731776D01*
X168168642Y-69650179D01*
X168117287Y-69549390D01*
X168065576Y-69478215D01*
X167996971Y-69383786D01*
X167852213Y-69239028D01*
X167686614Y-69118715D01*
X167662529Y-69106443D01*
X167593917Y-69071483D01*
X167543123Y-69023511D01*
X167526328Y-68955690D01*
X167548865Y-68889555D01*
X167593917Y-68850516D01*
X167686610Y-68803287D01*
X167725032Y-68775372D01*
X167852213Y-68682971D01*
X167852215Y-68682968D01*
X167852219Y-68682966D01*
X167996966Y-68538219D01*
X167996968Y-68538215D01*
X167996971Y-68538213D01*
X168081392Y-68422015D01*
X168117287Y-68372610D01*
X168210220Y-68190219D01*
X168273477Y-67995534D01*
X168305500Y-67793352D01*
X168305500Y-67588648D01*
X168302230Y-67568000D01*
X168273477Y-67386465D01*
X168210218Y-67191776D01*
X168166512Y-67106000D01*
X168117287Y-67009390D01*
X168109556Y-66998749D01*
X167996971Y-66843786D01*
X167852213Y-66699028D01*
X167686614Y-66578715D01*
X167680006Y-66575348D01*
X167593917Y-66531483D01*
X167543123Y-66483511D01*
X167526328Y-66415690D01*
X167548865Y-66349555D01*
X167593917Y-66310516D01*
X167686610Y-66263287D01*
X167707770Y-66247913D01*
X167852213Y-66142971D01*
X167852215Y-66142968D01*
X167852219Y-66142966D01*
X167996966Y-65998219D01*
X167996968Y-65998215D01*
X167996971Y-65998213D01*
X168049732Y-65925590D01*
X168117287Y-65832610D01*
X168210220Y-65650219D01*
X168273477Y-65455534D01*
X168305500Y-65253352D01*
X168305500Y-65048648D01*
X168273477Y-64846466D01*
X168210220Y-64651781D01*
X168210218Y-64651778D01*
X168210218Y-64651776D01*
X168176503Y-64585607D01*
X168117287Y-64469390D01*
X168109556Y-64458749D01*
X167996971Y-64303786D01*
X167852213Y-64159028D01*
X167686614Y-64038715D01*
X167680006Y-64035348D01*
X167593917Y-63991483D01*
X167543123Y-63943511D01*
X167526328Y-63875690D01*
X167548865Y-63809555D01*
X167593917Y-63770516D01*
X167686610Y-63723287D01*
X167707770Y-63707913D01*
X167852213Y-63602971D01*
X167852215Y-63602968D01*
X167852219Y-63602966D01*
X167996966Y-63458219D01*
X167996968Y-63458215D01*
X167996971Y-63458213D01*
X168049732Y-63385590D01*
X168117287Y-63292610D01*
X168210220Y-63110219D01*
X168273477Y-62915534D01*
X168305500Y-62713352D01*
X168305500Y-62508648D01*
X168273477Y-62306466D01*
X168210220Y-62111781D01*
X168210218Y-62111778D01*
X168210218Y-62111776D01*
X168176503Y-62045607D01*
X168117287Y-61929390D01*
X168109556Y-61918749D01*
X167996971Y-61763786D01*
X167852213Y-61619028D01*
X167686614Y-61498715D01*
X167680006Y-61495348D01*
X167593917Y-61451483D01*
X167543123Y-61403511D01*
X167526328Y-61335690D01*
X167548865Y-61269555D01*
X167593917Y-61230516D01*
X167686610Y-61183287D01*
X167831813Y-61077792D01*
X167852213Y-61062971D01*
X167852215Y-61062968D01*
X167852219Y-61062966D01*
X167996966Y-60918219D01*
X167996968Y-60918215D01*
X167996971Y-60918213D01*
X168049732Y-60845590D01*
X168117287Y-60752610D01*
X168210220Y-60570219D01*
X168273477Y-60375534D01*
X168305500Y-60173352D01*
X168305500Y-59968648D01*
X213964500Y-59968648D01*
X213964500Y-60173351D01*
X213996522Y-60375534D01*
X214059781Y-60570223D01*
X214152715Y-60752613D01*
X214273028Y-60918213D01*
X214417786Y-61062971D01*
X214572749Y-61175556D01*
X214583390Y-61183287D01*
X214671348Y-61228104D01*
X214676080Y-61230515D01*
X214726876Y-61278490D01*
X214743671Y-61346311D01*
X214721134Y-61412446D01*
X214676080Y-61451485D01*
X214583386Y-61498715D01*
X214417786Y-61619028D01*
X214273028Y-61763786D01*
X214152715Y-61929386D01*
X214059781Y-62111776D01*
X213996522Y-62306465D01*
X213964500Y-62508648D01*
X213964500Y-62713351D01*
X213996522Y-62915534D01*
X214059781Y-63110223D01*
X214152715Y-63292613D01*
X214273028Y-63458213D01*
X214417786Y-63602971D01*
X214572749Y-63715556D01*
X214583390Y-63723287D01*
X214674840Y-63769883D01*
X214676080Y-63770515D01*
X214726876Y-63818490D01*
X214743671Y-63886311D01*
X214721134Y-63952446D01*
X214676080Y-63991485D01*
X214583386Y-64038715D01*
X214417786Y-64159028D01*
X214273028Y-64303786D01*
X214152715Y-64469386D01*
X214059781Y-64651776D01*
X213996522Y-64846465D01*
X213964500Y-65048648D01*
X213964500Y-65253351D01*
X213996522Y-65455534D01*
X214059781Y-65650223D01*
X214152715Y-65832613D01*
X214273028Y-65998213D01*
X214417786Y-66142971D01*
X214572749Y-66255556D01*
X214583390Y-66263287D01*
X214674840Y-66309883D01*
X214676080Y-66310515D01*
X214726876Y-66358490D01*
X214743671Y-66426311D01*
X214721134Y-66492446D01*
X214676080Y-66531485D01*
X214583386Y-66578715D01*
X214417786Y-66699028D01*
X214273028Y-66843786D01*
X214152715Y-67009386D01*
X214059781Y-67191776D01*
X213996522Y-67386465D01*
X213964500Y-67588648D01*
X213964500Y-67793351D01*
X213996522Y-67995534D01*
X214059781Y-68190223D01*
X214123691Y-68315653D01*
X214128963Y-68325999D01*
X214152715Y-68372613D01*
X214273028Y-68538213D01*
X214417786Y-68682971D01*
X214571049Y-68794321D01*
X214583390Y-68803287D01*
X214674840Y-68849883D01*
X214676080Y-68850515D01*
X214726876Y-68898490D01*
X214743671Y-68966311D01*
X214721134Y-69032446D01*
X214676080Y-69071485D01*
X214583386Y-69118715D01*
X214417786Y-69239028D01*
X214273028Y-69383786D01*
X214152715Y-69549386D01*
X214059781Y-69731776D01*
X213996522Y-69926465D01*
X213964500Y-70128648D01*
X213964500Y-70333351D01*
X213996522Y-70535534D01*
X214059781Y-70730223D01*
X214152715Y-70912613D01*
X214273028Y-71078213D01*
X214417786Y-71222971D01*
X214571304Y-71334506D01*
X214583390Y-71343287D01*
X214671348Y-71388104D01*
X214676080Y-71390515D01*
X214726876Y-71438490D01*
X214743671Y-71506311D01*
X214721134Y-71572446D01*
X214676080Y-71611485D01*
X214583386Y-71658715D01*
X214417786Y-71779028D01*
X214273028Y-71923786D01*
X214152715Y-72089386D01*
X214059781Y-72271776D01*
X213996522Y-72466465D01*
X213964500Y-72668648D01*
X213964500Y-72873351D01*
X213996522Y-73075534D01*
X214059781Y-73270223D01*
X214152715Y-73452613D01*
X214273028Y-73618213D01*
X214417786Y-73762971D01*
X214571304Y-73874506D01*
X214583390Y-73883287D01*
X214671348Y-73928104D01*
X214676080Y-73930515D01*
X214726876Y-73978490D01*
X214743671Y-74046311D01*
X214721134Y-74112446D01*
X214676080Y-74151485D01*
X214583386Y-74198715D01*
X214417786Y-74319028D01*
X214273028Y-74463786D01*
X214152715Y-74629386D01*
X214059781Y-74811776D01*
X213996522Y-75006465D01*
X213964500Y-75208648D01*
X213964500Y-75413351D01*
X213996522Y-75615534D01*
X214059781Y-75810223D01*
X214152715Y-75992613D01*
X214273028Y-76158213D01*
X214417786Y-76302971D01*
X214572749Y-76415556D01*
X214583390Y-76423287D01*
X214674840Y-76469883D01*
X214676080Y-76470515D01*
X214726876Y-76518490D01*
X214743671Y-76586311D01*
X214721134Y-76652446D01*
X214676080Y-76691485D01*
X214583386Y-76738715D01*
X214417786Y-76859028D01*
X214273028Y-77003786D01*
X214152715Y-77169386D01*
X214059781Y-77351776D01*
X213996522Y-77546465D01*
X213964500Y-77748648D01*
X213964500Y-77953351D01*
X213996522Y-78155534D01*
X214059781Y-78350223D01*
X214152715Y-78532613D01*
X214273028Y-78698213D01*
X214417786Y-78842971D01*
X214572749Y-78955556D01*
X214583390Y-78963287D01*
X214676080Y-79010515D01*
X214765776Y-79056218D01*
X214765778Y-79056218D01*
X214765781Y-79056220D01*
X214870137Y-79090127D01*
X214960465Y-79119477D01*
X214979697Y-79122523D01*
X215162648Y-79151500D01*
X215162649Y-79151500D01*
X215367351Y-79151500D01*
X215367352Y-79151500D01*
X215569534Y-79119477D01*
X215764219Y-79056220D01*
X215946610Y-78963287D01*
X216039590Y-78895732D01*
X216112213Y-78842971D01*
X216112215Y-78842968D01*
X216112219Y-78842966D01*
X216256966Y-78698219D01*
X216256968Y-78698215D01*
X216256971Y-78698213D01*
X216309732Y-78625590D01*
X216377287Y-78532610D01*
X216470220Y-78350219D01*
X216533477Y-78155534D01*
X216565500Y-77953352D01*
X216565500Y-77748648D01*
X216533477Y-77546466D01*
X216470220Y-77351781D01*
X216470218Y-77351778D01*
X216470218Y-77351776D01*
X216436503Y-77285607D01*
X216377287Y-77169390D01*
X216369556Y-77158749D01*
X216256971Y-77003786D01*
X216112213Y-76859028D01*
X215946614Y-76738715D01*
X215940006Y-76735348D01*
X215853917Y-76691483D01*
X215803123Y-76643511D01*
X215786328Y-76575690D01*
X215808865Y-76509555D01*
X215853917Y-76470516D01*
X215946610Y-76423287D01*
X215967770Y-76407913D01*
X216112213Y-76302971D01*
X216112215Y-76302968D01*
X216112219Y-76302966D01*
X216256966Y-76158219D01*
X216256968Y-76158215D01*
X216256971Y-76158213D01*
X216309732Y-76085590D01*
X216377287Y-75992610D01*
X216470220Y-75810219D01*
X216533477Y-75615534D01*
X216565500Y-75413352D01*
X216565500Y-75208648D01*
X216533477Y-75006466D01*
X216470220Y-74811781D01*
X216470218Y-74811778D01*
X216470218Y-74811776D01*
X216436503Y-74745607D01*
X216377287Y-74629390D01*
X216310223Y-74537083D01*
X216256971Y-74463786D01*
X216112213Y-74319028D01*
X215946614Y-74198715D01*
X215940006Y-74195348D01*
X215853917Y-74151483D01*
X215803123Y-74103511D01*
X215786328Y-74035690D01*
X215808865Y-73969555D01*
X215853917Y-73930516D01*
X215946610Y-73883287D01*
X216091813Y-73777792D01*
X216112213Y-73762971D01*
X216112215Y-73762968D01*
X216112219Y-73762966D01*
X216256966Y-73618219D01*
X216256968Y-73618215D01*
X216256971Y-73618213D01*
X216341364Y-73502054D01*
X216377287Y-73452610D01*
X216470220Y-73270219D01*
X216533477Y-73075534D01*
X216565500Y-72873352D01*
X216565500Y-72668648D01*
X216534838Y-72475057D01*
X216533477Y-72466465D01*
X216471239Y-72274918D01*
X216470220Y-72271781D01*
X216470218Y-72271778D01*
X216470218Y-72271776D01*
X216428642Y-72190179D01*
X216377287Y-72089390D01*
X216353352Y-72056446D01*
X216256971Y-71923786D01*
X216112213Y-71779028D01*
X215946614Y-71658715D01*
X215922529Y-71646443D01*
X215853917Y-71611483D01*
X215803123Y-71563511D01*
X215786328Y-71495690D01*
X215808865Y-71429555D01*
X215853917Y-71390516D01*
X215946610Y-71343287D01*
X216091813Y-71237792D01*
X216112213Y-71222971D01*
X216112215Y-71222968D01*
X216112219Y-71222966D01*
X216256966Y-71078219D01*
X216256968Y-71078215D01*
X216256971Y-71078213D01*
X216341364Y-70962054D01*
X216377287Y-70912610D01*
X216470220Y-70730219D01*
X216533477Y-70535534D01*
X216565500Y-70333352D01*
X216565500Y-70128648D01*
X216534838Y-69935057D01*
X216533477Y-69926465D01*
X216471239Y-69734918D01*
X216470220Y-69731781D01*
X216470218Y-69731778D01*
X216470218Y-69731776D01*
X216428642Y-69650179D01*
X216377287Y-69549390D01*
X216325576Y-69478215D01*
X216256971Y-69383786D01*
X216112213Y-69239028D01*
X215946614Y-69118715D01*
X215922529Y-69106443D01*
X215853917Y-69071483D01*
X215803123Y-69023511D01*
X215786328Y-68955690D01*
X215808865Y-68889555D01*
X215853917Y-68850516D01*
X215946610Y-68803287D01*
X215985032Y-68775372D01*
X216112213Y-68682971D01*
X216112215Y-68682968D01*
X216112219Y-68682966D01*
X216256966Y-68538219D01*
X216256968Y-68538215D01*
X216256971Y-68538213D01*
X216341392Y-68422015D01*
X216377287Y-68372610D01*
X216470220Y-68190219D01*
X216533477Y-67995534D01*
X216565500Y-67793352D01*
X216565500Y-67588648D01*
X216562230Y-67568000D01*
X216533477Y-67386465D01*
X216470218Y-67191776D01*
X216426512Y-67106000D01*
X216377287Y-67009390D01*
X216369556Y-66998749D01*
X216256971Y-66843786D01*
X216112213Y-66699028D01*
X215946614Y-66578715D01*
X215940006Y-66575348D01*
X215853917Y-66531483D01*
X215803123Y-66483511D01*
X215786328Y-66415690D01*
X215808865Y-66349555D01*
X215853917Y-66310516D01*
X215946610Y-66263287D01*
X215967770Y-66247913D01*
X216112213Y-66142971D01*
X216112215Y-66142968D01*
X216112219Y-66142966D01*
X216256966Y-65998219D01*
X216256968Y-65998215D01*
X216256971Y-65998213D01*
X216309732Y-65925590D01*
X216377287Y-65832610D01*
X216470220Y-65650219D01*
X216533477Y-65455534D01*
X216565500Y-65253352D01*
X216565500Y-65048648D01*
X216533477Y-64846466D01*
X216470220Y-64651781D01*
X216470218Y-64651778D01*
X216470218Y-64651776D01*
X216436503Y-64585607D01*
X216377287Y-64469390D01*
X216369556Y-64458749D01*
X216256971Y-64303786D01*
X216112213Y-64159028D01*
X215946614Y-64038715D01*
X215940006Y-64035348D01*
X215853917Y-63991483D01*
X215803123Y-63943511D01*
X215786328Y-63875690D01*
X215808865Y-63809555D01*
X215853917Y-63770516D01*
X215946610Y-63723287D01*
X215967770Y-63707913D01*
X216112213Y-63602971D01*
X216112215Y-63602968D01*
X216112219Y-63602966D01*
X216256966Y-63458219D01*
X216256968Y-63458215D01*
X216256971Y-63458213D01*
X216309732Y-63385590D01*
X216377287Y-63292610D01*
X216470220Y-63110219D01*
X216533477Y-62915534D01*
X216565500Y-62713352D01*
X216565500Y-62508648D01*
X216533477Y-62306466D01*
X216470220Y-62111781D01*
X216470218Y-62111778D01*
X216470218Y-62111776D01*
X216436503Y-62045607D01*
X216377287Y-61929390D01*
X216369556Y-61918749D01*
X216256971Y-61763786D01*
X216112213Y-61619028D01*
X215946614Y-61498715D01*
X215940006Y-61495348D01*
X215853917Y-61451483D01*
X215803123Y-61403511D01*
X215786328Y-61335690D01*
X215808865Y-61269555D01*
X215853917Y-61230516D01*
X215946610Y-61183287D01*
X216091813Y-61077792D01*
X216112213Y-61062971D01*
X216112215Y-61062968D01*
X216112219Y-61062966D01*
X216256966Y-60918219D01*
X216256968Y-60918215D01*
X216256971Y-60918213D01*
X216309732Y-60845590D01*
X216377287Y-60752610D01*
X216470220Y-60570219D01*
X216533477Y-60375534D01*
X216565500Y-60173352D01*
X216565500Y-59968648D01*
X216533477Y-59766466D01*
X216470220Y-59571781D01*
X216470218Y-59571778D01*
X216470218Y-59571776D01*
X216394666Y-59423499D01*
X216377287Y-59389390D01*
X216369556Y-59378749D01*
X216256971Y-59223786D01*
X216112213Y-59079028D01*
X215946613Y-58958715D01*
X215946612Y-58958714D01*
X215946610Y-58958713D01*
X215875915Y-58922692D01*
X215764223Y-58865781D01*
X215569534Y-58802522D01*
X215394995Y-58774878D01*
X215367352Y-58770500D01*
X215162648Y-58770500D01*
X215138329Y-58774351D01*
X214960465Y-58802522D01*
X214765776Y-58865781D01*
X214583386Y-58958715D01*
X214417786Y-59079028D01*
X214273028Y-59223786D01*
X214152715Y-59389386D01*
X214059781Y-59571776D01*
X213996522Y-59766465D01*
X213964500Y-59968648D01*
X168305500Y-59968648D01*
X168273477Y-59766466D01*
X168210220Y-59571781D01*
X168210218Y-59571778D01*
X168210218Y-59571776D01*
X168134666Y-59423499D01*
X168117287Y-59389390D01*
X168109556Y-59378749D01*
X167996971Y-59223786D01*
X167852213Y-59079028D01*
X167686613Y-58958715D01*
X167686612Y-58958714D01*
X167686610Y-58958713D01*
X167615915Y-58922692D01*
X167504223Y-58865781D01*
X167309534Y-58802522D01*
X167134995Y-58774878D01*
X167107352Y-58770500D01*
X166902648Y-58770500D01*
X166878329Y-58774351D01*
X166700465Y-58802522D01*
X166505776Y-58865781D01*
X166323386Y-58958715D01*
X166157786Y-59079028D01*
X166013028Y-59223786D01*
X165892715Y-59389386D01*
X165799781Y-59571776D01*
X165736522Y-59766465D01*
X165704500Y-59968648D01*
X134681008Y-59968648D01*
X134667246Y-59881757D01*
X134601557Y-59679588D01*
X134505051Y-59490184D01*
X134505049Y-59490181D01*
X134505048Y-59490179D01*
X134380109Y-59318213D01*
X134229786Y-59167890D01*
X134057820Y-59042951D01*
X134057115Y-59042591D01*
X134049054Y-59038485D01*
X133998259Y-58990512D01*
X133981463Y-58922692D01*
X134003999Y-58856556D01*
X134049054Y-58817515D01*
X134057816Y-58813051D01*
X134124578Y-58764546D01*
X134229786Y-58688109D01*
X134229788Y-58688106D01*
X134229792Y-58688104D01*
X134334448Y-58583448D01*
X140835500Y-58583448D01*
X140835500Y-58764551D01*
X140863829Y-58943410D01*
X140919787Y-59115636D01*
X140919788Y-59115639D01*
X141002006Y-59276997D01*
X141108441Y-59423494D01*
X141108445Y-59423499D01*
X141236500Y-59551554D01*
X141236505Y-59551558D01*
X141364287Y-59644396D01*
X141383006Y-59657996D01*
X141488484Y-59711740D01*
X141544360Y-59740211D01*
X141544363Y-59740212D01*
X141625164Y-59766465D01*
X141716591Y-59796171D01*
X141799429Y-59809291D01*
X141895449Y-59824500D01*
X141895454Y-59824500D01*
X142076551Y-59824500D01*
X142163259Y-59810765D01*
X142255409Y-59796171D01*
X142427639Y-59740211D01*
X142588994Y-59657996D01*
X142735501Y-59551553D01*
X142863553Y-59423501D01*
X142969996Y-59276994D01*
X143052211Y-59115639D01*
X143108171Y-58943409D01*
X143122765Y-58851259D01*
X143136500Y-58764551D01*
X143136500Y-58678500D01*
X143156185Y-58611461D01*
X143208989Y-58565706D01*
X143260500Y-58554500D01*
X143346551Y-58554500D01*
X143433259Y-58540765D01*
X143525409Y-58526171D01*
X143697639Y-58470211D01*
X143858994Y-58387996D01*
X144005501Y-58281553D01*
X144133553Y-58153501D01*
X144239996Y-58006994D01*
X144322211Y-57845639D01*
X144378171Y-57673409D01*
X144392765Y-57581259D01*
X144406500Y-57494551D01*
X144406500Y-57313448D01*
X144379216Y-57141190D01*
X144378171Y-57134591D01*
X144350191Y-57048476D01*
X144322212Y-56962363D01*
X144322211Y-56962360D01*
X144293740Y-56906484D01*
X144239996Y-56801006D01*
X144140663Y-56664285D01*
X144133558Y-56654505D01*
X144133554Y-56654500D01*
X144005499Y-56526445D01*
X144005494Y-56526441D01*
X143858997Y-56420006D01*
X143858996Y-56420005D01*
X143858994Y-56420004D01*
X143788333Y-56384000D01*
X143697639Y-56337788D01*
X143697636Y-56337787D01*
X143525410Y-56281829D01*
X143346551Y-56253500D01*
X143346546Y-56253500D01*
X143165454Y-56253500D01*
X143165449Y-56253500D01*
X142986589Y-56281829D01*
X142814363Y-56337787D01*
X142814360Y-56337788D01*
X142750192Y-56370485D01*
X142693897Y-56384000D01*
X142266330Y-56384000D01*
X142286075Y-56364255D01*
X142335444Y-56278745D01*
X142361000Y-56183370D01*
X142361000Y-56084630D01*
X142335444Y-55989255D01*
X142286075Y-55903745D01*
X142266330Y-55884000D01*
X143136000Y-55884000D01*
X143136000Y-55436172D01*
X143135999Y-55436155D01*
X143129598Y-55376627D01*
X143129596Y-55376620D01*
X143079354Y-55241913D01*
X143079350Y-55241906D01*
X142993190Y-55126812D01*
X142993187Y-55126809D01*
X142878093Y-55040649D01*
X142878086Y-55040645D01*
X142743379Y-54990403D01*
X142743372Y-54990401D01*
X142683844Y-54984000D01*
X142236000Y-54984000D01*
X142236000Y-55853670D01*
X142216255Y-55833925D01*
X142130745Y-55784556D01*
X142035370Y-55759000D01*
X141936630Y-55759000D01*
X141841255Y-55784556D01*
X141755745Y-55833925D01*
X141736000Y-55853670D01*
X141736000Y-54984000D01*
X141288155Y-54984000D01*
X141228627Y-54990401D01*
X141228620Y-54990403D01*
X141093913Y-55040645D01*
X141093906Y-55040649D01*
X140978812Y-55126809D01*
X140978809Y-55126812D01*
X140892649Y-55241906D01*
X140892645Y-55241913D01*
X140842403Y-55376620D01*
X140842401Y-55376627D01*
X140836000Y-55436155D01*
X140836000Y-55884000D01*
X141705670Y-55884000D01*
X141685925Y-55903745D01*
X141636556Y-55989255D01*
X141611000Y-56084630D01*
X141611000Y-56183370D01*
X141636556Y-56278745D01*
X141685925Y-56364255D01*
X141705670Y-56384000D01*
X140836000Y-56384000D01*
X140836000Y-56831844D01*
X140842401Y-56891372D01*
X140842403Y-56891379D01*
X140892645Y-57026086D01*
X140892649Y-57026093D01*
X140978809Y-57141187D01*
X140978812Y-57141190D01*
X141093906Y-57227350D01*
X141093913Y-57227354D01*
X141228620Y-57277596D01*
X141228627Y-57277598D01*
X141288155Y-57283999D01*
X141288172Y-57284000D01*
X141832026Y-57284000D01*
X141899065Y-57303685D01*
X141944820Y-57356489D01*
X141954764Y-57425647D01*
X141925739Y-57489203D01*
X141866961Y-57526977D01*
X141851424Y-57530473D01*
X141716589Y-57551829D01*
X141544363Y-57607787D01*
X141544360Y-57607788D01*
X141383002Y-57690006D01*
X141236505Y-57796441D01*
X141236500Y-57796445D01*
X141108445Y-57924500D01*
X141108441Y-57924505D01*
X141002006Y-58071002D01*
X140919788Y-58232360D01*
X140919787Y-58232363D01*
X140863829Y-58404589D01*
X140835500Y-58583448D01*
X134334448Y-58583448D01*
X134380104Y-58537792D01*
X134505051Y-58365816D01*
X134601557Y-58176412D01*
X134667246Y-57974243D01*
X134700500Y-57764287D01*
X134700500Y-57551713D01*
X134667246Y-57341757D01*
X134601557Y-57139588D01*
X134505051Y-56950184D01*
X134505049Y-56950181D01*
X134505048Y-56950179D01*
X134380109Y-56778213D01*
X134266181Y-56664285D01*
X134232696Y-56602962D01*
X134237680Y-56533270D01*
X134279552Y-56477337D01*
X134310529Y-56460422D01*
X134442086Y-56411354D01*
X134442093Y-56411350D01*
X134557187Y-56325190D01*
X134557190Y-56325187D01*
X134643350Y-56210093D01*
X134643354Y-56210086D01*
X134693596Y-56075379D01*
X134693598Y-56075372D01*
X134699999Y-56015844D01*
X134700000Y-56015827D01*
X134700000Y-55368000D01*
X133783012Y-55368000D01*
X133815925Y-55310993D01*
X133850000Y-55183826D01*
X133850000Y-55052174D01*
X133815925Y-54925007D01*
X133783012Y-54868000D01*
X134700000Y-54868000D01*
X134700000Y-54220172D01*
X134699999Y-54220155D01*
X134693598Y-54160627D01*
X134693596Y-54160620D01*
X134643354Y-54025913D01*
X134643350Y-54025906D01*
X134557190Y-53910812D01*
X134557187Y-53910809D01*
X134442093Y-53824649D01*
X134442086Y-53824645D01*
X134307379Y-53774403D01*
X134307372Y-53774401D01*
X134247844Y-53768000D01*
X133600000Y-53768000D01*
X133600000Y-54684988D01*
X133542993Y-54652075D01*
X133415826Y-54618000D01*
X133284174Y-54618000D01*
X133157007Y-54652075D01*
X133100000Y-54684988D01*
X133100000Y-53768000D01*
X132452155Y-53768000D01*
X132392627Y-53774401D01*
X132392620Y-53774403D01*
X132257913Y-53824645D01*
X132257906Y-53824649D01*
X132142812Y-53910809D01*
X132142809Y-53910812D01*
X132056649Y-54025906D01*
X132056645Y-54025913D01*
X132006403Y-54160620D01*
X132006401Y-54160627D01*
X132000000Y-54220155D01*
X132000000Y-54868000D01*
X132916988Y-54868000D01*
X132884075Y-54925007D01*
X132850000Y-55052174D01*
X132850000Y-55183826D01*
X132884075Y-55310993D01*
X132916988Y-55368000D01*
X132000000Y-55368000D01*
X132000000Y-56015844D01*
X132006401Y-56075372D01*
X132006403Y-56075379D01*
X132056645Y-56210086D01*
X132056649Y-56210093D01*
X132142809Y-56325187D01*
X132142812Y-56325190D01*
X132257906Y-56411350D01*
X132257913Y-56411354D01*
X132389470Y-56460422D01*
X132445404Y-56502293D01*
X132469821Y-56567758D01*
X132454969Y-56636031D01*
X132433819Y-56664285D01*
X132319889Y-56778215D01*
X132194951Y-56950179D01*
X132098444Y-57139585D01*
X132098443Y-57139587D01*
X132098443Y-57139588D01*
X132069927Y-57227350D01*
X132032753Y-57341760D01*
X131999500Y-57551713D01*
X123817500Y-57551713D01*
X123817500Y-51297500D01*
X123837185Y-51230461D01*
X123889989Y-51184706D01*
X123941500Y-51173500D01*
X231277500Y-51173500D01*
X231344539Y-51193185D01*
G37*
%TD.AperFunction*%
%TD*%
M02*
