%TF.GenerationSoftware,KiCad,Pcbnew,9.0.3*%
%TF.CreationDate,2026-05-07T10:51:22+02:00*%
%TF.ProjectId,Temperature sensor monitor,54656d70-6572-4617-9475-72652073656e,rev?*%
%TF.SameCoordinates,Original*%
%TF.FileFunction,Soldermask,Top*%
%TF.FilePolarity,Negative*%
%FSLAX46Y46*%
G04 Gerber Fmt 4.6, Leading zero omitted, Abs format (unit mm)*
G04 Created by KiCad (PCBNEW 9.0.3) date 2026-05-07 10:51:22*
%MOMM*%
%LPD*%
G01*
G04 APERTURE LIST*
%ADD10R,1.600000X1.600000*%
%ADD11O,1.600000X1.600000*%
%ADD12R,1.700000X1.700000*%
%ADD13C,1.700000*%
%ADD14C,1.600000*%
%ADD15C,1.440000*%
%ADD16R,1.300000X1.300000*%
%ADD17C,1.300000*%
%ADD18R,1.800000X1.800000*%
%ADD19C,1.800000*%
G04 APERTURE END LIST*
D10*
%TO.C,A1*%
X167005000Y-95631000D03*
D11*
X167005000Y-93091000D03*
X167005000Y-90551000D03*
X167005000Y-88011000D03*
X167005000Y-85471000D03*
X167005000Y-82931000D03*
X167005000Y-80391000D03*
X167005000Y-77851000D03*
X167005000Y-72771000D03*
X167005000Y-70231000D03*
X167005000Y-67691000D03*
X167005000Y-65151000D03*
X167005000Y-62611000D03*
X167005000Y-60071000D03*
X215265000Y-60071000D03*
X215265000Y-62611000D03*
X215265000Y-65151000D03*
X215265000Y-67691000D03*
X215265000Y-70231000D03*
X215265000Y-72771000D03*
X215265000Y-75311000D03*
X215265000Y-77851000D03*
X215265000Y-81911000D03*
X215265000Y-84451000D03*
X215265000Y-86991000D03*
X215265000Y-89531000D03*
X215265000Y-92071000D03*
X215265000Y-94611000D03*
X215265000Y-97151000D03*
X215265000Y-99691000D03*
X215265000Y-102231000D03*
X215265000Y-104771000D03*
%TD*%
D12*
%TO.C,J2*%
X132842000Y-67818000D03*
D13*
X132842000Y-70358000D03*
X132842000Y-72898000D03*
%TD*%
D14*
%TO.C,R1*%
X221488000Y-95758000D03*
X229108000Y-95758000D03*
%TD*%
D15*
%TO.C,RV1*%
X146304000Y-68326000D03*
X143764000Y-70866000D03*
X146304000Y-73406000D03*
%TD*%
D12*
%TO.C,J1*%
X133350000Y-55118000D03*
D13*
X133350000Y-57658000D03*
X133350000Y-60198000D03*
%TD*%
D16*
%TO.C,U1*%
X141986000Y-56134000D03*
D17*
X143256000Y-57404000D03*
X141986000Y-58674000D03*
%TD*%
D18*
%TO.C,D1*%
X221742000Y-107442000D03*
D19*
X224282000Y-107442000D03*
%TD*%
M02*
