M48
; DRILL file {KiCad 9.0.0} date 2025-04-24T02:32:48+0530
; FORMAT={-:-/ absolute / metric / decimal}
; #@! TF.CreationDate,2025-04-24T02:32:48+05:30
; #@! TF.GenerationSoftware,Kicad,Pcbnew,9.0.0
; #@! TF.FileFunction,Plated,1,2,PTH
FMAT,2
METRIC
; #@! TA.AperFunction,Plated,PTH,ViaDrill
T1C0.300
; #@! TA.AperFunction,Plated,PTH,ComponentDrill
T2C0.800
; #@! TA.AperFunction,Plated,PTH,ComponentDrill
T3C1.000
; #@! TA.AperFunction,Plated,PTH,ComponentDrill
T4C2.380
%
G90
G05
T1
X104.0Y-64.0
X106.0Y-94.0
X107.0Y-77.0
X110.5Y-74.5
X110.5Y-82.5
X111.0Y-48.5
X111.5Y-72.5
X111.5Y-90.0
X111.5Y-95.0
X114.5Y-97.0
X116.0Y-101.5
X119.0Y-79.0
X126.0Y-89.0
X127.0Y-49.5
X127.0Y-95.5
X128.0Y-54.0
X129.5Y-93.0
X129.5Y-96.0
X130.25Y-85.25
X132.5Y-49.5
X133.0Y-57.5
X133.5Y-80.0
X133.7Y-83.5
X134.0Y-47.0
X134.0Y-73.5
X136.0Y-67.0
X136.0Y-70.5
X137.0Y-65.0
X137.0Y-68.5
X137.0Y-72.5
X137.0Y-87.0
X137.0Y-100.0
X137.5Y-58.5
X137.5Y-74.0
X137.5Y-83.0
X139.5Y-58.5
X139.5Y-90.0
X139.5Y-92.0
X139.5Y-108.0
X140.0Y-110.0
X140.25Y-74.25
X141.0Y-76.0
X141.7Y-96.0
X142.5Y-67.0
X143.0Y-44.5
X146.0Y-66.5
X146.0Y-93.5
X146.0Y-99.5
X146.0Y-103.5
X148.5Y-106.0
X149.0Y-58.5
X149.0Y-60.0
X149.0Y-84.0
X149.5Y-78.0
X150.5Y-64.5
X151.0Y-70.0
X152.0Y-67.5
X153.0Y-77.0
X153.0Y-86.0
X153.5Y-70.0
X156.5Y-47.0
X157.0Y-66.5
X157.5Y-93.0
X158.5Y-80.5
X159.5Y-71.5
X159.5Y-78.0
X160.0Y-61.0
X160.5Y-58.5
X160.5Y-72.5
X160.64Y-57.5
X161.0Y-54.0
X161.0Y-60.0
X161.0Y-74.5
X161.5Y-82.0
X163.0Y-93.5
X168.5Y-80.5
X169.0Y-74.5
X172.5Y-67.0
X174.0Y-88.0
X175.5Y-101.0
X176.5Y-63.5
X186.0Y-92.5
X187.0Y-97.5
T2
X144.5Y-81.62
X144.5Y-86.5
X163.0Y-47.52
X163.0Y-50.06
X163.0Y-52.6
X163.0Y-55.14
X163.0Y-57.68
X163.0Y-60.22
X163.0Y-62.76
X163.0Y-65.3
X163.0Y-67.84
X163.0Y-70.38
X163.0Y-72.92
X163.0Y-75.46
X163.0Y-78.0
X163.0Y-80.54
X170.62Y-47.52
X170.62Y-50.06
X170.62Y-52.6
X170.62Y-55.14
X170.62Y-57.68
X170.62Y-60.22
X170.62Y-62.76
X170.62Y-65.3
X170.62Y-67.84
X170.62Y-70.38
X170.62Y-72.92
X170.62Y-75.46
X170.62Y-78.0
X170.62Y-80.54
T3
X108.5Y-48.34
X108.5Y-50.88
X108.5Y-53.42
X108.5Y-55.96
X108.5Y-58.5
X108.5Y-61.04
X108.5Y-63.58
X108.5Y-66.12
X108.5Y-72.76
X108.5Y-75.3
X108.5Y-77.84
X108.5Y-80.38
X108.5Y-82.92
X108.5Y-85.46
X108.5Y-88.0
X108.5Y-90.54
X108.5Y-93.08
X108.5Y-95.62
X116.96Y-81.0
X116.96Y-83.54
X116.96Y-86.08
X119.5Y-81.0
X119.5Y-83.54
X119.5Y-86.08
X121.73Y-101.29
X121.73Y-103.29
X124.23Y-101.29
X124.23Y-103.29
X124.96Y-82.0
X124.96Y-84.54
X127.5Y-82.0
X127.5Y-84.54
X136.975Y-47.735
X136.975Y-50.275
X139.515Y-47.735
X139.515Y-50.275
X142.055Y-47.735
X142.055Y-50.275
X179.5Y-45.42
X179.5Y-47.96
X179.5Y-50.5
X179.5Y-53.04
X179.5Y-55.58
X179.5Y-58.12
X179.5Y-65.92
X179.5Y-68.46
X179.5Y-71.0
X179.5Y-73.54
X179.5Y-76.08
X179.5Y-78.62
X179.5Y-81.16
X179.5Y-83.7
T4
X116.96Y-106.0
X129.0Y-106.0
T3
G00X159.542Y-100.0
M15
G01X161.542Y-100.0
M16
G05
G00X159.542Y-106.0
M15
G01X161.542Y-106.0
M16
G05
G00X165.242Y-104.0
M15
G01X165.242Y-102.0
M16
G05
M30
