%TF.GenerationSoftware,KiCad,Pcbnew,9.0.0*%
%TF.CreationDate,2025-04-24T02:30:35+05:30*%
%TF.ProjectId,suganya_arduino,73756761-6e79-4615-9f61-726475696e6f,rev?*%
%TF.SameCoordinates,Original*%
%TF.FileFunction,Soldermask,Top*%
%TF.FilePolarity,Negative*%
%FSLAX46Y46*%
G04 Gerber Fmt 4.6, Leading zero omitted, Abs format (unit mm)*
G04 Created by KiCad (PCBNEW 9.0.0) date 2025-04-24 02:30:35*
%MOMM*%
%LPD*%
G01*
G04 APERTURE LIST*
G04 Aperture macros list*
%AMRoundRect*
0 Rectangle with rounded corners*
0 $1 Rounding radius*
0 $2 $3 $4 $5 $6 $7 $8 $9 X,Y pos of 4 corners*
0 Add a 4 corners polygon primitive as box body*
4,1,4,$2,$3,$4,$5,$6,$7,$8,$9,$2,$3,0*
0 Add four circle primitives for the rounded corners*
1,1,$1+$1,$2,$3*
1,1,$1+$1,$4,$5*
1,1,$1+$1,$6,$7*
1,1,$1+$1,$8,$9*
0 Add four rect primitives between the rounded corners*
20,1,$1+$1,$2,$3,$4,$5,0*
20,1,$1+$1,$4,$5,$6,$7,0*
20,1,$1+$1,$6,$7,$8,$9,0*
20,1,$1+$1,$8,$9,$2,$3,0*%
G04 Aperture macros list end*
%ADD10R,1.700000X1.700000*%
%ADD11O,1.700000X1.700000*%
%ADD12RoundRect,0.200000X-0.275000X0.200000X-0.275000X-0.200000X0.275000X-0.200000X0.275000X0.200000X0*%
%ADD13RoundRect,0.225000X-0.225000X-0.250000X0.225000X-0.250000X0.225000X0.250000X-0.225000X0.250000X0*%
%ADD14RoundRect,0.250000X-1.500000X-0.550000X1.500000X-0.550000X1.500000X0.550000X-1.500000X0.550000X0*%
%ADD15RoundRect,0.225000X0.250000X-0.225000X0.250000X0.225000X-0.250000X0.225000X-0.250000X-0.225000X0*%
%ADD16RoundRect,0.134250X0.402750X0.477750X-0.402750X0.477750X-0.402750X-0.477750X0.402750X-0.477750X0*%
%ADD17RoundRect,0.243750X0.456250X-0.243750X0.456250X0.243750X-0.456250X0.243750X-0.456250X-0.243750X0*%
%ADD18C,3.200000*%
%ADD19RoundRect,0.225000X-0.250000X0.225000X-0.250000X-0.225000X0.250000X-0.225000X0.250000X0.225000X0*%
%ADD20RoundRect,0.102000X-0.754000X-0.754000X0.754000X-0.754000X0.754000X0.754000X-0.754000X0.754000X0*%
%ADD21C,1.712000*%
%ADD22C,3.600000*%
%ADD23RoundRect,0.150000X-0.512500X-0.150000X0.512500X-0.150000X0.512500X0.150000X-0.512500X0.150000X0*%
%ADD24R,3.500000X3.500000*%
%ADD25RoundRect,0.750000X1.000000X-0.750000X1.000000X0.750000X-1.000000X0.750000X-1.000000X-0.750000X0*%
%ADD26RoundRect,0.875000X0.875000X-0.875000X0.875000X0.875000X-0.875000X0.875000X-0.875000X-0.875000X0*%
%ADD27R,1.000000X1.500000*%
%ADD28R,1.900000X0.400000*%
%ADD29RoundRect,0.100000X0.637500X0.100000X-0.637500X0.100000X-0.637500X-0.100000X0.637500X-0.100000X0*%
%ADD30RoundRect,0.150000X0.587500X0.150000X-0.587500X0.150000X-0.587500X-0.150000X0.587500X-0.150000X0*%
%ADD31RoundRect,0.218750X0.381250X-0.218750X0.381250X0.218750X-0.381250X0.218750X-0.381250X-0.218750X0*%
%ADD32R,0.900000X0.400000*%
%ADD33R,0.400000X0.900000*%
%ADD34RoundRect,0.250000X-0.550000X-0.550000X0.550000X-0.550000X0.550000X0.550000X-0.550000X0.550000X0*%
%ADD35C,1.600000*%
%ADD36RoundRect,0.250000X-0.375000X-0.625000X0.375000X-0.625000X0.375000X0.625000X-0.375000X0.625000X0*%
%ADD37RoundRect,0.250000X0.625000X-0.375000X0.625000X0.375000X-0.625000X0.375000X-0.625000X-0.375000X0*%
%ADD38RoundRect,0.375000X-0.625000X-0.375000X0.625000X-0.375000X0.625000X0.375000X-0.625000X0.375000X0*%
%ADD39RoundRect,0.500000X-0.500000X-1.400000X0.500000X-1.400000X0.500000X1.400000X-0.500000X1.400000X0*%
%ADD40RoundRect,0.102000X-0.750000X-1.600000X0.750000X-1.600000X0.750000X1.600000X-0.750000X1.600000X0*%
%ADD41RoundRect,0.134250X-0.477750X0.402750X-0.477750X-0.402750X0.477750X-0.402750X0.477750X0.402750X0*%
%ADD42C,3.000000*%
%ADD43RoundRect,0.062500X0.337500X0.062500X-0.337500X0.062500X-0.337500X-0.062500X0.337500X-0.062500X0*%
%ADD44RoundRect,0.062500X0.062500X0.337500X-0.062500X0.337500X-0.062500X-0.337500X0.062500X-0.337500X0*%
%ADD45R,3.600000X3.600000*%
%ADD46RoundRect,0.200000X0.275000X-0.200000X0.275000X0.200000X-0.275000X0.200000X-0.275000X-0.200000X0*%
%ADD47RoundRect,0.050800X0.800100X0.699750X-0.800100X0.699750X-0.800100X-0.699750X0.800100X-0.699750X0*%
%ADD48RoundRect,0.243750X-0.456250X0.243750X-0.456250X-0.243750X0.456250X-0.243750X0.456250X0.243750X0*%
%ADD49RoundRect,0.250000X1.000000X0.900000X-1.000000X0.900000X-1.000000X-0.900000X1.000000X-0.900000X0*%
%ADD50C,1.500000*%
G04 APERTURE END LIST*
%TO.C,JP2*%
G36*
X159350000Y-75750000D02*
G01*
X159650000Y-75750000D01*
X159650000Y-77250000D01*
X159350000Y-77250000D01*
X159350000Y-75750000D01*
G37*
%TO.C,JP1*%
G36*
X127000000Y-92250000D02*
G01*
X127300000Y-92250000D01*
X127300000Y-93750000D01*
X127000000Y-93750000D01*
X127000000Y-92250000D01*
G37*
%TD*%
D10*
%TO.C,J2*%
X119500000Y-86080000D03*
D11*
X116960000Y-86080000D03*
X119500000Y-83540000D03*
X116960000Y-83540000D03*
X119500000Y-81000000D03*
X116960000Y-81000000D03*
%TD*%
D12*
%TO.C,R1*%
X139500000Y-84000000D03*
X139500000Y-85650000D03*
%TD*%
D13*
%TO.C,C4*%
X173725000Y-63500000D03*
X175275000Y-63500000D03*
%TD*%
D14*
%TO.C,PC1*%
X167200000Y-91000000D03*
X172800000Y-91000000D03*
%TD*%
D15*
%TO.C,C3*%
X153000000Y-103275000D03*
X153000000Y-101725000D03*
%TD*%
D16*
%TO.C,Z1*%
X114060000Y-99500000D03*
X112500000Y-99500000D03*
%TD*%
D17*
%TO.C,L2*%
X153000000Y-84875000D03*
X153000000Y-83000000D03*
%TD*%
D18*
%TO.C,REF\u002A\u002A*%
X116000000Y-40500000D03*
%TD*%
%TO.C,REF\u002A\u002A*%
X190500000Y-44000000D03*
%TD*%
D19*
%TO.C,C9*%
X139500000Y-80725000D03*
X139500000Y-82275000D03*
%TD*%
D20*
%TO.C,X2*%
X124230000Y-101290000D03*
D21*
X121730000Y-101290000D03*
X121730000Y-103290000D03*
X124230000Y-103290000D03*
D22*
X116960000Y-106000000D03*
X129000000Y-106000000D03*
%TD*%
D23*
%TO.C,U2*%
X149725000Y-105000000D03*
X149725000Y-105950000D03*
X149725000Y-106900000D03*
X152000000Y-106900000D03*
X152000000Y-105000000D03*
%TD*%
D24*
%TO.C,X1*%
X160542500Y-100000000D03*
D25*
X160542500Y-106000000D03*
D26*
X165242500Y-103000000D03*
%TD*%
D27*
%TO.C,JP2*%
X158850000Y-76500000D03*
X160150000Y-76500000D03*
%TD*%
D15*
%TO.C,C1*%
X137000000Y-102775000D03*
X137000000Y-101225000D03*
%TD*%
%TO.C,C6*%
X158500000Y-62500000D03*
X158500000Y-60950000D03*
%TD*%
D28*
%TO.C,Y2*%
X155000000Y-71000000D03*
X155000000Y-69800000D03*
X155000000Y-68600000D03*
%TD*%
D29*
%TO.C,U5*%
X145862500Y-106950000D03*
X145862500Y-106300000D03*
X145862500Y-105650000D03*
X145862500Y-105000000D03*
X140137500Y-105000000D03*
X140137500Y-105650000D03*
X140137500Y-106300000D03*
X140137500Y-106950000D03*
%TD*%
D30*
%TO.C,Q1*%
X135937500Y-107450000D03*
X135937500Y-105550000D03*
X134062500Y-106500000D03*
%TD*%
D31*
%TO.C,L1*%
X116000000Y-98062500D03*
X116000000Y-95937500D03*
%TD*%
D32*
%TO.C,RN4*%
X138000000Y-57000000D03*
X138000000Y-56200000D03*
X138000000Y-55400000D03*
X138000000Y-54600000D03*
X136300000Y-54600000D03*
X136300000Y-55400000D03*
X136300000Y-56200000D03*
X136300000Y-57000000D03*
%TD*%
D33*
%TO.C,RN3*%
X134700000Y-89150000D03*
X133900000Y-89150000D03*
X133100000Y-89150000D03*
X132300000Y-89150000D03*
X132300000Y-90850000D03*
X133100000Y-90850000D03*
X133900000Y-90850000D03*
X134700000Y-90850000D03*
%TD*%
D13*
%TO.C,C7*%
X138725000Y-95000000D03*
X140275000Y-95000000D03*
%TD*%
D27*
%TO.C,JP1*%
X126500000Y-93000000D03*
X127800000Y-93000000D03*
%TD*%
D34*
%TO.C,ZU4*%
X163000000Y-47520000D03*
D35*
X163000000Y-50060000D03*
X163000000Y-52600000D03*
X163000000Y-55140000D03*
X163000000Y-57680000D03*
X163000000Y-60220000D03*
X163000000Y-62760000D03*
X163000000Y-65300000D03*
X163000000Y-67840000D03*
X163000000Y-70380000D03*
X163000000Y-72920000D03*
X163000000Y-75460000D03*
X163000000Y-78000000D03*
X163000000Y-80540000D03*
X170620000Y-80540000D03*
X170620000Y-78000000D03*
X170620000Y-75460000D03*
X170620000Y-72920000D03*
X170620000Y-70380000D03*
X170620000Y-67840000D03*
X170620000Y-65300000D03*
X170620000Y-62760000D03*
X170620000Y-60220000D03*
X170620000Y-57680000D03*
X170620000Y-55140000D03*
X170620000Y-52600000D03*
X170620000Y-50060000D03*
X170620000Y-47520000D03*
%TD*%
D36*
%TO.C,D2*%
X150100000Y-62500000D03*
X152900000Y-62500000D03*
%TD*%
D37*
%TO.C,D3*%
X112500000Y-87800000D03*
X112500000Y-85000000D03*
%TD*%
D17*
%TO.C,Rx1*%
X136500000Y-76375000D03*
X136500000Y-74500000D03*
%TD*%
D38*
%TO.C,U1*%
X177500000Y-100700000D03*
X177500000Y-103000000D03*
D39*
X183800000Y-103000000D03*
D38*
X177500000Y-105300000D03*
%TD*%
D40*
%TO.C,F1*%
X132400000Y-97500000D03*
X136600000Y-97500000D03*
%TD*%
D14*
%TO.C,PC2*%
X177700000Y-92000000D03*
X183300000Y-92000000D03*
%TD*%
D41*
%TO.C,Z2*%
X122000000Y-97220000D03*
X122000000Y-98780000D03*
%TD*%
D15*
%TO.C,C11*%
X139500000Y-88775000D03*
X139500000Y-87225000D03*
%TD*%
%TO.C,C2*%
X187000000Y-100775000D03*
X187000000Y-99225000D03*
%TD*%
D10*
%TO.C,J6*%
X136975000Y-50275000D03*
D11*
X136975000Y-47735000D03*
X139515000Y-50275000D03*
X139515000Y-47735000D03*
X142055000Y-50275000D03*
X142055000Y-47735000D03*
%TD*%
D42*
%TO.C,FID2*%
X104500000Y-70000000D03*
%TD*%
%TO.C,FID3*%
X168000000Y-98500000D03*
%TD*%
D43*
%TO.C,U3*%
X136150000Y-85250000D03*
X136150000Y-84750000D03*
X136150000Y-84250000D03*
X136150000Y-83750000D03*
X136150000Y-83250000D03*
X136150000Y-82750000D03*
X136150000Y-82250000D03*
X136150000Y-81750000D03*
D44*
X135450000Y-81050000D03*
X134950000Y-81050000D03*
X134450000Y-81050000D03*
X133950000Y-81050000D03*
X133450000Y-81050000D03*
X132950000Y-81050000D03*
X132450000Y-81050000D03*
X131950000Y-81050000D03*
D43*
X131250000Y-81750000D03*
X131250000Y-82250000D03*
X131250000Y-82750000D03*
X131250000Y-83250000D03*
X131250000Y-83750000D03*
X131250000Y-84250000D03*
X131250000Y-84750000D03*
X131250000Y-85250000D03*
D44*
X131950000Y-85950000D03*
X132450000Y-85950000D03*
X132950000Y-85950000D03*
X133450000Y-85950000D03*
X133950000Y-85950000D03*
X134450000Y-85950000D03*
X134950000Y-85950000D03*
X135450000Y-85950000D03*
D45*
X133700000Y-83500000D03*
%TD*%
D10*
%TO.C,IOL1*%
X108500000Y-48340000D03*
D11*
X108500000Y-50880000D03*
X108500000Y-53420000D03*
X108500000Y-55960000D03*
X108500000Y-58500000D03*
X108500000Y-61040000D03*
X108500000Y-63580000D03*
X108500000Y-66120000D03*
%TD*%
D18*
%TO.C,REF\u002A\u002A*%
X193000000Y-100000000D03*
%TD*%
D10*
%TO.C,AD1*%
X179500000Y-58120000D03*
D11*
X179500000Y-55580000D03*
X179500000Y-53040000D03*
X179500000Y-50500000D03*
X179500000Y-47960000D03*
X179500000Y-45420000D03*
%TD*%
D13*
%TO.C,C5*%
X155225000Y-77500000D03*
X156775000Y-77500000D03*
%TD*%
D46*
%TO.C,R2*%
X159500000Y-69500000D03*
X159500000Y-67850000D03*
%TD*%
D42*
%TO.C,FID1*%
X115500000Y-55500000D03*
%TD*%
D17*
%TO.C,Tx1*%
X133000000Y-76375000D03*
X133000000Y-74500000D03*
%TD*%
D10*
%TO.C,IOH1*%
X108500000Y-95620000D03*
D11*
X108500000Y-93080000D03*
X108500000Y-90540000D03*
X108500000Y-88000000D03*
X108500000Y-85460000D03*
X108500000Y-82920000D03*
X108500000Y-80380000D03*
X108500000Y-77840000D03*
X108500000Y-75300000D03*
X108500000Y-72760000D03*
%TD*%
D10*
%TO.C,J3*%
X127500000Y-82000000D03*
D11*
X127500000Y-84540000D03*
X124960000Y-82000000D03*
X124960000Y-84540000D03*
%TD*%
D33*
%TO.C,RN1*%
X146850000Y-94850000D03*
X146050000Y-94850000D03*
X145250000Y-94850000D03*
X144450000Y-94850000D03*
X144450000Y-96550000D03*
X145250000Y-96550000D03*
X146050000Y-96550000D03*
X146850000Y-96550000D03*
%TD*%
D10*
%TO.C,POWER1*%
X179500000Y-65920000D03*
D11*
X179500000Y-68460000D03*
X179500000Y-71000000D03*
X179500000Y-73540000D03*
X179500000Y-76080000D03*
X179500000Y-78620000D03*
X179500000Y-81160000D03*
X179500000Y-83700000D03*
%TD*%
D18*
%TO.C,REF\u002A\u002A*%
X109000000Y-105500000D03*
%TD*%
D47*
%TO.C,RESET1*%
X154691000Y-49759300D03*
X146309000Y-49759300D03*
X154691000Y-45239400D03*
X146309000Y-45239400D03*
X154691000Y-47498700D03*
%TD*%
D48*
%TO.C,GREEN1*%
X129000000Y-49562500D03*
X129000000Y-51437500D03*
%TD*%
D32*
%TO.C,RN2*%
X152700000Y-80400000D03*
X152700000Y-79600000D03*
X152700000Y-78800000D03*
X152700000Y-78000000D03*
X151000000Y-78000000D03*
X151000000Y-78800000D03*
X151000000Y-79600000D03*
X151000000Y-80400000D03*
%TD*%
D49*
%TO.C,D1*%
X173650000Y-104500000D03*
X169350000Y-104500000D03*
%TD*%
D13*
%TO.C,C8*%
X128500000Y-89500000D03*
X130050000Y-89500000D03*
%TD*%
D50*
%TO.C,Y1*%
X144500000Y-86500000D03*
X144500000Y-81620000D03*
%TD*%
M02*
