%TF.GenerationSoftware,KiCad,Pcbnew,9.0.3*%
%TF.CreationDate,2026-03-25T22:31:58+01:00*%
%TF.ProjectId,Adjustable power supply,41646a75-7374-4616-926c-6520706f7765,rev?*%
%TF.SameCoordinates,Original*%
%TF.FileFunction,Copper,L2,Bot*%
%TF.FilePolarity,Positive*%
%FSLAX46Y46*%
G04 Gerber Fmt 4.6, Leading zero omitted, Abs format (unit mm)*
G04 Created by KiCad (PCBNEW 9.0.3) date 2026-03-25 22:31:58*
%MOMM*%
%LPD*%
G01*
G04 APERTURE LIST*
G04 Aperture macros list*
%AMRoundRect*
0 Rectangle with rounded corners*
0 $1 Rounding radius*
0 $2 $3 $4 $5 $6 $7 $8 $9 X,Y pos of 4 corners*
0 Add a 4 corners polygon primitive as box body*
4,1,4,$2,$3,$4,$5,$6,$7,$8,$9,$2,$3,0*
0 Add four circle primitives for the rounded corners*
1,1,$1+$1,$2,$3*
1,1,$1+$1,$4,$5*
1,1,$1+$1,$6,$7*
1,1,$1+$1,$8,$9*
0 Add four rect primitives between the rounded corners*
20,1,$1+$1,$2,$3,$4,$5,0*
20,1,$1+$1,$4,$5,$6,$7,0*
20,1,$1+$1,$6,$7,$8,$9,0*
20,1,$1+$1,$8,$9,$2,$3,0*%
G04 Aperture macros list end*
%ADD10C,0.300000*%
%TA.AperFunction,NonConductor*%
%ADD11C,0.300000*%
%TD*%
%TA.AperFunction,ComponentPad*%
%ADD12R,2.000000X1.905000*%
%TD*%
%TA.AperFunction,ComponentPad*%
%ADD13O,2.000000X1.905000*%
%TD*%
%TA.AperFunction,ComponentPad*%
%ADD14O,2.720000X3.240000*%
%TD*%
%TA.AperFunction,ComponentPad*%
%ADD15R,1.800000X1.800000*%
%TD*%
%TA.AperFunction,ComponentPad*%
%ADD16C,1.800000*%
%TD*%
%TA.AperFunction,ComponentPad*%
%ADD17C,1.600000*%
%TD*%
%TA.AperFunction,ComponentPad*%
%ADD18R,3.000000X3.000000*%
%TD*%
%TA.AperFunction,ComponentPad*%
%ADD19C,3.000000*%
%TD*%
%TA.AperFunction,ComponentPad*%
%ADD20RoundRect,0.249999X-0.850001X0.850001X-0.850001X-0.850001X0.850001X-0.850001X0.850001X0.850001X0*%
%TD*%
%TA.AperFunction,ComponentPad*%
%ADD21C,2.200000*%
%TD*%
%TA.AperFunction,ComponentPad*%
%ADD22RoundRect,0.249999X0.850001X0.850001X-0.850001X0.850001X-0.850001X-0.850001X0.850001X-0.850001X0*%
%TD*%
%TA.AperFunction,Conductor*%
%ADD23C,0.200000*%
%TD*%
G04 APERTURE END LIST*
D10*
D11*
X127766917Y-74622257D02*
X127052632Y-74622257D01*
X127909774Y-75050828D02*
X127409774Y-73550828D01*
X127409774Y-73550828D02*
X126909774Y-75050828D01*
X125766918Y-75050828D02*
X125766918Y-73550828D01*
X125766918Y-74979400D02*
X125909775Y-75050828D01*
X125909775Y-75050828D02*
X126195489Y-75050828D01*
X126195489Y-75050828D02*
X126338346Y-74979400D01*
X126338346Y-74979400D02*
X126409775Y-74907971D01*
X126409775Y-74907971D02*
X126481203Y-74765114D01*
X126481203Y-74765114D02*
X126481203Y-74336542D01*
X126481203Y-74336542D02*
X126409775Y-74193685D01*
X126409775Y-74193685D02*
X126338346Y-74122257D01*
X126338346Y-74122257D02*
X126195489Y-74050828D01*
X126195489Y-74050828D02*
X125909775Y-74050828D01*
X125909775Y-74050828D02*
X125766918Y-74122257D01*
X125052632Y-74050828D02*
X125052632Y-75336542D01*
X125052632Y-75336542D02*
X125124060Y-75479400D01*
X125124060Y-75479400D02*
X125266917Y-75550828D01*
X125266917Y-75550828D02*
X125338346Y-75550828D01*
X125052632Y-73550828D02*
X125124060Y-73622257D01*
X125124060Y-73622257D02*
X125052632Y-73693685D01*
X125052632Y-73693685D02*
X124981203Y-73622257D01*
X124981203Y-73622257D02*
X125052632Y-73550828D01*
X125052632Y-73550828D02*
X125052632Y-73693685D01*
X123695489Y-74050828D02*
X123695489Y-75050828D01*
X124338346Y-74050828D02*
X124338346Y-74836542D01*
X124338346Y-74836542D02*
X124266917Y-74979400D01*
X124266917Y-74979400D02*
X124124060Y-75050828D01*
X124124060Y-75050828D02*
X123909774Y-75050828D01*
X123909774Y-75050828D02*
X123766917Y-74979400D01*
X123766917Y-74979400D02*
X123695489Y-74907971D01*
X123052631Y-74979400D02*
X122909774Y-75050828D01*
X122909774Y-75050828D02*
X122624060Y-75050828D01*
X122624060Y-75050828D02*
X122481203Y-74979400D01*
X122481203Y-74979400D02*
X122409774Y-74836542D01*
X122409774Y-74836542D02*
X122409774Y-74765114D01*
X122409774Y-74765114D02*
X122481203Y-74622257D01*
X122481203Y-74622257D02*
X122624060Y-74550828D01*
X122624060Y-74550828D02*
X122838346Y-74550828D01*
X122838346Y-74550828D02*
X122981203Y-74479400D01*
X122981203Y-74479400D02*
X123052631Y-74336542D01*
X123052631Y-74336542D02*
X123052631Y-74265114D01*
X123052631Y-74265114D02*
X122981203Y-74122257D01*
X122981203Y-74122257D02*
X122838346Y-74050828D01*
X122838346Y-74050828D02*
X122624060Y-74050828D01*
X122624060Y-74050828D02*
X122481203Y-74122257D01*
X121981202Y-74050828D02*
X121409774Y-74050828D01*
X121766917Y-73550828D02*
X121766917Y-74836542D01*
X121766917Y-74836542D02*
X121695488Y-74979400D01*
X121695488Y-74979400D02*
X121552631Y-75050828D01*
X121552631Y-75050828D02*
X121409774Y-75050828D01*
X120266917Y-75050828D02*
X120266917Y-74265114D01*
X120266917Y-74265114D02*
X120338345Y-74122257D01*
X120338345Y-74122257D02*
X120481202Y-74050828D01*
X120481202Y-74050828D02*
X120766917Y-74050828D01*
X120766917Y-74050828D02*
X120909774Y-74122257D01*
X120266917Y-74979400D02*
X120409774Y-75050828D01*
X120409774Y-75050828D02*
X120766917Y-75050828D01*
X120766917Y-75050828D02*
X120909774Y-74979400D01*
X120909774Y-74979400D02*
X120981202Y-74836542D01*
X120981202Y-74836542D02*
X120981202Y-74693685D01*
X120981202Y-74693685D02*
X120909774Y-74550828D01*
X120909774Y-74550828D02*
X120766917Y-74479400D01*
X120766917Y-74479400D02*
X120409774Y-74479400D01*
X120409774Y-74479400D02*
X120266917Y-74407971D01*
X119552631Y-75050828D02*
X119552631Y-73550828D01*
X119552631Y-74122257D02*
X119409774Y-74050828D01*
X119409774Y-74050828D02*
X119124059Y-74050828D01*
X119124059Y-74050828D02*
X118981202Y-74122257D01*
X118981202Y-74122257D02*
X118909774Y-74193685D01*
X118909774Y-74193685D02*
X118838345Y-74336542D01*
X118838345Y-74336542D02*
X118838345Y-74765114D01*
X118838345Y-74765114D02*
X118909774Y-74907971D01*
X118909774Y-74907971D02*
X118981202Y-74979400D01*
X118981202Y-74979400D02*
X119124059Y-75050828D01*
X119124059Y-75050828D02*
X119409774Y-75050828D01*
X119409774Y-75050828D02*
X119552631Y-74979400D01*
X117981202Y-75050828D02*
X118124059Y-74979400D01*
X118124059Y-74979400D02*
X118195488Y-74836542D01*
X118195488Y-74836542D02*
X118195488Y-73550828D01*
X116838345Y-74979400D02*
X116981202Y-75050828D01*
X116981202Y-75050828D02*
X117266917Y-75050828D01*
X117266917Y-75050828D02*
X117409774Y-74979400D01*
X117409774Y-74979400D02*
X117481202Y-74836542D01*
X117481202Y-74836542D02*
X117481202Y-74265114D01*
X117481202Y-74265114D02*
X117409774Y-74122257D01*
X117409774Y-74122257D02*
X117266917Y-74050828D01*
X117266917Y-74050828D02*
X116981202Y-74050828D01*
X116981202Y-74050828D02*
X116838345Y-74122257D01*
X116838345Y-74122257D02*
X116766917Y-74265114D01*
X116766917Y-74265114D02*
X116766917Y-74407971D01*
X116766917Y-74407971D02*
X117481202Y-74550828D01*
X114981203Y-75050828D02*
X114981203Y-73550828D01*
X114981203Y-73550828D02*
X114409774Y-73550828D01*
X114409774Y-73550828D02*
X114266917Y-73622257D01*
X114266917Y-73622257D02*
X114195488Y-73693685D01*
X114195488Y-73693685D02*
X114124060Y-73836542D01*
X114124060Y-73836542D02*
X114124060Y-74050828D01*
X114124060Y-74050828D02*
X114195488Y-74193685D01*
X114195488Y-74193685D02*
X114266917Y-74265114D01*
X114266917Y-74265114D02*
X114409774Y-74336542D01*
X114409774Y-74336542D02*
X114981203Y-74336542D01*
X113266917Y-75050828D02*
X113409774Y-74979400D01*
X113409774Y-74979400D02*
X113481203Y-74907971D01*
X113481203Y-74907971D02*
X113552631Y-74765114D01*
X113552631Y-74765114D02*
X113552631Y-74336542D01*
X113552631Y-74336542D02*
X113481203Y-74193685D01*
X113481203Y-74193685D02*
X113409774Y-74122257D01*
X113409774Y-74122257D02*
X113266917Y-74050828D01*
X113266917Y-74050828D02*
X113052631Y-74050828D01*
X113052631Y-74050828D02*
X112909774Y-74122257D01*
X112909774Y-74122257D02*
X112838346Y-74193685D01*
X112838346Y-74193685D02*
X112766917Y-74336542D01*
X112766917Y-74336542D02*
X112766917Y-74765114D01*
X112766917Y-74765114D02*
X112838346Y-74907971D01*
X112838346Y-74907971D02*
X112909774Y-74979400D01*
X112909774Y-74979400D02*
X113052631Y-75050828D01*
X113052631Y-75050828D02*
X113266917Y-75050828D01*
X112266917Y-74050828D02*
X111981203Y-75050828D01*
X111981203Y-75050828D02*
X111695488Y-74336542D01*
X111695488Y-74336542D02*
X111409774Y-75050828D01*
X111409774Y-75050828D02*
X111124060Y-74050828D01*
X109981202Y-74979400D02*
X110124059Y-75050828D01*
X110124059Y-75050828D02*
X110409774Y-75050828D01*
X110409774Y-75050828D02*
X110552631Y-74979400D01*
X110552631Y-74979400D02*
X110624059Y-74836542D01*
X110624059Y-74836542D02*
X110624059Y-74265114D01*
X110624059Y-74265114D02*
X110552631Y-74122257D01*
X110552631Y-74122257D02*
X110409774Y-74050828D01*
X110409774Y-74050828D02*
X110124059Y-74050828D01*
X110124059Y-74050828D02*
X109981202Y-74122257D01*
X109981202Y-74122257D02*
X109909774Y-74265114D01*
X109909774Y-74265114D02*
X109909774Y-74407971D01*
X109909774Y-74407971D02*
X110624059Y-74550828D01*
X109266917Y-75050828D02*
X109266917Y-74050828D01*
X109266917Y-74336542D02*
X109195488Y-74193685D01*
X109195488Y-74193685D02*
X109124060Y-74122257D01*
X109124060Y-74122257D02*
X108981202Y-74050828D01*
X108981202Y-74050828D02*
X108838345Y-74050828D01*
X107266917Y-74979400D02*
X107052632Y-75050828D01*
X107052632Y-75050828D02*
X106695489Y-75050828D01*
X106695489Y-75050828D02*
X106552632Y-74979400D01*
X106552632Y-74979400D02*
X106481203Y-74907971D01*
X106481203Y-74907971D02*
X106409774Y-74765114D01*
X106409774Y-74765114D02*
X106409774Y-74622257D01*
X106409774Y-74622257D02*
X106481203Y-74479400D01*
X106481203Y-74479400D02*
X106552632Y-74407971D01*
X106552632Y-74407971D02*
X106695489Y-74336542D01*
X106695489Y-74336542D02*
X106981203Y-74265114D01*
X106981203Y-74265114D02*
X107124060Y-74193685D01*
X107124060Y-74193685D02*
X107195489Y-74122257D01*
X107195489Y-74122257D02*
X107266917Y-73979400D01*
X107266917Y-73979400D02*
X107266917Y-73836542D01*
X107266917Y-73836542D02*
X107195489Y-73693685D01*
X107195489Y-73693685D02*
X107124060Y-73622257D01*
X107124060Y-73622257D02*
X106981203Y-73550828D01*
X106981203Y-73550828D02*
X106624060Y-73550828D01*
X106624060Y-73550828D02*
X106409774Y-73622257D01*
X105124061Y-74050828D02*
X105124061Y-75050828D01*
X105766918Y-74050828D02*
X105766918Y-74836542D01*
X105766918Y-74836542D02*
X105695489Y-74979400D01*
X105695489Y-74979400D02*
X105552632Y-75050828D01*
X105552632Y-75050828D02*
X105338346Y-75050828D01*
X105338346Y-75050828D02*
X105195489Y-74979400D01*
X105195489Y-74979400D02*
X105124061Y-74907971D01*
X104409775Y-74050828D02*
X104409775Y-75550828D01*
X104409775Y-74122257D02*
X104266918Y-74050828D01*
X104266918Y-74050828D02*
X103981203Y-74050828D01*
X103981203Y-74050828D02*
X103838346Y-74122257D01*
X103838346Y-74122257D02*
X103766918Y-74193685D01*
X103766918Y-74193685D02*
X103695489Y-74336542D01*
X103695489Y-74336542D02*
X103695489Y-74765114D01*
X103695489Y-74765114D02*
X103766918Y-74907971D01*
X103766918Y-74907971D02*
X103838346Y-74979400D01*
X103838346Y-74979400D02*
X103981203Y-75050828D01*
X103981203Y-75050828D02*
X104266918Y-75050828D01*
X104266918Y-75050828D02*
X104409775Y-74979400D01*
X103052632Y-74050828D02*
X103052632Y-75550828D01*
X103052632Y-74122257D02*
X102909775Y-74050828D01*
X102909775Y-74050828D02*
X102624060Y-74050828D01*
X102624060Y-74050828D02*
X102481203Y-74122257D01*
X102481203Y-74122257D02*
X102409775Y-74193685D01*
X102409775Y-74193685D02*
X102338346Y-74336542D01*
X102338346Y-74336542D02*
X102338346Y-74765114D01*
X102338346Y-74765114D02*
X102409775Y-74907971D01*
X102409775Y-74907971D02*
X102481203Y-74979400D01*
X102481203Y-74979400D02*
X102624060Y-75050828D01*
X102624060Y-75050828D02*
X102909775Y-75050828D01*
X102909775Y-75050828D02*
X103052632Y-74979400D01*
X101481203Y-75050828D02*
X101624060Y-74979400D01*
X101624060Y-74979400D02*
X101695489Y-74836542D01*
X101695489Y-74836542D02*
X101695489Y-73550828D01*
X101052632Y-74050828D02*
X100695489Y-75050828D01*
X100338346Y-74050828D02*
X100695489Y-75050828D01*
X100695489Y-75050828D02*
X100838346Y-75407971D01*
X100838346Y-75407971D02*
X100909775Y-75479400D01*
X100909775Y-75479400D02*
X101052632Y-75550828D01*
D10*
D11*
X123409774Y-44050828D02*
X122909774Y-45550828D01*
X122909774Y-45550828D02*
X122409774Y-44050828D01*
X121695489Y-45550828D02*
X121838346Y-45479400D01*
X121838346Y-45479400D02*
X121909775Y-45407971D01*
X121909775Y-45407971D02*
X121981203Y-45265114D01*
X121981203Y-45265114D02*
X121981203Y-44836542D01*
X121981203Y-44836542D02*
X121909775Y-44693685D01*
X121909775Y-44693685D02*
X121838346Y-44622257D01*
X121838346Y-44622257D02*
X121695489Y-44550828D01*
X121695489Y-44550828D02*
X121481203Y-44550828D01*
X121481203Y-44550828D02*
X121338346Y-44622257D01*
X121338346Y-44622257D02*
X121266918Y-44693685D01*
X121266918Y-44693685D02*
X121195489Y-44836542D01*
X121195489Y-44836542D02*
X121195489Y-45265114D01*
X121195489Y-45265114D02*
X121266918Y-45407971D01*
X121266918Y-45407971D02*
X121338346Y-45479400D01*
X121338346Y-45479400D02*
X121481203Y-45550828D01*
X121481203Y-45550828D02*
X121695489Y-45550828D01*
X119909775Y-44550828D02*
X119909775Y-45550828D01*
X120552632Y-44550828D02*
X120552632Y-45336542D01*
X120552632Y-45336542D02*
X120481203Y-45479400D01*
X120481203Y-45479400D02*
X120338346Y-45550828D01*
X120338346Y-45550828D02*
X120124060Y-45550828D01*
X120124060Y-45550828D02*
X119981203Y-45479400D01*
X119981203Y-45479400D02*
X119909775Y-45407971D01*
X119409774Y-44550828D02*
X118838346Y-44550828D01*
X119195489Y-44050828D02*
X119195489Y-45336542D01*
X119195489Y-45336542D02*
X119124060Y-45479400D01*
X119124060Y-45479400D02*
X118981203Y-45550828D01*
X118981203Y-45550828D02*
X118838346Y-45550828D01*
D10*
D11*
X81909774Y-41550828D02*
X81409774Y-43050828D01*
X81409774Y-43050828D02*
X80909774Y-41550828D01*
X80409775Y-43050828D02*
X80409775Y-42050828D01*
X80409775Y-41550828D02*
X80481203Y-41622257D01*
X80481203Y-41622257D02*
X80409775Y-41693685D01*
X80409775Y-41693685D02*
X80338346Y-41622257D01*
X80338346Y-41622257D02*
X80409775Y-41550828D01*
X80409775Y-41550828D02*
X80409775Y-41693685D01*
X79695489Y-42050828D02*
X79695489Y-43050828D01*
X79695489Y-42193685D02*
X79624060Y-42122257D01*
X79624060Y-42122257D02*
X79481203Y-42050828D01*
X79481203Y-42050828D02*
X79266917Y-42050828D01*
X79266917Y-42050828D02*
X79124060Y-42122257D01*
X79124060Y-42122257D02*
X79052632Y-42265114D01*
X79052632Y-42265114D02*
X79052632Y-43050828D01*
D12*
%TO.P,U1,1,ADJ*%
%TO.N,Net-(D2-A)*%
X97250000Y-53330000D03*
D13*
%TO.P,U1,2,VO*%
%TO.N,Net-(D1-K)*%
X97250000Y-50790000D03*
%TO.P,U1,3,VI*%
%TO.N,9V*%
X97250000Y-48250000D03*
%TD*%
D14*
%TO.P,RV2,*%
%TO.N,*%
X95800000Y-66250000D03*
X86200000Y-66250000D03*
D15*
%TO.P,RV2,1,1*%
%TO.N,Net-(D2-A)*%
X93500000Y-58750000D03*
D16*
%TO.P,RV2,2,2*%
X91000000Y-58750000D03*
%TO.P,RV2,3,3*%
%TO.N,GND*%
X88500000Y-58750000D03*
%TD*%
D17*
%TO.P,R1,1*%
%TO.N,Net-(D1-K)*%
X103500000Y-53500000D03*
%TO.P,R1,2*%
%TO.N,Net-(D2-A)*%
X100960000Y-53500000D03*
%TD*%
D18*
%TO.P,J2,1,Pin_1*%
%TO.N,Net-(D1-K)*%
X121000000Y-49250000D03*
D19*
%TO.P,J2,2,Pin_2*%
%TO.N,GND*%
X121000000Y-54330000D03*
%TD*%
D18*
%TO.P,J1,1,Pin_1*%
%TO.N,9V*%
X81170000Y-47250000D03*
D19*
%TO.P,J1,2,Pin_2*%
%TO.N,GND*%
X81170000Y-52330000D03*
%TD*%
D20*
%TO.P,D2,1,K*%
%TO.N,Net-(D1-K)*%
X107250000Y-56000000D03*
D21*
%TO.P,D2,2,A*%
%TO.N,Net-(D2-A)*%
X107250000Y-66160000D03*
%TD*%
D22*
%TO.P,D1,1,K*%
%TO.N,Net-(D1-K)*%
X111250000Y-47500000D03*
D21*
%TO.P,D1,2,A*%
%TO.N,9V*%
X101090000Y-47500000D03*
%TD*%
D17*
%TO.P,C2,1*%
%TO.N,GND*%
X112500000Y-53000000D03*
%TO.P,C2,2*%
%TO.N,Net-(D1-K)*%
X112500000Y-50500000D03*
%TD*%
%TO.P,C1,1*%
%TO.N,GND*%
X91250000Y-50250000D03*
%TO.P,C1,2*%
%TO.N,9V*%
X88750000Y-50250000D03*
%TD*%
D23*
%TO.N,GND*%
X112500000Y-53000000D02*
X112500000Y-72250000D01*
X83750000Y-72250000D02*
X112500000Y-72250000D01*
X81170000Y-52330000D02*
X83750000Y-54910000D01*
X83750000Y-54910000D02*
X83750000Y-72250000D01*
%TO.N,Net-(D2-A)*%
X100960000Y-53500000D02*
X100960000Y-59870000D01*
X100960000Y-59870000D02*
X107250000Y-66160000D01*
%TO.N,GND*%
X112500000Y-53000000D02*
X119670000Y-53000000D01*
X119670000Y-53000000D02*
X121000000Y-54330000D01*
%TO.N,Net-(D1-K)*%
X112500000Y-50500000D02*
X119750000Y-50500000D01*
X119750000Y-50500000D02*
X121000000Y-49250000D01*
%TO.N,Net-(D2-A)*%
X97250000Y-53330000D02*
X100790000Y-53330000D01*
X100790000Y-53330000D02*
X100960000Y-53500000D01*
%TO.N,Net-(D1-K)*%
X112500000Y-50500000D02*
X112500000Y-48750000D01*
X112500000Y-48750000D02*
X111250000Y-47500000D01*
X107250000Y-56000000D02*
X107250000Y-55750000D01*
X107250000Y-55750000D02*
X112500000Y-50500000D01*
X103500000Y-53500000D02*
X104750000Y-53500000D01*
X104750000Y-53500000D02*
X107250000Y-56000000D01*
X97250000Y-50790000D02*
X100790000Y-50790000D01*
X100790000Y-50790000D02*
X103500000Y-53500000D01*
%TO.N,9V*%
X97250000Y-48250000D02*
X100340000Y-48250000D01*
X100340000Y-48250000D02*
X101090000Y-47500000D01*
%TO.N,Net-(D2-A)*%
X97250000Y-53330000D02*
X97250000Y-55000000D01*
X97250000Y-55000000D02*
X93500000Y-58750000D01*
X91000000Y-58750000D02*
X93500000Y-58750000D01*
%TO.N,GND*%
X84580000Y-52330000D02*
X87000000Y-54750000D01*
X81170000Y-52330000D02*
X84580000Y-52330000D01*
X87000000Y-54750000D02*
X87000000Y-57250000D01*
X87000000Y-57250000D02*
X88500000Y-58750000D01*
X87590000Y-58750000D02*
X88500000Y-58750000D01*
X91250000Y-50250000D02*
X88500000Y-53000000D01*
X88500000Y-53000000D02*
X88500000Y-58750000D01*
%TO.N,9V*%
X88750000Y-50250000D02*
X90750000Y-48250000D01*
X90750000Y-48250000D02*
X97250000Y-48250000D01*
X81170000Y-47250000D02*
X85750000Y-47250000D01*
X85750000Y-47250000D02*
X88750000Y-50250000D01*
%TD*%
M02*
